<?xml version="1.0" encoding="utf-8"?>
<!-- Generator: Adobe Illustrator 26.3.1, SVG Export Plug-In . SVG Version: 6.00 Build 0)  -->
<svg version="1.1"
	 id="Layer_1" xmlns:dc="http://purl.org/dc/elements/1.1/" xmlns:cc="http://creativecommons.org/ns#" xmlns:rdf="http://www.w3.org/1999/02/22-rdf-syntax-ns#"
	 xmlns="http://www.w3.org/2000/svg" xmlns:xlink="http://www.w3.org/1999/xlink" x="0px" y="0px" viewBox="0 0 2662.5 724.5"
	 style="enable-background:new 0 0 2662.5 724.5;" xml:space="preserve">
<style type="text/css">
	.st0{fill:#006F46;}
</style>
<path class="st0" d="M1456,375.3c0,0-4,0.3-6,0.6c-7.6,1.2-9.8,3.3-9.8,12.6v73.6c0,10,6.3,10.6,15.1,11.1c21.5,1.2,34-17.9,34-48.8
	C1489.3,393.5,1476.9,375.3,1456,375.3c0,0-4,0.3-6,0.6c-7.6,1.2-9.8,3.3-9.8,12.6v73.6c0,10,6.3,10.6,15.1,11.1
	c21.5,1.2,34-17.9,34-48.8C1489.3,393.5,1476.9,375.3,1456,375.3 M1230,376.4c-19.3,0-31.2,18.4-31.2,49c0,29.9,11.7,47.9,31.6,47.9
	c19.3,0,31.4-18.8,31.4-48.3C1261.8,395.1,1249.5,376.4,1230,376.4 M1345.2,376.4c-19.3,0-31.3,18.4-31.3,49
	c0,29.9,11.8,47.9,31.6,47.9c19.3,0,31.4-18.8,31.4-48.3C1377,395.1,1364.7,376.4,1345.2,376.4 M1456,375.3c0,0-4,0.3-6,0.6
	c-7.6,1.2-9.8,3.3-9.8,12.6v73.6c0,10,6.3,10.6,15.1,11.1c21.5,1.2,34-17.9,34-48.8C1489.3,393.5,1476.9,375.3,1456,375.3
	c0,0-4,0.3-6,0.6c-7.6,1.2-9.8,3.3-9.8,12.6v73.6c0,10,6.3,10.6,15.1,11.1c21.5,1.2,34-17.9,34-48.8
	C1489.3,393.5,1476.9,375.3,1456,375.3 M1345.2,376.4c-19.3,0-31.3,18.4-31.3,49c0,29.9,11.8,47.9,31.6,47.9
	c19.3,0,31.4-18.8,31.4-48.3C1377,395.1,1364.7,376.4,1345.2,376.4 M1230,376.4c-19.3,0-31.2,18.4-31.2,49
	c0,29.9,11.7,47.9,31.6,47.9c19.3,0,31.4-18.8,31.4-48.3C1261.8,395.1,1249.5,376.4,1230,376.4 M1245.8,549.4
	c-0.3-0.5-4.6-9.5-5.1-10.6c-0.5-1-1.7-1.1-2.1,0c-0.5,1.2-4.8,9.8-5.1,10.4c-0.5,1,0.1,1.7,1,1.7h10.2
	C1245.5,550.9,1246.2,550.3,1245.8,549.4 M1230,376.4c-19.3,0-31.2,18.4-31.2,49c0,29.9,11.7,47.9,31.6,47.9
	c19.3,0,31.4-18.8,31.4-48.3C1261.8,395.1,1249.5,376.4,1230,376.4 M1345.2,376.4c-19.3,0-31.3,18.4-31.3,49
	c0,29.9,11.8,47.9,31.6,47.9c19.3,0,31.4-18.8,31.4-48.3C1377,395.1,1364.7,376.4,1345.2,376.4 M1456,375.3c0,0-4,0.3-6,0.6
	c-7.6,1.2-9.8,3.3-9.8,12.6v73.6c0,10,6.3,10.6,15.1,11.1c21.5,1.2,34-17.9,34-48.8C1489.3,393.5,1476.9,375.3,1456,375.3
	c0,0-4,0.3-6,0.6c-7.6,1.2-9.8,3.3-9.8,12.6v73.6c0,10,6.3,10.6,15.1,11.1c21.5,1.2,34-17.9,34-48.8
	C1489.3,393.5,1476.9,375.3,1456,375.3 M1345.2,376.4c-19.3,0-31.3,18.4-31.3,49c0,29.9,11.8,47.9,31.6,47.9
	c19.3,0,31.4-18.8,31.4-48.3C1377,395.2,1364.7,376.4,1345.2,376.4 M1230,376.4c-19.3,0-31.2,18.4-31.2,49
	c0,29.9,11.7,47.9,31.6,47.9c19.3,0,31.4-18.8,31.4-48.3C1261.8,395.2,1249.5,376.4,1230,376.4 M1245.8,549.4
	c-0.3-0.5-4.6-9.5-5.1-10.6c-0.5-1-1.7-1.1-2.1,0c-0.5,1.2-4.8,9.8-5.1,10.4c-0.5,1,0.1,1.7,1,1.7h10.2
	C1245.5,551,1246.2,550.3,1245.8,549.4c-0.3-0.5-4.6-9.5-5.1-10.6c-0.5-1-1.7-1.1-2.1,0c-0.5,1.2-4.8,9.8-5.1,10.4
	c-0.5,1,0.1,1.7,1,1.7h10.2C1245.5,551,1246.2,550.3,1245.8,549.4 M1230,376.4c-19.3,0-31.2,18.4-31.2,49
	c0,29.9,11.7,47.9,31.6,47.9c19.3,0,31.4-18.8,31.4-48.3C1261.8,395.2,1249.5,376.4,1230,376.4 M1312.2,531.2h-13
	c-1.3,0-2.8,0.5-2.8,2.1v9.5c0,1.5,1.4,2.4,2.8,2.4h13c4.4,0,7.9-2.3,7.9-7S1316.6,531.2,1312.2,531.2 M1345.2,376.4
	c-19.3,0-31.3,18.4-31.3,49c0,29.9,11.8,47.9,31.6,47.9c19.3,0,31.4-18.8,31.4-48.3C1377,395.2,1364.7,376.4,1345.2,376.4
	 M1456,375.3c0,0-4,0.3-6,0.6c-7.6,1.2-9.8,3.3-9.8,12.6v73.6c0,10,6.3,10.6,15.1,11.1c21.5,1.2,34-17.9,34-48.8
	C1489.3,393.5,1476.9,375.3,1456,375.3c0,0-4,0.3-6,0.6c-7.6,1.2-9.8,3.3-9.8,12.6v73.6c0,10,6.3,10.6,15.1,11.1
	c21.5,1.2,34-17.9,34-48.8C1489.3,393.5,1476.9,375.3,1456,375.3 M1345.2,376.4c-19.3,0-31.3,18.4-31.3,49
	c0,29.9,11.8,47.9,31.6,47.9c19.3,0,31.4-18.8,31.4-48.3C1377,395.2,1364.7,376.4,1345.2,376.4 M1230,376.4
	c-19.3,0-31.2,18.4-31.2,49c0,29.9,11.7,47.9,31.6,47.9c19.3,0,31.4-18.8,31.4-48.3C1261.8,395.2,1249.5,376.4,1230,376.4
	 M1312.2,531.2h-13c-1.3,0-2.8,0.5-2.8,2.1v9.5c0,1.5,1.4,2.4,2.8,2.4h13c4.4,0,7.9-2.3,7.9-7S1316.6,531.2,1312.2,531.2
	 M1245.8,549.4c-0.3-0.5-4.6-9.5-5.1-10.6c-0.5-1-1.7-1.1-2.1,0c-0.5,1.2-4.8,9.8-5.1,10.4c-0.5,1,0.1,1.7,1,1.7h10.2
	C1245.5,551,1246.2,550.3,1245.8,549.4c-0.3-0.5-4.6-9.5-5.1-10.6c-0.5-1-1.7-1.1-2.1,0c-0.5,1.2-4.8,9.8-5.1,10.4
	c-0.5,1,0.1,1.7,1,1.7h10.2C1245.5,551,1246.2,550.3,1245.8,549.4 M1230,376.4c-19.3,0-31.2,18.4-31.2,49
	c0,29.9,11.7,47.9,31.6,47.9c19.3,0,31.4-18.8,31.4-48.3C1261.8,395.2,1249.5,376.4,1230,376.4 M1312.2,531.2h-13
	c-1.3,0-2.8,0.5-2.8,2.1v9.5c0,1.5,1.4,2.4,2.8,2.4h13c4.4,0,7.9-2.3,7.9-7S1316.6,531.2,1312.2,531.2 M1345.2,376.4
	c-19.3,0-31.3,18.4-31.3,49c0,29.9,11.8,47.9,31.6,47.9c19.3,0,31.4-18.8,31.4-48.3C1377,395.2,1364.7,376.4,1345.2,376.4
	 M1456,375.3c0,0-4,0.3-6,0.6c-7.6,1.2-9.8,3.3-9.8,12.6v73.6c0,10,6.3,10.6,15.1,11.1c21.5,1.2,34-17.9,34-48.8
	C1489.3,393.5,1476.9,375.3,1456,375.3c0,0-4,0.3-6,0.6c-7.6,1.2-9.8,3.3-9.8,12.6v73.6c0,10,6.3,10.6,15.1,11.1
	c21.5,1.2,34-17.9,34-48.8C1489.3,393.5,1476.9,375.3,1456,375.3 M1345.2,376.4c-19.3,0-31.3,18.4-31.3,49
	c0,29.9,11.8,47.9,31.6,47.9c19.3,0,31.4-18.8,31.4-48.3C1377,395.2,1364.7,376.4,1345.2,376.4 M1230,376.4
	c-19.3,0-31.2,18.4-31.2,49c0,29.9,11.7,47.9,31.6,47.9c19.3,0,31.4-18.8,31.4-48.3C1261.8,395.2,1249.5,376.4,1230,376.4
	 M1312.2,531.2h-13c-1.3,0-2.8,0.5-2.8,2.1v9.5c0,1.5,1.4,2.4,2.8,2.4h13c4.4,0,7.9-2.3,7.9-7S1316.6,531.2,1312.2,531.2
	 M1245.8,549.4c-0.3-0.5-4.6-9.5-5.1-10.6c-0.5-1-1.7-1.1-2.1,0c-0.5,1.2-4.8,9.8-5.1,10.4c-0.5,1,0.1,1.7,1,1.7h10.2
	C1245.5,551,1246.2,550.3,1245.8,549.4 M1603.6,482.3c0-1.2-1.2-1.5-2.4-1.5h-1.7v3h1.2C1602.3,483.8,1603.6,483.7,1603.6,482.3
	 M1603.6,489.8l-3.1-4.3h-1v4.3h-1.8v-10.7h4c2.5,0,3.6,1,3.6,3.2c0,2.1-1.2,3-2.7,3.1l3.1,4.4H1603.6z M1601.1,477.4
	c-4.1,0-7.2,3.1-7.2,7.3c0,4.3,3.1,7.3,7.2,7.3s7.2-3.1,7.2-7.3C1608.3,480.5,1605.3,477.4,1601.1,477.4 M1240.6,538.8
	c-0.5-1-1.7-1.1-2.1,0c-0.5,1.2-4.8,9.8-5.1,10.4c-0.5,1,0.1,1.7,1,1.7h10.2c0.7,0,1.5-0.7,1.1-1.5
	C1245.5,548.9,1241.1,539.9,1240.6,538.8 M1230,376.4c-19.3,0-31.2,18.4-31.2,49c0,29.9,11.7,47.9,31.6,47.9
	c19.3,0,31.4-18.8,31.4-48.3C1261.7,395.2,1249.4,376.4,1230,376.4 M1312.2,531.2h-13c-1.3,0-2.8,0.5-2.8,2.1v9.5
	c0,1.5,1.4,2.4,2.8,2.4h13c4.4,0,7.9-2.3,7.9-7S1316.5,531.2,1312.2,531.2 M1345.2,376.4c-19.3,0-31.3,18.4-31.3,49
	c0,29.9,11.8,47.9,31.6,47.9c19.3,0,31.4-18.8,31.4-48.3C1377,395.2,1364.7,376.4,1345.2,376.4 M1489.3,424.4
	c0-30.9-12.4-49.1-33.3-49.1c0,0-4,0.3-6,0.6c-7.6,1.2-9.8,3.3-9.8,12.6v73.6c0,10,6.3,10.6,15.1,11.1
	C1476.8,474.5,1489.3,455.4,1489.3,424.4 M1610.5,339.2c-0.7,3.2-2.7,4.4-6.3,4.4h-4.5h-68.9c-5.9,0-7.9-1.2-7.9-5.1
	c0-2.6,2-4.7,4.4-4.7h3.6c1.2,0,2.4-1.1,2.8-2.3c0.5-1.4,0.7-2.3,0.7-7V246c0-4.6-0.1-5.5-0.7-6.9c-0.4-1.6-1.8-2.6-2.8-2.6h-3.6
	c-2.4,0-4.5-2.3-4.5-4.9c0-3.9,2.2-5.2,8.1-5.2h70.2c3.5,0,5.5,1.2,6.3,4.4l2.5,12.2c1,4.5-0.6,6.9-3.8,6.9c-1.7,0-3.3-0.4-4.5-2.7
	c-0.2-0.4-0.9-1.6-1.7-3.8c-1.7-4.5-5.3-5.1-13.4-5.1h-16.6c-9.6,0-10.7,1.3-10.7,10.6v20.9c0,3.9,0.6,5.6,1.6,6.4
	c0.8,0.6,2.1,0.7,7.1,0.7h8.2c7.4,0,8.4-0.5,9-4.1l0.1-1.1c0.5-3,2.1-4.4,4.8-4.4c3.7,0,4.9,2.1,4.9,8.3v14.8c0,6.1-1.2,8.3-4.9,8.3
	c-2.7,0-4.2-1.6-4.8-4.6l-0.2-1.2c-0.5-3.5-1.6-4-9-4h-8.1c-5,0-6.3,0.1-7.1,0.7c-1.1,0.7-1.6,2.4-1.6,6.4v22.3
	c0,9.3,0.6,11.3,3.3,12.3c2.3,0.8,4.7,1.2,10.5,1.2h17.5c6.3,0,10.7-2,12.9-6.5c1-2.1,1.3-2.9,1.5-3.2c1.2-2.3,3-3.3,4.8-3.3
	c3.2,0,4.8,2.4,3.8,6.9L1610.5,339.2L1610.5,339.2z M1601.1,493.9c-5.1,0-9.1-4.1-9.1-9.2s4.1-9.2,9.1-9.2c5.1,0,9.1,4.1,9.1,9.2
	C1610.3,489.8,1606.2,493.9,1601.1,493.9 M1560.2,486c-6.5,0-13.4-0.9-18.4-2.5c-2.5-0.7-2.8-0.9-3.8-0.9c-1.5,0-2.2,0.4-3.7,1.7
	c-1.7,1.3-2.5,1.6-4.1,1.6c-2.9,0-4.4-1.6-5.4-5.8l-4.4-17.6c-0.3-1.1-0.5-2.7-0.5-3.5c0-3.1,2.4-5.5,5.5-5.5c1.8,0,3.3,0.9,4.4,2.4
	l2.5,3.5c6.1,8.6,15.9,13.9,26,13.9c11.4,0,19.2-6.4,19.2-15.7c0-4.8-2-9-5.7-13.2c-3.8-4.2-8.5-8.1-18.6-15.1
	c-16.6-11.7-18.2-12.7-23.7-19c-4.4-5.1-6.7-11.4-6.7-18.4c0-17,13-28.3,32.3-28.3c5,0,10,0.5,15.2,1.6c0.5,0.2,2,0.5,4.4,1.1
	c0.8,0.2,1.7,0.3,2.4,0.3c1.2,0,2.5-0.6,4-1.6c1.7-1.3,2.3-1.4,3.7-1.4c2.6,0,4.2,1.8,4.9,4.9l4.2,19c0.3,0.8,0.3,1.9,0.3,2.4
	c0,2.3-2.1,4.2-5.1,4.2c-1.9,0-3-0.7-4.7-3c-4-6-4.7-6.7-8.4-9.5c-4.7-3.7-10.8-5.7-16.5-5.7c-8.1,0-13.4,4.6-13.4,11.8
	c0,2.6,0.5,5.3,1.9,7.2c1.8,2.7,4.6,5.4,8.1,8.1c2.2,1.5,4.9,3.6,8.7,6.2c13.9,9.7,18.4,13.2,24.1,19c5.9,6.1,9.5,14.9,9.5,24
	C1598.6,472.6,1583.4,486,1560.2,486 M1515.9,531.3h-10.2c-1.4,0-2.4,0.5-2.4,2.2l0.1,30.6c0,2.2-1.5,2.4-3.9,2.4
	c-2.3,0-3.9-0.2-3.9-2.3v-30.6c0-1.5-0.5-2.2-2.4-2.2h-10.4c-1.7,0-2.2-1.6-2.2-3c0-1.5-0.1-4.4,2.1-4.4h33c1.5,0,2.5,0.8,2.5,3.6
	C1518.2,529.9,1517.5,531.3,1515.9,531.3 M1430.9,540.7h14.6c1.8,0,2.2,1.5,2.2,3.8c0,1.9-0.4,3.6-2.1,3.6H1431
	c-1.2,0-2.2,0.8-2.2,2.2v6.2c0,1.5,0.8,2.2,2,2.2h25c1.7,0,2.2,1.1,2.2,3.8c0,2-0.5,3.6-2.2,3.6h-32.2c-1.9,0-2.6-0.9-2.6-3.1v-36.3
	c0-1.7,0.7-2.8,2.6-2.8h32.3c1.9,0,2.3,1.3,2.3,3.6c0,2.1-0.3,3.8-2.4,3.8h-25.3c-1,0-1.7,0.8-1.7,1.9v5.7
	C1428.9,540.1,1429.8,540.7,1430.9,540.7 M1404.3,477.9c0-2.7,1.8-4.9,4.2-4.9h3.6c1.2,0,2.4-0.9,3-2.3c0.4-1.3,0.5-2.3,0.5-6.9
	v-78.2c0-4.6-0.2-5.6-0.5-6.9c-0.6-1.3-1.8-2.3-3-2.3h-3.6c-2.4,0-4.2-2.2-4.2-4.9c0-3.8,2.6-4.4,7.8-5.1c5.1-0.7,19.5-2.7,41.4-2.7
	s35.5,4.8,46.3,15.6c10.3,10.4,15.9,26.4,15.9,45.3c0,21.3-7.2,38.8-20.2,49.2c-10.1,8.2-22.8,11.9-42,11.9c-21.9,0-36.2-2-41.4-2.7
	C1407,482.3,1404.3,481.8,1404.3,477.9 M1345,485.9c-28.3,0-48.6-16-55.1-41.8c-0.1-0.2-0.1-0.4-0.2-0.6c-0.6-2.9-3.2-3.1-3.8,0
	c0,0.1-0.1,0.2-0.1,0.3c-6.6,26.2-27,42.1-56,42.1c-34.8,0-57.4-24.1-57.4-60.7c0-37.5,22.5-61.4,57.7-61.4
	c29,0,49.6,16.1,55.9,42.5c0.7,3,3.2,2.8,3.8-0.1c0,0,0-0.1,0.1-0.1c6.4-26.3,26.7-42.3,55.5-42.3c35.1,0,57.9,23.7,57.9,60.6
	C1403.3,461.9,1380.7,485.9,1345,485.9 M1393.7,566.4c-3.6,0-4.5-0.6-5.4-1.7l-13.5-14.4c-1.8-1.6-3.7-1.8-6.2-1.8
	c-1.4,0-2.5,1.4-2.5,3.1v12.3c0,2.3-2,2.5-4.2,2.5c-2.3,0-3.5-0.6-3.5-2.5v-37.5c0-2.2,1.4-2.6,4.1-2.6c2.2,0,3.6,0.5,3.6,2.5v11.3
	c0,1.8,0.8,2.7,2,2.7c3.3,0,4-0.7,5.2-1.8c1.4-1.2,15.2-13.9,15.2-13.9c1.7-1.5,3.5-1.5,5.2,0.1c1.4,1.3,2,2.8,0.5,4.4
	c-1.1,1.1-13.2,12.1-13.2,12.1c-1.5,1.3-1.1,2.5-0.1,3.7c0,0,14.6,16.1,16.1,17.8C1399.1,565.2,1397,566.4,1393.7,566.4
	 M1319.4,552.8c0.3,0.5,6.3,9.1,7.1,10.4c1.3,1.9,0.1,3.2-3.9,3.2c-2.3,0-3.8-0.4-4.7-1.8l-6.6-10.2c-0.7-1.1-1.8-1.9-3.3-1.9h-9.4
	c-1.1,0-2.2,0.9-2.2,2.1l0.1,10.2c0,2-3.9,1.7-5.2,1.7c-1.7,0-2.6-0.5-2.6-2.4l0.1-38.7c0-1,0.9-1.6,1.8-1.6h22.2
	c8.6,0,15,5.5,15,14.4c0,7.7-5.5,10.2-7.7,12C1319,551.2,1318.7,551.8,1319.4,552.8 M1256.9,566.4c-1.3,0-3.2-0.2-3.8-1.6l-2.7-5.6
	c-0.4-0.7-1.1-1.3-2-1.3H1231c-1.1,0-2.1,0.8-2.7,2.4l-2.4,4.6c-0.5,1.3-3.2,1.6-4.4,1.6c-1.1,0-4.6-0.1-3.5-2.5l18.5-38.4
	c0.5-1.1,1.5-2,3.2-2c1.7,0,2.7,0.6,3.3,1.8c0,0,17.7,37.6,18.2,38.7C1262,566.1,1258.2,566.4,1256.9,566.4 M1190,566.4
	c-1.1,0-3.1-0.6-3.1-2l-3-22.5c-0.2-0.9-0.5-1.3-1.3-1.3c-0.6,0-0.9,0.3-1.3,0.8l-10.1,13c-0.5,0.7-1.2,1.1-2,1.1
	c-1.2,0-1.7-0.3-2.3-1.3l-9.3-12.6c-0.4-0.5-0.9-0.7-1.3-0.7c-0.7,0-1.1,0.7-1.2,1.5l-2.9,21.8c-0.3,1.8-2.5,2.2-4.3,2.2
	c-1.3,0-3.4-0.6-3.4-2.2l4.3-36.7c0.5-2.2,0.9-3.5,4.1-3.5c0.8,0,2.1,0.2,3.1,1.8l11.6,16.3c0.6,0.9,1.3,1.6,2.1,1.6
	c0.8,0,1.5-0.8,2.2-1.7l12.2-16.6c0.7-1.1,1.9-1.6,3.2-1.6c1.5,0,2.5,0.3,3.2,2.8l4.3,37.7C1194.8,566.4,1191.5,566.4,1190,566.4
	 M1117.2,464.2c0,4.7,0,5.6,0.4,6.8c0.7,1.4,2.3,2.3,3.7,2.3h4c2.8,0,4.7,2.3,4.7,4.9c0,3.9-2.2,5.1-8.6,5.1h-32.3
	c-6,0-8.1-1.2-8.1-5.1c0-2.7,2.1-4.9,4.5-4.9h3.6c1.2,0,2.4-0.9,3-2.3c0.4-1.2,0.6-2.1,0.6-6.8v-78.6c0-4.6-0.1-5.5-0.7-6.9
	c-0.4-1.6-1.8-2.6-2.8-2.6h-3.6c-2.4,0-4.5-2.3-4.5-4.9c0-3.9,2.1-5.1,8.1-5.1h76.2c3.5,0,5.5,1.2,6.2,4.4l2.5,12.2
	c1,4.5-0.6,6.9-3.8,6.9c-1.7,0-3.4-0.5-4.5-2.8c-0.2-0.3-0.9-1.6-1.7-3.8c-1.7-4.5-5.3-5.1-13.4-5.1h-22.6
	c-9.6,0-10.7,1.3-10.7,10.6v20.9c0,3.9,0.6,5.6,1.6,6.4c0.8,0.6,2.1,0.7,7.1,0.7h14.5c7.4,0,8.4-0.5,9-4.1l0.1-1.1
	c0.5-3,2.1-4.4,4.7-4.4c3.7,0,4.9,2.1,4.9,8.3V430c0,6.2-1.2,8.3-4.9,8.3c-2.6,0-4.2-1.6-4.7-4.6l-0.2-1.2c-0.5-3.5-1.6-4.1-9-4.1
	h-14.6c-5.1,0-6.3,0.1-7.1,0.7c-1.1,0.7-1.6,2.4-1.6,6.4L1117.2,464.2L1117.2,464.2z M1059.3,244.9c-2.6-7.2-3.5-8.1-9.1-9.3
	c-3.7-0.7-4.9-1.9-4.9-4.7c0-3,1.9-4.6,5.9-4.6h36.3c4,0,5.8,1.6,5.8,4.7c0,3-1.8,4.2-6.3,4.6c-3.9,0.3-5.4,1.6-5.4,4.4
	c0,1.2,0.1,2.5,0.6,3.9l1.4,4c0,0,19.4,54.9,22.5,63.8c0.5,1.4,2.1,1.3,2.7-0.2c3.4-9.8,12.7-36.7,13-37.8c1-3.1,1.4-6.4,0.2-10
	c-0.4-1.3-6.3-18.8-6.3-18.8c-0.7-1.9-1.1-3.3-1.5-4c-1-2.6-2.5-3.5-6.5-4.6c-3.6-0.9-5-2.1-5-4.7c0-3.4,2-5.3,6.1-5.3h34.5
	c4,0,5.9,1.6,5.9,4.7c0,2.8-1.8,4.2-5.7,4.7c-4.7,0.5-5.9,1.6-5.9,4.8c0,1.6,0.4,3.2,1.8,7.4c0,0,17,53.8,19.7,62.3
	c0.5,1.6,2,1.2,2.5-0.2c2.7-8.6,19.5-65.1,19.5-65.1c0.5-1.8,0.7-3.2,0.7-4.2c0-2.6-1.9-4-6.2-4.6c-3.9-0.4-5.6-2.1-5.6-4.9
	c0-3.5,2-4.9,6.7-4.9h60.9c5.8,0,7.7,1.2,7.7,5c0,2.9-1.9,5-4.3,5h-3.4c-1.4,0-2.8,1.1-3.4,2.2c-0.3,1.3-0.5,2.5-0.5,6.9v22.7
	c0,8.1,0.7,8.8,7.2,8.8h23.9c3.5,0,5.3-0.6,6.2-1.6c0.8-1.1,0.8-1.8,0.8-8.3v-21.6c0-4.6,0-5.6-0.4-6.9c-0.6-1.3-2-2.2-3.2-2.2h-3.4
	c-2.7,0-4.8-2.1-4.8-5c0-3.9,2.1-5,8.1-5h31.9c6,0,8.1,1.2,8.1,5c0,2.9-2.1,5-4.5,5h-3.6c-1.2,0-2.6,1.1-3,2.2
	c-0.5,1.3-0.6,2.5-0.6,6.9v78.9c0,4.6,0.1,5.6,0.6,7c0.4,1.2,1.8,2.1,3,2.1h3.6c2.6,0,4.5,2.3,4.5,4.9c0,3.9-1.9,5.1-8.1,5.1h-31.9
	c-6,0-7.9-1.2-7.9-5.1c0-2.6,2.1-4.9,4.6-4.9h3.4c1.2,0,2.6-0.9,3.2-2.1c0.4-1.4,0.4-2.5,0.4-7v-25.7c0-6.5,0-7.2-0.8-8.3
	c-0.9-1-2.7-1.6-6.2-1.6h-23.9c-6.5,0-7.2,0.7-7.2,8.8v26.7c0,4.6,0.1,5.6,0.5,7c0.5,1.2,1.9,2.1,3.4,2.1h3.4c2.4,0,4.2,2.3,4.2,5.1
	c0,3.7-2,4.9-7.6,4.9h-32c-5.9,0-8-1.2-8-5.1c0-2.6,2.1-4.9,4.6-4.9h3.5c1.2,0,2.7-0.9,3-2.1c0.5-1.4,0.5-2.3,0.5-7v-78.9
	c0-9-4.2-9.6-7.3-9.1c-3.1,0.4-4.9,2.4-6.8,8.6l-28,90.2c-2.5,8.6-4.9,11.1-10.2,11.1c-5.2,0-7.9-2.3-10-8.8
	c0,0-14.5-43.3-14.9-44.7c-0.5-1.4-2-1.5-2.4-0.1s-16,44.8-16,44.8c-1.7,4.2-2.1,5.4-3.6,6.9c-1.4,1-3.7,1.9-6,1.9
	c-5.1,0-7.6-2.1-10-8.8L1059.3,244.9L1059.3,244.9z M1292.6,191.7c5.9-21.8,27.1-43.8,50.5-37.1c19.9,5.7,18.5,22.1,33,27.3
	c5.2,1.8,4.8,7.1,0.3,7.9c-7.6,1.4-18-4.1-25.7-11.1c-9-8.2-23.6-7.8-30.8-2.4c-3.1,2.4-1.5,4.7,1.3,4c6.6-1.4,17.8-1.8,26.5,7.9
	c8.5,9.5,24.3,18,38.3,8.9c3.9-2.5,6.4-7.7,10.3-6.6c4.2,1.2,4.2,7.3-1.2,14.3c-12.9,16.7-26.2,14.7-40.4,28.6
	c-14.2,13.9-17.1,29.8-17.1,49.9c0,31.2,12.3,50.1,33,50.1c20.2,0,32.8-19.6,32.8-50.5c0-25.4-6-41.9-21.1-47.7
	c-7.3-2.7-6.1-9.8,3.4-11c7.8-0.9,15.4,1.7,23.7,7.9c14.4,10.6,21.6,27.4,21.6,50c0,39.3-23.7,64.4-60.9,64.4
	c-36.4,0-60-25.1-60-63.5c0-24.7,9.3-43.7,25.3-54.4c6.7-5,18.1-10.8,29.2-14.6c2.3-0.8,2.3-4.9-1.8-4.1c-4.9,1-13.8,1.7-21.2-1.3
	c-16.6-6.5-21.4-18.2-40.9-9.9C1294.7,201.5,1290.9,198,1292.6,191.7 M1440.9,226.4h32.5c6.3,0,8.5,1.3,8.5,5.2
	c0,2.8-2.2,4.9-4.7,4.9h-3.8c-1.6,0-3.2,0.9-3.7,2.3c-0.5,1.2-0.5,2.3-0.5,6.8v73.8c0,7.7,0.3,9.5,2.4,10.7
	c1.8,1.2,4.5,1.6,11.5,1.6h9.9c6.3,0,10.7-2,12.9-6.5c1-2.1,1.3-2.9,1.5-3.2c1.2-2.3,3-3.3,4.7-3.3c3.2,0,4.8,2.4,3.8,7l-2.7,13.6
	c-0.7,3.2-2.7,4.4-6.3,4.4h-66c-5.9,0-7.8-1.2-7.8-5.1c0-2.6,1.9-4.7,4.4-4.7h3.4c1.2,0,2.6-1.1,2.9-2.3c0.5-1.3,0.7-2.2,0.7-6.5
	v-79.5c0-4.7-0.2-5.4-0.7-6.8c-0.4-1.4-1.8-2.3-2.9-2.3h-3.4c-2.6,0-4.8-2.1-4.8-4.9C1432.7,227.7,1434.9,226.4,1440.9,226.4
	 M1331.2,0C1131.2,0,969,162.2,969,362.3s162.2,362.3,362.3,362.3s362.3-162.2,362.3-362.3C1693.5,162.2,1531.3,0,1331.2,0
	 M1603.6,482.3c0-1.2-1.2-1.5-2.4-1.5h-1.7v3h1.2C1602.3,483.8,1603.6,483.7,1603.6,482.3 M1603.6,489.8l-3.1-4.3h-1v4.3h-1.8v-10.7
	h4c2.5,0,3.6,1,3.6,3.2c0,2.1-1.2,3-2.7,3.1l3.1,4.4H1603.6z M1601.1,477.4c-4.1,0-7.2,3.1-7.2,7.3c0,4.3,3.1,7.3,7.2,7.3
	s7.2-3.1,7.2-7.3C1608.3,480.5,1605.3,477.4,1601.1,477.4 M1245.7,549.4c-0.3-0.5-4.6-9.5-5.1-10.6c-0.5-1-1.7-1.1-2.1,0
	c-0.5,1.2-4.8,9.8-5.1,10.4c-0.5,1,0.1,1.7,1,1.7h10.2C1245.4,551,1246.2,550.3,1245.7,549.4 M1312.2,531.2h-13
	c-1.3,0-2.8,0.5-2.8,2.1v9.5c0,1.5,1.4,2.4,2.8,2.4h13c4.4,0,7.9-2.3,7.9-7S1316.5,531.2,1312.2,531.2 M1230,376.4
	c-19.3,0-31.2,18.4-31.2,49c0,29.9,11.7,47.9,31.6,47.9c19.3,0,31.4-18.8,31.4-48.3C1261.7,395.2,1249.4,376.4,1230,376.4
	 M1345.2,376.4c-19.3,0-31.3,18.4-31.3,49c0,29.9,11.8,47.9,31.6,47.9c19.3,0,31.4-18.8,31.4-48.3
	C1377,395.2,1364.7,376.4,1345.2,376.4 M1455.9,375.3c0,0-4,0.3-6,0.6c-7.6,1.2-9.8,3.3-9.8,12.6v73.6c0,10,6.3,10.6,15.1,11.1
	c21.5,1.2,34-17.9,34-48.8C1489.3,393.5,1476.8,375.3,1455.9,375.3 M1603.6,482.3c0-1.2-1.2-1.5-2.4-1.5h-1.7v3h1.2
	C1602.2,483.8,1603.6,483.7,1603.6,482.3 M1603.6,489.8l-3.1-4.3h-1v4.3h-1.8v-10.7h4c2.5,0,3.6,1,3.6,3.2c0,2.1-1.2,3-2.7,3.1
	l3.1,4.4H1603.6z M1601.1,477.4c-4.1,0-7.2,3.1-7.2,7.3c0,4.3,3.1,7.3,7.2,7.3s7.2-3.1,7.2-7.3
	C1608.3,480.5,1605.2,477.4,1601.1,477.4 M1455.9,375.3c0,0-4,0.3-6,0.6c-7.6,1.2-9.8,3.3-9.8,12.6v73.6c0,10,6.3,10.6,15.1,11.1
	c21.5,1.2,34-17.9,34-48.8S1476.8,375.3,1455.9,375.3 M1345.2,376.4c-19.3,0-31.3,18.4-31.3,49c0,29.9,11.8,47.9,31.6,47.9
	c19.3,0,31.4-18.8,31.4-48.3C1376.9,395.2,1364.7,376.4,1345.2,376.4 M1312.1,531.2h-13c-1.3,0-2.8,0.5-2.8,2.1v9.5
	c0,1.5,1.4,2.4,2.8,2.4h13c4.4,0,7.9-2.3,7.9-7S1316.5,531.2,1312.1,531.2 M1229.9,376.4c-19.3,0-31.2,18.4-31.2,49
	c0,29.9,11.7,47.9,31.6,47.9c19.3,0,31.4-18.8,31.4-48.3C1261.7,395.2,1249.4,376.4,1229.9,376.4 M1245.7,549.4
	c-0.3-0.5-4.6-9.5-5.1-10.6c-0.5-1-1.7-1.1-2.1,0c-0.5,1.2-4.8,9.8-5.1,10.4c-0.5,1,0.1,1.7,1,1.7h10.2
	C1245.4,551,1246.1,550.3,1245.7,549.4c-0.3-0.5-4.6-9.5-5.1-10.6c-0.5-1-1.7-1.1-2.1,0c-0.5,1.2-4.8,9.8-5.1,10.4
	c-0.5,1,0.1,1.7,1,1.7h10.2C1245.4,551,1246.1,550.3,1245.7,549.4 M1312.1,531.2h-13c-1.3,0-2.8,0.5-2.8,2.1v9.5
	c0,1.5,1.4,2.4,2.8,2.4h13c4.4,0,7.9-2.3,7.9-7S1316.5,531.2,1312.1,531.2 M1229.9,376.4c-19.3,0-31.2,18.4-31.2,49
	c0,29.9,11.7,47.9,31.6,47.9c19.3,0,31.4-18.8,31.4-48.3C1261.7,395.2,1249.4,376.4,1229.9,376.4 M1345.2,376.4
	c-19.3,0-31.3,18.4-31.3,49c0,29.9,11.8,47.9,31.6,47.9c19.3,0,31.4-18.8,31.4-48.3C1376.9,395.2,1364.7,376.4,1345.2,376.4
	 M1455.9,375.3c0,0-4,0.3-6,0.6c-7.6,1.2-9.8,3.3-9.8,12.6v73.6c0,10,6.3,10.6,15.1,11.1c21.5,1.2,34-17.9,34-48.8
	S1476.8,375.3,1455.9,375.3c0,0-4,0.3-6,0.6c-7.6,1.2-9.8,3.3-9.8,12.6v73.6c0,10,6.3,10.6,15.1,11.1c21.5,1.2,34-17.9,34-48.8
	S1476.8,375.3,1455.9,375.3 M1345.2,376.4c-19.3,0-31.3,18.4-31.3,49c0,29.9,11.8,47.9,31.6,47.9c19.3,0,31.4-18.8,31.4-48.3
	C1376.9,395.2,1364.7,376.4,1345.2,376.4 M1312.1,531.2h-13c-1.3,0-2.8,0.5-2.8,2.1v9.5c0,1.5,1.4,2.4,2.8,2.4h13
	c4.4,0,7.9-2.3,7.9-7S1316.5,531.2,1312.1,531.2 M1229.9,376.4c-19.3,0-31.2,18.4-31.2,49c0,29.9,11.7,47.9,31.6,47.9
	c19.3,0,31.4-18.8,31.4-48.3C1261.7,395.2,1249.4,376.4,1229.9,376.4 M1245.7,549.4c-0.3-0.5-4.6-9.5-5.1-10.6c-0.5-1-1.7-1.1-2.1,0
	c-0.5,1.2-4.8,9.8-5.1,10.4c-0.5,1,0.1,1.7,1,1.7h10.2C1245.4,551,1246.1,550.3,1245.7,549.4c-0.3-0.5-4.6-9.5-5.1-10.6
	c-0.5-1-1.7-1.1-2.1,0c-0.5,1.2-4.8,9.8-5.1,10.4c-0.5,1,0.1,1.7,1,1.7h10.2C1245.4,551,1246.1,550.3,1245.7,549.4 M1312.1,531.2
	h-13c-1.3,0-2.8,0.5-2.8,2.1v9.5c0,1.5,1.4,2.4,2.8,2.4h13c4.4,0,7.9-2.3,7.9-7S1316.5,531.2,1312.1,531.2 M1229.9,376.4
	c-19.3,0-31.2,18.4-31.2,49c0,29.9,11.7,47.9,31.6,47.9c19.3,0,31.4-18.8,31.4-48.3C1261.7,395.2,1249.4,376.4,1229.9,376.4
	 M1345.2,376.4c-19.3,0-31.3,18.4-31.3,49c0,29.9,11.8,47.9,31.6,47.9c19.3,0,31.4-18.8,31.4-48.3
	C1376.9,395.2,1364.7,376.4,1345.2,376.4 M1455.9,375.3c0,0-4,0.3-6,0.6c-7.6,1.2-9.8,3.3-9.8,12.6v73.6c0,10,6.3,10.6,15.1,11.1
	c21.5,1.2,34-17.9,34-48.8S1476.8,375.3,1455.9,375.3c0,0-4,0.3-6,0.6c-7.6,1.2-9.8,3.3-9.8,12.6v73.6c0,10,6.3,10.6,15.1,11.1
	c21.5,1.2,34-17.9,34-48.8S1476.8,375.3,1455.9,375.3 M1345.2,376.4c-19.3,0-31.3,18.4-31.3,49c0,29.9,11.8,47.9,31.6,47.9
	c19.3,0,31.4-18.8,31.4-48.3C1376.9,395.2,1364.7,376.4,1345.2,376.4 M1312.1,531.2h-13c-1.3,0-2.8,0.5-2.8,2.1v9.5
	c0,1.5,1.4,2.4,2.8,2.4h13c4.4,0,7.9-2.3,7.9-7S1316.5,531.2,1312.1,531.2 M1229.9,376.4c-19.3,0-31.2,18.4-31.2,49
	c0,29.9,11.7,47.9,31.6,47.9c19.3,0,31.4-18.8,31.4-48.3C1261.7,395.2,1249.4,376.4,1229.9,376.4 M1245.7,549.4
	c-0.3-0.5-4.6-9.5-5.1-10.6c-0.5-1-1.7-1.1-2.1,0c-0.5,1.2-4.8,9.8-5.1,10.4c-0.5,1,0.1,1.7,1,1.7h10.2
	C1245.4,551,1246.1,550.3,1245.7,549.4 M1229.9,376.4c-19.3,0-31.2,18.4-31.2,49c0,29.9,11.7,47.9,31.6,47.9
	c19.3,0,31.4-18.8,31.4-48.3C1261.7,395.2,1249.4,376.4,1229.9,376.4 M1345.2,376.4c-19.3,0-31.3,18.4-31.3,49
	c0,29.9,11.8,47.9,31.6,47.9c19.3,0,31.4-18.8,31.4-48.3C1376.9,395.2,1364.7,376.4,1345.2,376.4 M1455.9,375.3c0,0-4,0.3-6,0.6
	c-7.6,1.2-9.8,3.3-9.8,12.6v73.6c0,10,6.3,10.6,15.1,11.1c21.5,1.2,34-17.9,34-48.8S1476.8,375.3,1455.9,375.3c0,0-4,0.3-6,0.6
	c-7.6,1.2-9.8,3.3-9.8,12.6v73.6c0,10,6.3,10.6,15.1,11.1c21.5,1.2,34-17.9,34-48.8S1476.8,375.3,1455.9,375.3 M1345.2,376.4
	c-19.3,0-31.3,18.4-31.3,49c0,29.9,11.8,47.9,31.6,47.9c19.3,0,31.4-18.8,31.4-48.3C1376.9,395.2,1364.7,376.4,1345.2,376.4
	 M1229.9,376.4c-19.3,0-31.2,18.4-31.2,49c0,29.9,11.7,47.9,31.6,47.9c19.3,0,31.4-18.8,31.4-48.3
	C1261.7,395.2,1249.4,376.4,1229.9,376.4c-19.3,0-31.2,18.4-31.2,49c0,29.9,11.7,47.9,31.6,47.9c19.3,0,31.4-18.8,31.4-48.3
	C1261.7,395.2,1249.4,376.4,1229.9,376.4 M1345.2,376.4c-19.3,0-31.3,18.4-31.3,49c0,29.9,11.8,47.9,31.6,47.9
	c19.3,0,31.4-18.8,31.4-48.3C1376.9,395.2,1364.7,376.4,1345.2,376.4 M1455.9,375.3c0,0-4,0.3-6,0.6c-7.6,1.2-9.8,3.3-9.8,12.6v73.6
	c0,10,6.3,10.6,15.1,11.1c21.5,1.2,34-17.9,34-48.8S1476.8,375.3,1455.9,375.3c0,0-4,0.3-6,0.6c-7.6,1.2-9.8,3.3-9.8,12.6v73.6
	c0,10,6.3,10.6,15.1,11.1c21.5,1.2,34-17.9,34-48.8S1476.8,375.3,1455.9,375.3 M1345.2,376.4c-19.3,0-31.3,18.4-31.3,49
	c0,29.9,11.8,47.9,31.6,47.9c19.3,0,31.4-18.8,31.4-48.3C1376.9,395.2,1364.7,376.4,1345.2,376.4 M1229.9,376.4
	c-19.3,0-31.2,18.4-31.2,49c0,29.9,11.7,47.9,31.6,47.9c19.3,0,31.4-18.8,31.4-48.3C1261.7,395.2,1249.4,376.4,1229.9,376.4"/>
</svg>
