<?xml version="1.0" encoding="utf-8"?>
<!-- Generator: Adobe Illustrator 26.3.1, SVG Export Plug-In . SVG Version: 6.00 Build 0)  -->
<svg version="1.1" id="Layer_1" xmlns="http://www.w3.org/2000/svg" xmlns:xlink="http://www.w3.org/1999/xlink" x="0px" y="0px"
	 viewBox="0 0 926.6 1065.6" style="enable-background:new 0 0 926.6 1065.6;" xml:space="preserve">
<style type="text/css">
	.st0{fill:#87E1C3;}
	.st1{fill:#C04D00;}
	.st2{fill:#D77A42;}
	.st3{fill:#EAA57E;}
	.st4{fill:#F7D1BC;}
	.st5{fill:#FF7F30;}
	.st6{fill:#00C08B;}
	.st7{fill:#FFE800;}
	.st8{fill:#454545;}
	.st9{fill:#FFFFFF;}
	.st10{fill:#FFED5F;}
	.st11{fill:#FFF397;}
	.st12{fill:#E29263;}
	.st13{fill:#FFA56C;}
</style>
<rect y="783.9" class="st0" width="448" height="112.7"/>
<g>
	<path d="M169.1,87.8c0,0,8.5-1,8.5,6.4v19.3c0,8.6,0.4,11.6,2.3,11.6c4.9,0,7.7-18.2,7.7-18.2s1.1,22.9-9.1,22.9
		c-8.5,0-9.4-12.8-9.4-19L169.1,87.8z"/>
	<path d="M185.2,88.6c0,0,8.5-1,8.5,6.4v19.3c0,8.6,0.4,11.6,2.3,11.6c4.9,0,7.7-18.2,7.7-18.2s1.1,22.9-9.1,22.9
		c-8.5,0-9.4-12.8-9.4-19L185.2,88.6L185.2,88.6z"/>
	<path d="M234.8,77.3c0-10.7-1.7-13.3-1.7-13.3s10.2,2.9,10.2,10.8v31.1c0,8.1,0.4,20.6,2.3,20.6c4.6,0,14.7-33.5,14.7-33.5
		s-5.4,38-16.1,38c-8.5,0-9.4-12.3-9.4-18.2V77.3L234.8,77.3z"/>
	<path d="M217.7,86.3c0,0,8.5,0,8.5,8.4v19.7c0,8.7,0.4,11.8,2.3,11.8c4.9,0,7.7-18.6,7.7-18.6s1.1,23.4-9.1,23.4
		c-8.5,0-9.4-13.1-9.4-19.4L217.7,86.3z"/>
	<path d="M213.6,87.8c-10.4,0-13.8,9.7-13.8,21.6c0,14.9,5.3,21.7,14.4,21.7c6,0,7.2-16.3,7.2-21.7
		C221.4,97.5,219.6,87.8,213.6,87.8L213.6,87.8z M212.6,127.4c-1.8,0-4.2-4.6-4.2-18c0-10.7,3-19.4,5.2-19.4c3.5,0,5.4,8.6,5.4,19.4
		S215.7,127.4,212.6,127.4L212.6,127.4z"/>
	<path d="M288.3,87.4c-10.4,0-13.8,9.7-13.8,21.6c0,14.9,3.4,21.7,12.6,21.7c7,0,9.1-16.3,9.1-21.7C296.1,97,294.2,87.4,288.3,87.4
		L288.3,87.4z M287.2,127c-1.8,0-4.2-4.6-4.2-18c0-10.7,3-19.4,5.2-19.4c3.5,0,5.4,8.6,5.4,19.4S290.3,127,287.2,127L287.2,127z"/>
	<path d="M149.9,68c-15.9,0-19.7,16.2-19.7,36.1c0,24.8,7.3,35.7,21.3,35.7c10.6,0,13.5-28,13.5-36.8C165,83.1,159.1,68,149.9,68
		L149.9,68z M149.6,134.3c-2.7,0-7.5-7.7-7.5-30.1c0-17.8,3.7-32.3,7.2-32.3c5.3,0,9.7,13.4,9.7,31.2S154.4,134.3,149.6,134.3
		L149.6,134.3z"/>
	<path d="M275.7,109c0,0-2.8,17.5-7.7,17.5c-1.9,0-2.3-2.9-2.3-11.1V91c0-1.7-4.8-1.9-7.2-1.9c-0.7,0-1.3-0.5-1.3-1.2v-2.3
		c0-7.2-8.5-7.2-8.5-7.2v10.7c0,2,8.5,1.5,8.5,3.5v20.1c0,5.9,0.8,18.3,9.4,18.3C276.8,131,275.7,109,275.7,109L275.7,109z"/>
	<path d="M284.4,88.2c0,0-2.5,1.7-2.5,5.8c0,4.1,6.8,12.5,13.1,12.5c7.4,0,9.4-5,12.7-5c1.9,0,4,1.1,4,1.1s-1.4-1.9-4.6-2.2
		c-4-0.4-7.4,4.2-10.8,4.2c-6,0-12.4-6.4-12.4-10.5s0.8-4.1,0.8-4.1L284.4,88.2z"/>
	<path d="M282.6,79.9c-14.9-6.9-27.1-9.1-35.3-8.7c-18.8,0.8-27.4,8-47.6,8c-11.4,0-20.8-0.4-26.8-2.7c6.1,2.3,15.4,5,26.8,5
		c20.2,0,30.1-5.9,48.8-6.8C256.7,74.4,266,74.4,282.6,79.9L282.6,79.9z"/>
	<path d="M122.5,120c6.4,0.4,15.8,1.2,27,3.5c16.4,3.3,27.4,7.9,37.6,11.7c12.4,4.6,30.2,10.7,53.1,16.6c-4-0.2-10-0.6-17.3-1.7
		c-22.9-3.4-36.7-10.2-56.4-17.2C156.1,129.2,141.2,124.4,122.5,120z"/>
	<path d="M192.7,135c6.2,0.3,16.1,1,27.8,3.6c10.7,2.3,15.1,4.3,24.9,6.4c7.1,1.5,17.8,3.2,31.6,3.2c-14.2,3.4-25.5,2.9-33,1.9
		c-1.9-0.3-6.9-1-22-5.5C209.9,141,199.8,137.5,192.7,135z"/>
	<path d="M224,136.4c6.5,0.2,16.4,0.8,28.3,2.3c11.7,1.5,15.6,2.6,22.7,2.9c7.8,0.3,19-0.3,33-5.2c-10.5,6.7-19.9,8.9-25.5,9.7
		c-11.7,1.8-21.1-0.2-33.9-2.8C238.1,141.2,229.7,138.4,224,136.4z"/>
	<path d="M255.6,136.5c6.3,2.1,17.9,4.9,32.1,2.9c23.6-3.3,37.9-17.4,42-21.9c-3.3,2.3-7,4.5-11,6.6
		C295.2,136.5,271.3,137.5,255.6,136.5z"/>
</g>
<g>
	<path d="M169.2,354.2c0,0,8.5-1,8.5,6.4l-0.1,19.3c0,8.6,0.3,11.6,2.2,11.6c4.9,0,7.8-18.2,7.8-18.2s1,22.9-9.2,22.9
		c-8.5,0-9.3-12.9-9.3-19.1L169.2,354.2z"/>
	<path d="M185.3,355.1c0,0,8.5-1,8.5,6.4l-0.1,19.3c0,8.6,0.3,11.6,2.2,11.6c4.9,0,7.8-18.2,7.8-18.2s1,22.9-9.2,22.9
		c-8.5,0-9.3-12.9-9.3-19.1L185.3,355.1L185.3,355.1z"/>
	<path d="M235,344c0-10.7-1.6-13.3-1.6-13.3s10.2,3,10.2,10.8l-0.1,31c0,8.1,0.3,20.6,2.2,20.6c4.6,0,14.8-33.4,14.8-33.4
		s-5.5,38-16.3,37.9c-8.5,0-9.3-12.3-9.3-18.2L235,344L235,344z"/>
	<path d="M217.8,352.9c0,0,8.5,0,8.5,8.4l-0.1,19.7c0,8.7,0.3,11.8,2.2,11.8c4.9,0,7.8-18.6,7.8-18.6s1,23.4-9.2,23.3
		c-8.5,0-9.3-13.1-9.3-19.4L217.8,352.9z"/>
	<path d="M213.7,354.3c-10.4,0-13.9,9.6-13.9,21.6c-0.1,14.9,5.2,21.7,14.4,21.7c6,0,7.3-16.3,7.3-21.6
		C221.5,364,219.7,354.3,213.7,354.3L213.7,354.3z M212.5,394c-1.8,0-4.1-4.7-4.1-18.1c0-10.7,3-19.3,5.3-19.3
		c3.5,0,5.4,8.7,5.3,19.4S215.7,394,212.5,394L212.5,394z"/>
	<path d="M288.4,354.2c-10.4,0-13.9,9.6-13.9,21.6c-0.1,14.9,3.3,21.7,12.5,21.7c7,0,9.1-16.3,9.2-21.6
		C296.2,363.9,294.4,354.2,288.4,354.2L288.4,354.2z M287.2,393.8c-1.8,0-4.1-4.7-4.1-18.1c0-10.7,3-19.3,5.3-19.3
		c3.5,0,5.4,8.7,5.3,19.4S290.3,393.9,287.2,393.8L287.2,393.8z"/>
	<path d="M150.1,334.3c-15.9-0.1-19.8,16.1-19.8,36c-0.1,24.8,7.2,35.8,21.2,35.8c10.6,0,13.6-27.9,13.7-36.7
		C165.1,349.5,159.3,334.4,150.1,334.3L150.1,334.3z M149.5,400.6c-2.7,0-7.5-7.7-7.4-30.1c0.1-17.8,3.9-32.3,7.3-32.3
		c5.3,0,9.7,13.4,9.6,31.2C158.9,387.2,154.4,400.6,149.5,400.6L149.5,400.6z"/>
	<path d="M275.7,375.8c0,0-2.8,17.5-7.8,17.5c-1.9,0-2.2-2.9-2.2-11.2l0.1-24.3c0-1.7-4.8-2-7.2-1.9c-0.7,0-1.3-0.5-1.3-1.2l0-2.3
		c0-7.2-8.5-7.2-8.5-7.2l0,10.7c0,2,8.5,1.5,8.5,3.5l-0.1,20.1c0,5.9,0.8,18.3,9.3,18.4C276.7,397.8,275.7,375.8,275.7,375.8
		L275.7,375.8z"/>
	<path d="M284.5,355c0,0-2.5,1.7-2.5,5.8s6.7,12.5,13.1,12.5c7.4,0,9.5-4.9,12.7-5c1.9,0,4,1.1,4,1.1s-1.4-1.9-4.6-2.2
		c-4-0.4-7.4,4.2-10.8,4.2c-6,0-12.3-6.4-12.3-10.6c0-4.1,0.8-4.1,0.8-4.1L284.5,355z"/>
	<path d="M282.8,346.8c-14.9-7-27.1-9.2-35.3-8.9c-18.8,0.8-27.5,7.9-47.7,7.8c-11.4,0-20.8-0.5-26.8-2.8c6.1,2.3,15.4,5,26.8,5.1
		c20.2,0.1,30.1-5.8,48.8-6.6C256.9,341.1,266.2,341.2,282.8,346.8L282.8,346.8z"/>
	<path class="st1" d="M122.5,386.2c6.4,0.4,15.8,1.3,27,3.6c16.4,3.4,27.4,8,37.6,11.8c12.4,4.7,30.1,10.9,53,16.8
		c-4-0.2-10-0.6-17.3-1.7c-22.9-3.5-36.7-10.3-56.3-17.4C156,395.5,141.2,390.6,122.5,386.2z"/>
	<path class="st2" d="M192.7,401.5c6.2,0.3,16.1,1.1,27.8,3.7c10.7,2.3,15.1,4.4,24.9,6.5c7.1,1.5,17.8,3.3,31.6,3.3
		c-14.2,3.4-25.5,2.8-33,1.8c-1.9-0.3-6.9-1-21.9-5.6C209.8,407.5,199.7,404,192.7,401.5z"/>
	<path class="st3" d="M223.9,403c6.5,0.3,16.4,0.9,28.3,2.4c11.7,1.5,15.6,2.6,22.7,3c7.8,0.3,19-0.2,33-5
		c-10.5,6.6-19.9,8.8-25.6,9.6c-11.7,1.7-21.1-0.2-33.9-2.9C238,407.8,229.6,405,223.9,403z"/>
	<path class="st4" d="M255.6,403.2c6.3,2.1,17.9,4.9,32.1,3.1c23.6-3.2,37.9-17.3,42.1-21.7c-3.3,2.3-7,4.5-11,6.6
		C295.2,403.3,271.2,404.3,255.6,403.2z"/>
</g>
<g>
	<path d="M169.2,487.5c0,0,8.5-1,8.5,6.4l-0.1,19.3c0,8.6,0.3,11.6,2.2,11.6c4.9,0,7.8-18.2,7.8-18.2s1,22.9-9.2,22.9
		c-8.5,0-9.3-12.9-9.3-19.1L169.2,487.5z"/>
	<path d="M185.3,488.4c0,0,8.5-1,8.5,6.4l-0.1,19.3c0,8.6,0.3,11.6,2.2,11.6c4.9,0,7.8-18.2,7.8-18.2s1,22.9-9.2,22.9
		c-8.5,0-9.3-12.9-9.3-19.1L185.3,488.4L185.3,488.4z"/>
	<path d="M235,477.3c0-10.7-1.6-13.3-1.6-13.3s10.2,3,10.2,10.8l-0.1,31c0,8.1,0.3,20.6,2.2,20.6c4.6,0,14.8-33.4,14.8-33.4
		s-5.5,38-16.3,37.9c-8.5,0-9.3-12.3-9.3-18.2L235,477.3L235,477.3z"/>
	<path d="M217.8,486.2c0,0,8.5,0,8.5,8.4l-0.1,19.7c0,8.7,0.3,11.8,2.2,11.8c4.9,0,7.8-18.6,7.8-18.6s1,23.4-9.2,23.3
		c-8.5,0-9.3-13.1-9.3-19.4L217.8,486.2z"/>
	<path d="M213.7,487.6c-10.4,0-13.9,9.6-13.9,21.6c-0.1,14.9,5.2,21.7,14.4,21.7c6,0,7.3-16.3,7.3-21.6
		C221.5,497.4,219.7,487.6,213.7,487.6L213.7,487.6z M212.5,527.3c-1.8,0-4.1-4.7-4.1-18.1c0-10.7,3-19.3,5.3-19.3
		c3.5,0,5.4,8.7,5.3,19.4S215.7,527.3,212.5,527.3L212.5,527.3z"/>
	<path d="M288.4,487.5c-10.4,0-13.9,9.6-13.9,21.6c-0.1,14.9,3.3,21.7,12.5,21.7c7,0,9.1-16.3,9.2-21.6
		C296.2,497.2,294.4,487.5,288.4,487.5L288.4,487.5z M287.2,527.2c-1.8,0-4.1-4.7-4.1-18.1c0-10.7,3-19.3,5.3-19.3
		c3.5,0,5.4,8.7,5.3,19.4S290.3,527.2,287.2,527.2L287.2,527.2z"/>
	<path d="M150.1,467.7c-15.9-0.1-19.8,16.1-19.8,36c-0.1,24.8,7.2,35.8,21.2,35.8c10.6,0,13.6-27.9,13.7-36.7
		C165.1,482.8,159.3,467.7,150.1,467.7L150.1,467.7z M149.5,533.9c-2.7,0-7.5-7.7-7.4-30.1c0.1-17.8,3.9-32.3,7.3-32.3
		c5.3,0,9.7,13.4,9.6,31.2C158.9,520.6,154.4,533.9,149.5,533.9L149.5,533.9z"/>
	<path d="M275.7,509.1c0,0-2.8,17.5-7.8,17.5c-1.9,0-2.2-2.9-2.2-11.2l0.1-24.3c0-1.7-4.8-2-7.2-1.9c-0.7,0-1.3-0.5-1.3-1.2l0-2.3
		c0-7.2-8.5-7.2-8.5-7.2l0,10.7c0,2,8.5,1.5,8.5,3.5l-0.1,20.1c0,5.9,0.8,18.3,9.3,18.4C276.7,531.1,275.7,509.1,275.7,509.1
		L275.7,509.1z"/>
	<path d="M284.5,488.3c0,0-2.5,1.7-2.5,5.8s6.7,12.5,13.1,12.5c7.4,0,9.5-4.9,12.7-5c1.9,0,4,1.1,4,1.1s-1.4-1.9-4.6-2.2
		c-4-0.4-7.4,4.2-10.8,4.2c-6,0-12.3-6.4-12.3-10.6c0-4.1,0.8-4.1,0.8-4.1L284.5,488.3z"/>
	<path d="M282.8,480.1c-14.9-7-27.1-9.2-35.3-8.9c-18.8,0.8-27.5,7.9-47.7,7.8c-11.4,0-20.8-0.5-26.8-2.8c6.1,2.3,15.4,5,26.8,5.1
		c20.2,0.1,30.1-5.8,48.8-6.6C256.9,474.5,266.2,474.5,282.8,480.1L282.8,480.1z"/>
	<path class="st1" d="M122.5,519.5c6.4,0.4,15.8,1.3,27,3.6c16.4,3.4,27.4,8,37.6,11.8c12.4,4.7,30.1,10.9,53,16.8
		c-4-0.2-10-0.6-17.3-1.7c-22.9-3.5-36.7-10.3-56.3-17.4C156,528.8,141.2,523.9,122.5,519.5z"/>
	<path class="st5" d="M192.7,534.8c6.2,0.3,16.1,1.1,27.8,3.7c10.7,2.3,15.1,4.4,24.9,6.5c7.1,1.5,17.8,3.3,31.6,3.3
		c-14.2,3.4-25.5,2.8-33,1.8c-1.9-0.3-6.9-1-21.9-5.6C209.8,540.9,199.7,537.3,192.7,534.8z"/>
	<path class="st6" d="M223.9,536.3c6.5,0.3,16.4,0.9,28.3,2.4c11.7,1.5,15.6,2.6,22.7,3c7.8,0.3,19-0.2,33-5
		c-10.5,6.6-19.9,8.8-25.6,9.6c-11.7,1.7-21.1-0.2-33.9-2.9C238,541.1,229.6,538.4,223.9,536.3z"/>
	<path class="st7" d="M255.6,536.5c6.3,2.1,17.9,4.9,32.1,3.1c23.6-3.2,37.9-17.3,42.1-21.7c-3.3,2.3-7,4.5-11,6.6
		C295.2,536.6,271.2,537.6,255.6,536.5z"/>
</g>
<rect x="144.7" y="991.3" class="st1" width="36.1" height="55.2"/>
<rect x="227.6" y="990.9" class="st6" width="36.1" height="55.2"/>
<rect x="269" y="990.9" class="st7" width="36.1" height="55.2"/>
<rect x="186.1" y="990.9" class="st5" width="36.1" height="55.2"/>
<g>
	<path d="M169.5,224.2c0,0,8.5-1,8.5,6.4v19.3c0,8.6,0.4,11.6,2.3,11.6c4.9,0,7.7-18.2,7.7-18.2s1.1,22.9-9.1,22.9
		c-8.5,0-9.4-12.8-9.4-19L169.5,224.2z"/>
	<path d="M185.6,225c0,0,8.5-1,8.5,6.4v19.3c0,8.6,0.4,11.6,2.3,11.6c4.9,0,7.7-18.2,7.7-18.2s1.1,22.9-9.1,22.9
		c-8.5,0-9.4-12.8-9.4-19L185.6,225L185.6,225z"/>
	<path d="M235.2,213.7c0-10.7-1.7-13.3-1.7-13.3s10.2,2.9,10.2,10.8v31.1c0,8.1,0.4,20.6,2.3,20.6c4.6,0,14.7-33.5,14.7-33.5
		s-5.4,38-16.1,38c-8.5,0-9.4-12.3-9.4-18.2V213.7L235.2,213.7z"/>
	<path d="M218.1,222.7c0,0,8.5,0,8.5,8.4v19.7c0,8.7,0.4,11.8,2.3,11.8c4.9,0,7.7-18.6,7.7-18.6s1.1,23.4-9.1,23.4
		c-8.5,0-9.4-13.1-9.4-19.4L218.1,222.7z"/>
	<path d="M214,224.1c-10.4,0-13.8,9.7-13.8,21.6c0,14.9,5.3,21.7,14.4,21.7c6,0,7.2-16.3,7.2-21.7C221.8,233.8,220,224.1,214,224.1
		L214,224.1z M212.9,263.8c-1.8,0-4.2-4.6-4.2-18c0-10.7,3-19.4,5.2-19.4c3.5,0,5.4,8.6,5.4,19.4S216.1,263.8,212.9,263.8
		L212.9,263.8z"/>
	<path d="M288.6,223.7c-10.4,0-13.8,9.7-13.8,21.6c0,14.9,3.4,21.7,12.6,21.7c7,0,9.1-16.3,9.1-21.7
		C296.5,233.4,294.6,223.7,288.6,223.7L288.6,223.7z M287.6,263.4c-1.8,0-4.2-4.6-4.2-18c0-10.7,3-19.4,5.2-19.4
		c3.5,0,5.4,8.6,5.4,19.4C294,256.1,290.7,263.4,287.6,263.4L287.6,263.4z"/>
	<path d="M150.3,204.4c-15.9,0-19.7,16.2-19.7,36.1c0,24.8,7.3,35.7,21.3,35.7c10.6,0,13.5-28,13.5-36.8
		C165.4,219.5,159.5,204.4,150.3,204.4L150.3,204.4z M150,270.6c-2.7,0-7.5-7.7-7.5-30.1c0-17.8,3.7-32.3,7.2-32.3
		c5.3,0,9.7,13.4,9.7,31.2S154.8,270.6,150,270.6L150,270.6z"/>
	<path d="M276.1,245.3c0,0-2.8,17.5-7.7,17.5c-1.9,0-2.3-2.9-2.3-11.1v-24.3c0-1.7-4.8-1.9-7.2-1.9c-0.7,0-1.3-0.5-1.3-1.2V222
		c0-7.2-8.5-7.2-8.5-7.2v10.7c0,2,8.5,1.5,8.5,3.5v20.1c0,5.9,0.8,18.3,9.4,18.3C277.1,267.4,276.1,245.3,276.1,245.3L276.1,245.3z"
		/>
	<path d="M284.8,224.5c0,0-2.5,1.7-2.5,5.8s6.8,12.5,13.1,12.5c7.4,0,9.4-5,12.7-5c1.9,0,4,1.1,4,1.1s-1.4-1.9-4.6-2.2
		c-4-0.4-7.4,4.2-10.8,4.2c-6,0-12.4-6.4-12.4-10.5s0.8-4.1,0.8-4.1L284.8,224.5z"/>
	<path d="M283,216.3c-14.9-6.9-27.1-9.1-35.3-8.7c-18.8,0.8-27.4,8-47.6,8c-11.4,0-20.8-0.4-26.8-2.7c6.1,2.3,15.4,5,26.8,5
		c20.2,0,30.1-5.9,48.8-6.8C257.1,210.8,266.4,210.8,283,216.3L283,216.3z"/>
	<path d="M314.3,260.5c0,0-20.6,21.5-73.7,21.5c-54.7,0-92.4-21.6-118.6-26.1c17.3,0,67.1,20.3,116.4,20.3
		C291.1,276.2,314.3,260.5,314.3,260.5z"/>
</g>
<rect x="447.4" class="st8" width="479.2" height="1065.6"/>
<g>
	<path class="st9" d="M628.5,85.9c0,0,8.4-1,8.4,6.3v18.9c0,8.4,0.3,11.3,2.2,11.3c4.8,0,7.5-17.9,7.5-17.9s1,22.5-8.9,22.5
		c-8.4,0-9.2-12.6-9.2-18.6L628.5,85.9z"/>
	<path class="st9" d="M644.2,86.7c0,0,8.4-1,8.4,6.3v18.9c0,8.4,0.3,11.3,2.2,11.3c4.8,0,7.5-17.9,7.5-17.9s1,22.5-8.9,22.5
		c-8.4,0-9.2-12.6-9.2-18.6L644.2,86.7L644.2,86.7z"/>
	<path class="st9" d="M692.9,75.6c0-10.5-1.6-13-1.6-13s10,2.9,10,10.6v30.4c0,8,0.3,20.2,2.2,20.2c4.5,0,14.4-32.8,14.4-32.8
		s-5.3,37.2-15.8,37.2c-8.4,0-9.2-12-9.2-17.8V75.6L692.9,75.6z"/>
	<path class="st9" d="M676,84.5c0,0,8.4,0,8.4,8.2V112c0,8.5,0.3,11.5,2.2,11.5c4.8,0,7.5-18.2,7.5-18.2s1,22.9-8.9,22.9
		c-8.4,0-9.2-12.8-9.2-19L676,84.5z"/>
	<path class="st9" d="M672.1,85.9c-10.2,0-13.6,9.5-13.6,21.2c0,14.6,5.2,21.2,14.1,21.2c5.9,0,7.1-16,7.1-21.2
		C679.7,95.4,677.9,85.9,672.1,85.9L672.1,85.9z M671,124.7c-1.7,0-4.1-4.5-4.1-17.7c0-10.5,2.9-19,5.1-19c3.4,0,5.3,8.5,5.3,19
		S674.1,124.7,671,124.7L671,124.7z"/>
	<path class="st9" d="M745.2,85.5c-10.2,0-13.6,9.5-13.6,21.2c0,14.6,3.3,21.2,12.4,21.2c6.8,0,8.9-16,8.9-21.2
		C752.8,94.9,751.1,85.5,745.2,85.5L745.2,85.5z M744.1,124.3c-1.7,0-4.1-4.5-4.1-17.7c0-10.5,2.9-19,5.1-19c3.4,0,5.3,8.5,5.3,19
		S747.2,124.3,744.1,124.3L744.1,124.3z"/>
	<path class="st9" d="M609.6,66.5c-15.6,0-19.3,15.9-19.3,35.4c0,24.3,7.2,35,20.9,35c10.4,0,13.2-27.4,13.2-36.1
		C624.4,81.3,618.7,66.5,609.6,66.5L609.6,66.5z M609.3,131.4c-2.6,0-7.4-7.5-7.4-29.5c0-17.5,3.7-31.7,7-31.7
		c5.2,0,9.5,13.1,9.5,30.6S614.1,131.4,609.3,131.4L609.3,131.4z"/>
	<path class="st9" d="M732.9,106.6c0,0-2.7,17.2-7.5,17.2c-1.9,0-2.2-2.9-2.2-10.9V89c0-1.7-4.7-1.9-7.1-1.9c-0.7,0-1.3-0.5-1.3-1.2
		v-2.2c0-7-8.4-7.1-8.4-7.1v10.5c0,1.9,8.4,1.5,8.4,3.4v19.7c0,5.8,0.8,17.9,9.2,17.9C733.9,128.2,732.9,106.6,732.9,106.6
		L732.9,106.6z"/>
	<path class="st9" d="M741.4,86.2c0,0-2.4,1.7-2.4,5.7s6.6,12.2,12.9,12.2c7.3,0,9.2-4.9,12.4-4.9c1.9,0,4,1,4,1s-1.4-1.9-4.5-2.2
		c-3.9-0.4-7.3,4.2-10.6,4.2c-5.9,0-12.1-6.3-12.1-10.3c0-4,0.8-4,0.8-4L741.4,86.2z"/>
	<path class="st9" d="M739.7,78.2c-14.6-6.8-26.6-8.9-34.6-8.5c-18.4,0.8-26.9,7.8-46.7,7.8c-11.2,0-20.4-0.4-26.3-2.6
		c5.9,2.2,15.1,4.9,26.3,4.9c19.8,0,29.4-5.8,47.8-6.6C714.3,72.8,723.4,72.8,739.7,78.2L739.7,78.2z"/>
	<path class="st9" d="M582.8,117.4c6.3,0.3,15.5,1.2,26.4,3.4c16,3.3,26.9,7.7,36.9,11.5c12.1,4.5,29.6,10.5,52,16.3
		c-3.9-0.2-9.8-0.6-16.9-1.6c-22.4-3.3-36-9.9-55.2-16.9C615.7,126.5,601.1,121.7,582.8,117.4z"/>
	<path class="st9" d="M651.6,132.1c6.1,0.3,15.7,1,27.3,3.5c10.5,2.3,14.8,4.2,24.4,6.3c7,1.5,17.4,3.1,30.9,3.1
		c-13.9,3.3-25,2.9-32.3,1.9c-1.9-0.3-6.7-1-21.5-5.4C668.4,138,658.5,134.6,651.6,132.1z"/>
	<path class="st9" d="M682.2,133.5c6.4,0.2,16,0.8,27.7,2.2c11.5,1.4,15.3,2.5,22.3,2.8c7.7,0.3,18.6-0.3,32.3-5.1
		c-10.3,6.5-19.5,8.7-25,9.5c-11.5,1.7-20.7-0.2-33.2-2.8C696,138.2,687.8,135.5,682.2,133.5z"/>
	<path class="st9" d="M713.2,133.6c6.2,2,17.5,4.8,31.5,2.9c23.1-3.2,37.1-17.1,41.2-21.4c-3.3,2.3-6.8,4.4-10.8,6.5
		C752,133.6,728.6,134.6,713.2,133.6z"/>
</g>
<g>
	<path class="st6" d="M173.6,644.3c0,0,8.4-1,8.4,6.3v18.9c0,8.4,0.3,11.3,2.2,11.3c4.8,0,7.5-17.9,7.5-17.9s1,22.5-8.9,22.5
		c-8.4,0-9.2-12.6-9.2-18.6L173.6,644.3z"/>
	<path class="st6" d="M189.4,645.1c0,0,8.4-1,8.4,6.3v18.9c0,8.4,0.3,11.3,2.2,11.3c4.8,0,7.5-17.9,7.5-17.9s1,22.5-8.9,22.5
		c-8.4,0-9.2-12.6-9.2-18.6L189.4,645.1L189.4,645.1z"/>
	<path class="st6" d="M238,634c0-10.5-1.6-13-1.6-13s10,2.9,10,10.6V662c0,8,0.3,20.2,2.2,20.2c4.5,0,14.4-32.8,14.4-32.8
		s-5.3,37.2-15.8,37.2c-8.4,0-9.2-12-9.2-17.8V634L238,634z"/>
	<path class="st6" d="M221.2,642.8c0,0,8.4,0,8.4,8.2v19.3c0,8.5,0.3,11.5,2.2,11.5c4.8,0,7.5-18.2,7.5-18.2s1,22.9-8.9,22.9
		c-8.4,0-9.2-12.8-9.2-19L221.2,642.8z"/>
	<path class="st6" d="M217.2,644.2c-10.2,0-13.6,9.5-13.6,21.2c0,14.6,5.2,21.2,14.1,21.2c5.9,0,7.1-16,7.1-21.2
		C224.9,653.7,223.1,644.2,217.2,644.2L217.2,644.2z M216.2,683.1c-1.7,0-4.1-4.5-4.1-17.7c0-10.5,2.9-19,5.1-19
		c3.4,0,5.3,8.5,5.3,19S219.3,683.1,216.2,683.1L216.2,683.1z"/>
	<path class="st6" d="M290.3,643.8c-10.2,0-13.6,9.5-13.6,21.2c0,14.6,3.3,21.2,12.4,21.2c6.8,0,8.9-16,8.9-21.2
		C298,653.3,296.2,643.8,290.3,643.8L290.3,643.8z M289.3,682.7c-1.7,0-4.1-4.5-4.1-17.7c0-10.5,2.9-19,5.1-19c3.4,0,5.3,8.5,5.3,19
		C295.6,675.5,292.4,682.7,289.3,682.7L289.3,682.7z"/>
	<path class="st6" d="M154.8,624.9c-15.6,0-19.3,15.9-19.3,35.4c0,24.3,7.2,35,20.9,35c10.4,0,13.2-27.4,13.2-36.1
		C169.6,639.7,163.9,624.9,154.8,624.9L154.8,624.9z M154.5,689.8c-2.6,0-7.4-7.5-7.4-29.5c0-17.5,3.7-31.7,7-31.7
		c5.2,0,9.5,13.1,9.5,30.6S159.2,689.8,154.5,689.8L154.5,689.8z"/>
	<path class="st6" d="M278,665c0,0-2.7,17.2-7.5,17.2c-1.9,0-2.2-2.9-2.2-10.9v-23.9c0-1.7-4.7-1.9-7.1-1.9c-0.7,0-1.3-0.5-1.3-1.2
		v-2.2c0-7-8.4-7.1-8.4-7.1v10.5c0,1.9,8.4,1.5,8.4,3.4v19.7c0,5.8,0.8,17.9,9.2,17.9C279.1,686.6,278,665,278,665L278,665z"/>
	<path class="st6" d="M286.6,644.6c0,0-2.4,1.7-2.4,5.7c0,4,6.6,12.2,12.9,12.2c7.3,0,9.2-4.9,12.4-4.9c1.9,0,4,1,4,1
		s-1.4-1.9-4.5-2.2c-3.9-0.4-7.3,4.2-10.6,4.2c-5.9,0-12.1-6.3-12.1-10.3s0.8-4,0.8-4L286.6,644.6z"/>
	<path class="st6" d="M284.8,636.6c-14.6-6.8-26.6-8.9-34.6-8.5c-18.4,0.8-26.9,7.8-46.7,7.8c-11.2,0-20.4-0.4-26.3-2.6
		c5.9,2.2,15.1,4.9,26.3,4.9c19.8,0,29.4-5.8,47.8-6.6C259.5,631.2,268.6,631.2,284.8,636.6L284.8,636.6z"/>
	<path class="st7" d="M127.9,675.8c6.3,0.3,15.5,1.2,26.4,3.4c16,3.3,26.9,7.7,36.9,11.5c12.1,4.5,29.6,10.5,52,16.3
		c-3.9-0.2-9.8-0.6-16.9-1.6c-22.4-3.3-36-9.9-55.2-16.9C160.9,684.8,146.3,680.1,127.9,675.8z"/>
	<path class="st10" d="M196.8,690.5c6.1,0.3,15.7,1,27.3,3.5c10.5,2.3,14.8,4.2,24.4,6.3c7,1.5,17.4,3.1,30.9,3.1
		c-13.9,3.3-25,2.9-32.3,1.9c-1.9-0.3-6.7-1-21.5-5.4C213.5,696.4,203.7,693,196.8,690.5z"/>
	<path class="st11" d="M227.4,691.8c6.4,0.2,16,0.8,27.7,2.2c11.5,1.4,15.3,2.5,22.3,2.8c7.7,0.3,18.6-0.3,32.3-5.1
		c-10.3,6.5-19.5,8.7-25,9.5c-11.5,1.7-20.7-0.2-33.2-2.8C241.2,696.5,233,693.9,227.4,691.8z"/>
	<path class="st11" d="M258.4,692c6.2,2,17.5,4.8,31.5,2.9c23.1-3.2,37.1-17.1,41.2-21.4c-3.3,2.3-6.8,4.4-10.8,6.5
		C297.2,691.9,273.7,692.9,258.4,692z"/>
</g>
<g>
	<path class="st9" d="M636.7,224.3c0,0,8.4-1,8.4,6.3v18.9c0,8.4,0.3,11.3,2.2,11.3c4.8,0,7.5-17.9,7.5-17.9s1,22.5-8.9,22.5
		c-8.4,0-9.2-12.6-9.2-18.6L636.7,224.3z"/>
	<path class="st9" d="M652.4,225.1c0,0,8.4-1,8.4,6.3v18.9c0,8.4,0.3,11.3,2.2,11.3c4.8,0,7.5-17.9,7.5-17.9s1,22.5-8.9,22.5
		c-8.4,0-9.2-12.6-9.2-18.6L652.4,225.1L652.4,225.1z"/>
	<path class="st9" d="M701.1,214c0-10.5-1.6-13-1.6-13s10,2.9,10,10.6V242c0,8,0.3,20.2,2.2,20.2c4.5,0,14.4-32.8,14.4-32.8
		s-5.3,37.2-15.8,37.2c-8.4,0-9.2-12-9.2-17.8V214L701.1,214z"/>
	<path class="st9" d="M684.3,222.8c0,0,8.4,0,8.4,8.2v19.3c0,8.5,0.3,11.5,2.2,11.5c4.8,0,7.5-18.2,7.5-18.2s1,22.9-8.9,22.9
		c-8.4,0-9.2-12.8-9.2-19L684.3,222.8z"/>
	<path class="st9" d="M680.3,224.2c-10.2,0-13.6,9.5-13.6,21.2c0,14.6,5.2,21.2,14.1,21.2c5.9,0,7.1-16,7.1-21.2
		C687.9,233.7,686.2,224.2,680.3,224.2L680.3,224.2z M679.2,263.1c-1.7,0-4.1-4.5-4.1-17.7c0-10.5,2.9-19,5.1-19
		c3.4,0,5.3,8.5,5.3,19C685.6,255.9,682.3,263.1,679.2,263.1L679.2,263.1z"/>
	<path class="st9" d="M753.4,223.8c-10.2,0-13.6,9.5-13.6,21.2c0,14.6,3.3,21.2,12.4,21.2c6.8,0,8.9-16,8.9-21.2
		C761.1,233.3,759.3,223.8,753.4,223.8L753.4,223.8z M752.4,262.7c-1.7,0-4.1-4.5-4.1-17.7c0-10.5,2.9-19,5.1-19
		c3.4,0,5.3,8.5,5.3,19S755.4,262.7,752.4,262.7L752.4,262.7z"/>
	<path class="st9" d="M617.9,204.9c-15.6,0-19.3,15.9-19.3,35.4c0,24.3,7.2,35,20.9,35c10.4,0,13.2-27.4,13.2-36.1
		C632.7,219.7,626.9,204.9,617.9,204.9L617.9,204.9z M617.5,269.8c-2.6,0-7.4-7.5-7.4-29.5c0-17.5,3.7-31.7,7-31.7
		c5.2,0,9.5,13.1,9.5,30.6S622.3,269.8,617.5,269.8L617.5,269.8z"/>
	<path class="st9" d="M741.1,245c0,0-2.7,17.2-7.5,17.2c-1.9,0-2.2-2.9-2.2-10.9v-23.9c0-1.7-4.7-1.9-7.1-1.9
		c-0.7,0-1.3-0.5-1.3-1.2v-2.2c0-7-8.4-7.1-8.4-7.1v10.5c0,1.9,8.4,1.5,8.4,3.4v19.7c0,5.8,0.8,17.9,9.2,17.9
		C742.1,266.6,741.1,245,741.1,245L741.1,245z"/>
	<path class="st9" d="M749.6,224.6c0,0-2.4,1.7-2.4,5.7s6.6,12.2,12.9,12.2c7.3,0,9.2-4.9,12.4-4.9c1.9,0,4,1,4,1s-1.4-1.9-4.5-2.2
		c-3.9-0.4-7.3,4.2-10.6,4.2c-5.9,0-12.1-6.3-12.1-10.3s0.8-4,0.8-4L749.6,224.6z"/>
	<path class="st9" d="M747.9,216.6c-14.6-6.8-26.6-8.9-34.6-8.5c-18.4,0.8-26.9,7.8-46.7,7.8c-11.2,0-20.4-0.4-26.3-2.6
		c5.9,2.2,15.1,4.9,26.3,4.9c19.8,0,29.4-5.8,47.8-6.6C722.5,211.2,731.6,211.2,747.9,216.6L747.9,216.6z"/>
	<path class="st9" d="M778.5,259.8c0,0-20.1,21.1-72.2,21.1c-53.6,0-90.5-21.2-116.2-25.6c17,0,65.7,19.9,114.1,19.9
		C755.8,275.2,778.5,259.8,778.5,259.8z"/>
</g>
<g>
	<path class="st9" d="M628.6,353.6c0,0,8.4-1,8.3,6.3l-0.1,18.9c0,8.4,0.3,11.3,2.2,11.4c4.8,0,7.6-17.8,7.6-17.8s1,22.5-9,22.4
		c-8.4,0-9.1-12.6-9.1-18.7L628.6,353.6z"/>
	<path class="st9" d="M644.3,354.4c0,0,8.4-1,8.3,6.3l-0.1,18.9c0,8.4,0.3,11.3,2.2,11.4c4.8,0,7.6-17.8,7.6-17.8s1,22.5-9,22.4
		c-8.4,0-9.1-12.6-9.1-18.7L644.3,354.4L644.3,354.4z"/>
	<path class="st9" d="M693,343.5c0-10.5-1.6-13-1.6-13s10,2.9,9.9,10.6l-0.1,30.4c0,8,0.3,20.2,2.1,20.2c4.5,0,14.5-32.7,14.5-32.7
		s-5.4,37.2-16,37.2c-8.4,0-9.1-12-9.1-17.8L693,343.5L693,343.5z"/>
	<path class="st9" d="M676.2,352.3c0,0,8.4,0,8.3,8.3l-0.1,19.3c0,8.5,0.3,11.5,2.2,11.5c4.8,0,7.6-18.2,7.6-18.2s1,22.9-9,22.8
		c-8.4,0-9.1-12.9-9.1-19L676.2,352.3z"/>
	<path class="st9" d="M672.2,353.7c-10.2,0-13.6,9.4-13.6,21.1c-0.1,14.6,5.1,21.2,14.1,21.3c5.9,0,7.1-16,7.2-21.2
		C679.8,363.2,678.1,353.7,672.2,353.7L672.2,353.7z M671,392.5c-1.7,0-4.1-4.6-4-17.7c0-10.5,3-18.9,5.2-18.9c3.4,0,5.3,8.5,5.2,19
		C677.3,385.3,674.1,392.5,671,392.5L671,392.5z"/>
	<path class="st9" d="M745.3,353.5c-10.2,0-13.6,9.4-13.6,21.1c-0.1,14.6,3.3,21.2,12.3,21.3c6.8,0,9-16,9-21.2
		C752.9,363.1,751.2,353.6,745.3,353.5L745.3,353.5z M744.1,392.4c-1.7,0-4.1-4.6-4-17.7c0-10.5,3-18.9,5.2-18.9
		c3.4,0,5.3,8.5,5.2,19C750.5,385.2,747.2,392.4,744.1,392.4L744.1,392.4z"/>
	<path class="st9" d="M609.8,334.1c-15.6-0.1-19.4,15.8-19.4,35.3c-0.1,24.3,7.1,35,20.8,35.1c10.4,0,13.4-27.3,13.4-36
		C624.6,348.9,618.9,334.1,609.8,334.1L609.8,334.1z M609.3,399c-2.6,0-7.4-7.6-7.3-29.5c0.1-17.5,3.8-31.6,7.2-31.6
		c5.2,0,9.5,13.1,9.4,30.6C618.5,385.9,614,399,609.3,399L609.3,399z"/>
	<path class="st9" d="M732.9,374.7c0,0-2.8,17.2-7.6,17.1c-1.9,0-2.2-2.9-2.2-10.9l0.1-23.9c0-1.7-4.7-1.9-7.1-1.9
		c-0.7,0-1.3-0.5-1.3-1.2l0-2.2c0-7-8.3-7.1-8.3-7.1l0,10.5c0,1.9,8.3,1.5,8.3,3.5l-0.1,19.7c0,5.8,0.7,18,9.1,18
		C733.9,396.3,732.9,374.7,732.9,374.7L732.9,374.7z"/>
	<path class="st9" d="M741.5,354.3c0,0-2.4,1.7-2.4,5.7s6.6,12.3,12.8,12.3c7.3,0,9.3-4.8,12.4-4.9c1.9,0,4,1.1,4,1.1
		s-1.4-1.9-4.5-2.2c-3.9-0.4-7.3,4.1-10.6,4.1c-5.9,0-12.1-6.3-12.1-10.3s0.8-4,0.8-4L741.5,354.3z"/>
	<path class="st9" d="M739.8,346.3c-14.6-6.8-26.5-9-34.6-8.7c-18.4,0.7-26.9,7.7-46.7,7.7c-11.2,0-20.4-0.5-26.3-2.7
		c5.9,2.2,15.1,4.9,26.2,5c19.8,0.1,29.5-5.7,47.9-6.5C714.5,340.8,723.6,340.8,739.8,346.3L739.8,346.3z"/>
	<path class="st1" d="M582.7,384.9c6.3,0.4,15.5,1.2,26.4,3.5c16,3.3,26.9,7.8,36.8,11.6c12.1,4.6,29.5,10.6,51.9,16.5
		c-3.9-0.2-9.8-0.6-16.9-1.7c-22.4-3.4-35.9-10.1-55.2-17.1C615.7,394,601.1,389.2,582.7,384.9z"/>
	<path class="st2" d="M651.5,399.8c6.1,0.3,15.7,1.1,27.3,3.6c10.5,2.3,14.8,4.3,24.4,6.4c7,1.5,17.4,3.2,30.9,3.3
		c-14,3.3-25,2.8-32.3,1.8c-1.9-0.3-6.7-1-21.5-5.4C668.3,405.8,658.4,402.4,651.5,399.8z"/>
	<path class="st3" d="M682.2,401.3c6.4,0.3,16,0.8,27.7,2.3c11.5,1.5,15.3,2.6,22.3,2.9c7.7,0.3,18.6-0.2,32.3-4.9
		c-10.3,6.5-19.5,8.6-25.1,9.4c-11.5,1.7-20.7-0.2-33.2-2.9C696,406.1,687.7,403.4,682.2,401.3z"/>
	<path class="st4" d="M713.1,401.6c6.2,2,17.5,4.8,31.5,3c23.1-3.1,37.2-16.9,41.3-21.2c-3.3,2.2-6.9,4.4-10.8,6.4
		C752,401.7,728.5,402.6,713.1,401.6z"/>
</g>
<g>
	<path class="st9" d="M628.6,493.7c0,0,8.4-1,8.3,6.3l-0.1,18.9c0,8.4,0.3,11.3,2.2,11.4c4.8,0,7.6-17.8,7.6-17.8s1,22.5-9,22.4
		c-8.4,0-9.1-12.6-9.1-18.7L628.6,493.7z"/>
	<path class="st9" d="M644.3,494.5c0,0,8.4-1,8.3,6.3l-0.1,18.9c0,8.4,0.3,11.3,2.2,11.4c4.8,0,7.6-17.8,7.6-17.8s1,22.5-9,22.4
		c-8.4,0-9.1-12.6-9.1-18.7L644.3,494.5L644.3,494.5z"/>
	<path class="st9" d="M693,483.6c0-10.5-1.6-13-1.6-13s10,2.9,9.9,10.6l-0.1,30.4c0,8,0.3,20.2,2.1,20.2c4.5,0,14.5-32.7,14.5-32.7
		s-5.4,37.2-16,37.2c-8.4,0-9.1-12-9.1-17.8L693,483.6L693,483.6z"/>
	<path class="st9" d="M676.2,492.4c0,0,8.4,0,8.3,8.3l-0.1,19.3c0,8.5,0.3,11.5,2.2,11.5c4.8,0,7.6-18.2,7.6-18.2s1,22.9-9,22.8
		c-8.4,0-9.1-12.9-9.1-19L676.2,492.4z"/>
	<path class="st9" d="M672.2,493.8c-10.2,0-13.6,9.4-13.6,21.1c-0.1,14.6,5.1,21.2,14.1,21.3c5.9,0,7.1-16,7.2-21.2
		C679.8,503.3,678.1,493.8,672.2,493.8L672.2,493.8z M671,532.6c-1.7,0-4.1-4.6-4-17.7c0-10.5,3-18.9,5.2-18.9c3.4,0,5.3,8.5,5.2,19
		C677.3,525.5,674.1,532.6,671,532.6L671,532.6z"/>
	<path class="st9" d="M745.3,493.7c-10.2,0-13.6,9.4-13.6,21.1c-0.1,14.6,3.3,21.2,12.3,21.3c6.8,0,9-16,9-21.2
		C752.9,503.2,751.2,493.7,745.3,493.7L745.3,493.7z M744.1,532.5c-1.7,0-4.1-4.6-4-17.7c0-10.5,3-18.9,5.2-18.9
		c3.4,0,5.3,8.5,5.2,19C750.5,525.3,747.2,532.5,744.1,532.5L744.1,532.5z"/>
	<path class="st9" d="M609.8,474.2c-15.6-0.1-19.4,15.8-19.4,35.3c-0.1,24.3,7.1,35,20.8,35.1c10.4,0,13.4-27.3,13.4-36
		C624.6,489,618.9,474.3,609.8,474.2L609.8,474.2z M609.3,539.1c-2.6,0-7.4-7.6-7.3-29.5c0.1-17.5,3.8-31.6,7.2-31.6
		c5.2,0,9.5,13.1,9.4,30.6C618.5,526,614,539.1,609.3,539.1L609.3,539.1z"/>
	<path class="st9" d="M732.9,514.8c0,0-2.8,17.2-7.6,17.1c-1.9,0-2.2-2.9-2.2-10.9l0.1-23.9c0-1.7-4.7-1.9-7.1-1.9
		c-0.7,0-1.3-0.5-1.3-1.2l0-2.2c0-7-8.3-7.1-8.3-7.1l0,10.5c0,1.9,8.3,1.5,8.3,3.5l-0.1,19.7c0,5.8,0.7,18,9.1,18
		C733.9,536.4,732.9,514.8,732.9,514.8L732.9,514.8z"/>
	<path class="st9" d="M741.5,494.4c0,0-2.4,1.7-2.4,5.7s6.6,12.3,12.8,12.3c7.3,0,9.3-4.8,12.4-4.9c1.9,0,4,1.1,4,1.1
		s-1.4-1.9-4.5-2.2c-3.9-0.4-7.3,4.1-10.6,4.1c-5.9,0-12.1-6.3-12.1-10.3s0.8-4,0.8-4L741.5,494.4z"/>
	<path class="st9" d="M739.8,486.4c-14.6-6.8-26.5-9-34.6-8.7c-18.4,0.7-26.9,7.7-46.7,7.7c-11.2,0-20.4-0.5-26.3-2.7
		c5.9,2.2,15.1,4.9,26.2,5c19.8,0.1,29.5-5.7,47.9-6.5C714.5,480.9,723.6,480.9,739.8,486.4L739.8,486.4z"/>
	<path class="st1" d="M582.7,525c6.3,0.4,15.5,1.2,26.4,3.5c16,3.3,26.9,7.8,36.8,11.6c12.1,4.6,29.5,10.6,51.9,16.5
		c-3.9-0.2-9.8-0.6-16.9-1.7c-22.4-3.4-35.9-10.1-55.2-17.1C615.7,534.2,601.1,529.4,582.7,525z"/>
	<path class="st5" d="M651.5,540c6.1,0.3,15.7,1.1,27.3,3.6c10.5,2.3,14.8,4.3,24.4,6.4c7,1.5,17.4,3.2,30.9,3.3
		c-14,3.3-25,2.8-32.3,1.8c-1.9-0.3-6.7-1-21.5-5.4C668.3,545.9,658.4,542.5,651.5,540z"/>
	<path class="st6" d="M682.2,541.4c6.4,0.3,16,0.8,27.7,2.3c11.5,1.5,15.3,2.6,22.3,2.9c7.7,0.3,18.6-0.2,32.3-4.9
		c-10.3,6.5-19.5,8.6-25.1,9.4c-11.5,1.7-20.7-0.2-33.2-2.9C696,546.2,687.7,543.5,682.2,541.4z"/>
	<path class="st7" d="M713.1,541.7c6.2,2,17.5,4.8,31.5,3c23.1-3.1,37.2-16.9,41.3-21.2c-3.3,2.2-6.9,4.4-10.8,6.4
		C752,541.8,728.5,542.7,713.1,541.7z"/>
</g>
<path class="st1" d="M628.8,654.1c0,0,8.5-1,8.5,6.4v19.3c0,8.6,0.4,11.6,2.3,11.6c4.9,0,7.7-18.2,7.7-18.2s1.1,22.9-9.1,22.9
	c-8.5,0-9.4-12.8-9.4-19L628.8,654.1z"/>
<path class="st12" d="M644.9,654.9c0,0,8.5-1,8.5,6.4v19.3c0,8.6,0.4,11.6,2.3,11.6c4.9,0,7.7-18.2,7.7-18.2s1.1,22.9-9.1,22.9
	c-8.5,0-9.4-12.8-9.4-19L644.9,654.9L644.9,654.9z"/>
<path class="st1" d="M694.5,643.6c0-10.7-1.7-13.3-1.7-13.3s10.2,2.9,10.2,10.8v31.1c0,8.1,0.4,20.6,2.3,20.6
	c4.6,0,14.7-33.5,14.7-33.5s-5.4,38-16.1,38c-8.5,0-9.4-12.3-9.4-18.2V643.6L694.5,643.6z"/>
<path class="st1" d="M673.3,654c-10.4,0-13.8,9.7-13.8,21.6c0,14.9,5.3,21.7,14.4,21.7c6,0,7.2-16.3,7.2-21.7
	C681.1,663.8,679.3,654,673.3,654L673.3,654z M672.2,693.7c-1.8,0-4.2-4.6-4.2-18c0-10.7,3-19.4,5.2-19.4c3.5,0,5.4,8.6,5.4,19.4
	C678.7,686.4,675.4,693.7,672.2,693.7L672.2,693.7z"/>
<path class="st12" d="M677.3,652.6c0,0,8.5,0,8.5,8.4v19.7c0,8.7,0.4,11.8,2.3,11.8c4.9,0,7.7-18.6,7.7-18.6s1.1,23.4-9.1,23.4
	c-8.5,0-9.4-13.1-9.4-19.4L677.3,652.6z"/>
<path class="st1" d="M747.9,653.6c-10.4,0-13.8,9.7-13.8,21.6c0,14.9,3.4,21.7,12.6,21.7c7,0,9.1-16.3,9.1-21.7
	C755.7,663.3,753.9,653.6,747.9,653.6L747.9,653.6z M746.8,693.3c-1.8,0-4.2-4.6-4.2-18c0-10.7,3-19.4,5.2-19.4
	c3.5,0,5.4,8.6,5.4,19.4C753.3,686,750,693.3,746.8,693.3L746.8,693.3z"/>
<path class="st1" d="M609.6,634.3c-15.9,0-19.7,16.2-19.7,36.1c0,24.8,7.3,35.7,21.3,35.7c10.6,0,13.5-28,13.5-36.8
	C624.7,649.4,618.8,634.3,609.6,634.3L609.6,634.3z M609.2,700.6c-2.7,0-7.5-7.7-7.5-30.1c0-17.8,3.7-32.3,7.2-32.3
	c5.3,0,9.7,13.4,9.7,31.2S614.1,700.6,609.2,700.6L609.2,700.6z"/>
<path class="st12" d="M735.3,675.3c0,0-2.8,17.5-7.7,17.5c-1.9,0-2.3-2.9-2.3-11.1v-24.3c0-1.7-4.8-1.9-7.2-1.9
	c-0.7,0-1.3-0.5-1.3-1.2v-2.3c0-7.2-8.5-7.2-8.5-7.2v10.7c0,2,8.5,1.5,8.5,3.5V679c0,5.9,0.8,18.3,9.4,18.3
	C736.4,697.3,735.3,675.3,735.3,675.3L735.3,675.3z"/>
<path class="st12" d="M744.1,654.4c0,0-2.5,1.7-2.5,5.8c0,4.1,6.8,12.5,13.1,12.5c7.4,0,9.4-5,12.7-5c1.9,0,4,1.1,4,1.1
	s-1.4-1.9-4.6-2.2c-4-0.4-7.4,4.2-10.8,4.2c-6,0-12.4-6.4-12.4-10.5s0.8-4.1,0.8-4.1L744.1,654.4z"/>
<path class="st12" d="M742.3,646.2c-14.9-6.9-27.1-9.1-35.3-8.7c-18.8,0.8-27.4,8-47.6,8c-11.4,0-20.8-0.4-26.8-2.7
	c6.1,2.3,15.4,5,26.8,5c20.2,0,30.1-5.9,48.8-6.8C716.4,640.7,725.7,640.7,742.3,646.2L742.3,646.2z"/>
<path class="st12" d="M773.5,690.4c0,0-20.6,21.5-73.7,21.5c-54.7,0-92.4-21.6-118.6-26.1c17.3,0,67.1,20.3,116.4,20.3
	C750.3,706.1,773.5,690.4,773.5,690.4z"/>
<rect x="447.4" y="783.9" class="st5" width="479.2" height="112.7"/>
<g>
	<path class="st13" d="M628.8,823.2c0,0,8.5-1,8.5,6.4v19.3c0,8.6,0.4,11.6,2.3,11.6c4.9,0,7.7-18.2,7.7-18.2s1.1,22.9-9.1,22.9
		c-8.5,0-9.4-12.8-9.4-19L628.8,823.2z"/>
	<path class="st13" d="M644.9,824c0,0,8.5-1,8.5,6.4v19.3c0,8.6,0.4,11.6,2.3,11.6c4.9,0,7.7-18.2,7.7-18.2s1.1,22.9-9.1,22.9
		c-8.5,0-9.4-12.8-9.4-19L644.9,824L644.9,824z"/>
	<path class="st13" d="M694.5,812.7c0-10.7-1.7-13.3-1.7-13.3s10.2,2.9,10.2,10.8v31.1c0,8.1,0.4,20.6,2.3,20.6
		c4.6,0,14.7-33.5,14.7-33.5s-5.4,38-16.1,38c-8.5,0-9.4-12.3-9.4-18.2V812.7L694.5,812.7z"/>
	<path class="st13" d="M673.3,823.2c-10.4,0-13.8,9.7-13.8,21.6c0,14.9,5.3,21.7,14.4,21.7c6,0,7.2-16.3,7.2-21.7
		C681.1,832.9,679.3,823.2,673.3,823.2L673.3,823.2z M672.2,862.8c-1.8,0-4.2-4.6-4.2-18c0-10.7,3-19.4,5.2-19.4
		c3.5,0,5.4,8.6,5.4,19.4C678.7,855.5,675.4,862.8,672.2,862.8L672.2,862.8z"/>
	<path class="st13" d="M677.3,821.7c0,0,8.5,0,8.5,8.4v19.7c0,8.7,0.4,11.8,2.3,11.8c4.9,0,7.7-18.6,7.7-18.6s1.1,23.4-9.1,23.4
		c-8.5,0-9.4-13.1-9.4-19.4L677.3,821.7z"/>
	<path class="st13" d="M747.9,822.8c-10.4,0-13.8,9.7-13.8,21.6c0,14.9,3.4,21.7,12.6,21.7c7,0,9.1-16.3,9.1-21.7
		C755.7,832.4,753.9,822.8,747.9,822.8L747.9,822.8z M746.8,862.4c-1.8,0-4.2-4.6-4.2-18c0-10.7,3-19.4,5.2-19.4
		c3.5,0,5.4,8.6,5.4,19.4S750,862.4,746.8,862.4L746.8,862.4z"/>
	<path class="st13" d="M609.6,803.5c-15.9,0-19.7,16.2-19.7,36.1c0,24.8,7.3,35.7,21.3,35.7c10.6,0,13.5-28,13.5-36.8
		C624.7,818.5,618.8,803.5,609.6,803.5L609.6,803.5z M609.2,869.7c-2.7,0-7.5-7.7-7.5-30.1c0-17.8,3.7-32.3,7.2-32.3
		c5.3,0,9.7,13.4,9.7,31.2S614.1,869.7,609.2,869.7L609.2,869.7z"/>
	<path class="st13" d="M735.3,844.4c0,0-2.8,17.5-7.7,17.5c-1.9,0-2.3-2.9-2.3-11.1v-24.3c0-1.7-4.8-1.9-7.2-1.9
		c-0.7,0-1.3-0.5-1.3-1.2V821c0-7.2-8.5-7.2-8.5-7.2v10.7c0,2,8.5,1.5,8.5,3.5v20.1c0,5.9,0.8,18.3,9.4,18.3
		C736.4,866.4,735.3,844.4,735.3,844.4L735.3,844.4z"/>
	<path class="st13" d="M744.1,823.6c0,0-2.5,1.7-2.5,5.8c0,4.1,6.8,12.5,13.1,12.5c7.4,0,9.4-5,12.7-5c1.9,0,4,1.1,4,1.1
		s-1.4-1.9-4.6-2.2c-4-0.4-7.4,4.2-10.8,4.2c-6,0-12.4-6.4-12.4-10.5s0.8-4.1,0.8-4.1L744.1,823.6z"/>
	<path class="st7" d="M742.3,815.4c-14.9-6.9-27.1-9.1-35.3-8.7c-18.8,0.8-27.4,8-47.6,8c-11.4,0-20.8-0.4-26.8-2.7
		c6.1,2.3,15.4,5,26.8,5c20.2,0,30.1-5.9,48.8-6.8C716.4,809.8,725.7,809.8,742.3,815.4L742.3,815.4z"/>
	<path class="st6" d="M773.5,859.5c0,0-20.6,21.5-73.7,21.5c-54.7,0-92.4-21.6-118.6-26.1c17.3,0,67.1,20.3,116.4,20.3
		C750.3,875.3,773.5,859.5,773.5,859.5z"/>
</g>
<g>
	<path class="st13" d="M168.7,823.2c0,0,8.5-1,8.5,6.4v19.3c0,8.6,0.4,11.6,2.3,11.6c4.9,0,7.7-18.2,7.7-18.2s1.1,22.9-9.1,22.9
		c-8.5,0-9.4-12.8-9.4-19L168.7,823.2z"/>
	<path class="st13" d="M184.8,824c0,0,8.5-1,8.5,6.4v19.3c0,8.6,0.4,11.6,2.3,11.6c4.9,0,7.7-18.2,7.7-18.2s1.1,22.9-9.1,22.9
		c-8.5,0-9.4-12.8-9.4-19L184.8,824L184.8,824z"/>
	<path class="st13" d="M234.4,812.7c0-10.7-1.7-13.3-1.7-13.3s10.2,2.9,10.2,10.8v31.1c0,8.1,0.4,20.6,2.3,20.6
		c4.6,0,14.7-33.5,14.7-33.5s-5.4,38-16.1,38c-8.5,0-9.4-12.3-9.4-18.2V812.7L234.4,812.7z"/>
	<path class="st13" d="M213.2,823.2c-10.4,0-13.8,9.7-13.8,21.6c0,14.9,5.3,21.7,14.4,21.7c6,0,7.2-16.3,7.2-21.7
		C221,832.9,219.2,823.2,213.2,823.2L213.2,823.2z M212.1,862.8c-1.8,0-4.2-4.6-4.2-18c0-10.7,3-19.4,5.2-19.4
		c3.5,0,5.4,8.6,5.4,19.4C218.6,855.5,215.3,862.8,212.1,862.8L212.1,862.8z"/>
	<path class="st13" d="M217.3,821.7c0,0,8.5,0,8.5,8.4v19.7c0,8.7,0.4,11.8,2.3,11.8c4.9,0,7.7-18.6,7.7-18.6s1.1,23.4-9.1,23.4
		c-8.5,0-9.4-13.1-9.4-19.4L217.3,821.7z"/>
	<path class="st13" d="M287.8,822.8c-10.4,0-13.8,9.7-13.8,21.6c0,14.9,3.4,21.7,12.6,21.7c7,0,9.1-16.3,9.1-21.7
		C295.7,832.4,293.8,822.8,287.8,822.8L287.8,822.8z M286.8,862.4c-1.8,0-4.2-4.6-4.2-18c0-10.7,3-19.4,5.2-19.4
		c3.5,0,5.4,8.6,5.4,19.4S289.9,862.4,286.8,862.4L286.8,862.4z"/>
	<path class="st13" d="M149.5,803.5c-15.9,0-19.7,16.2-19.7,36.1c0,24.8,7.3,35.7,21.3,35.7c10.6,0,13.5-28,13.5-36.8
		C164.6,818.5,158.7,803.5,149.5,803.5L149.5,803.5z M149.2,869.7c-2.7,0-7.5-7.7-7.5-30.1c0-17.8,3.7-32.3,7.2-32.3
		c5.3,0,9.7,13.4,9.7,31.2S154,869.7,149.2,869.7L149.2,869.7z"/>
	<path class="st13" d="M275.3,844.4c0,0-2.8,17.5-7.7,17.5c-1.9,0-2.3-2.9-2.3-11.1v-24.3c0-1.7-4.8-1.9-7.2-1.9
		c-0.7,0-1.3-0.5-1.3-1.2V821c0-7.2-8.5-7.2-8.5-7.2v10.7c0,2,8.5,1.5,8.5,3.5v20.1c0,5.9,0.8,18.3,9.4,18.3
		C276.3,866.4,275.3,844.4,275.3,844.4L275.3,844.4z"/>
	<path class="st13" d="M284,823.6c0,0-2.5,1.7-2.5,5.8c0,4.1,6.8,12.5,13.1,12.5c7.4,0,9.4-5,12.7-5c1.9,0,4,1.1,4,1.1
		s-1.4-1.9-4.6-2.2c-4-0.4-7.4,4.2-10.8,4.2c-6,0-12.4-6.4-12.4-10.5s0.8-4.1,0.8-4.1L284,823.6z"/>
	<path class="st7" d="M282.2,815.4c-14.9-6.9-27.1-9.1-35.3-8.7c-18.8,0.8-27.4,8-47.6,8c-11.4,0-20.8-0.4-26.8-2.7
		c6.1,2.3,15.4,5,26.8,5c20.2,0,30.1-5.9,48.8-6.8C256.3,809.8,265.6,809.8,282.2,815.4L282.2,815.4z"/>
	<path class="st6" d="M313.5,859.5c0,0-20.6,21.5-73.7,21.5c-54.7,0-92.4-21.6-118.6-26.1c17.3,0,67.1,20.3,116.4,20.3
		C290.3,875.3,313.5,859.5,313.5,859.5z"/>
</g>
<rect x="612.7" y="991.3" class="st1" width="36.1" height="55.2"/>
<rect x="695.6" y="990.9" class="st6" width="36.1" height="55.2"/>
<rect x="737" y="990.9" class="st7" width="36.1" height="55.2"/>
<rect x="654.1" y="990.9" class="st5" width="36.1" height="55.2"/>
</svg>
