<?xml version="1.0" encoding="UTF-8"?>
<svg id="Layer_1" data-name="Layer 1" xmlns="http://www.w3.org/2000/svg" viewBox="0 0 97.01 108.98">
  <path id="Path_472" data-name="Path 472" d="M96.01,94.68h0c-29.19,17.73-65.82,17.73-95.01,0V11.91C31-2.64,66.01-2.64,96.01,11.91V94.68Z" style="fill: none; stroke: #000; stroke-miterlimit: 10; stroke-width: 2px;"/>
  <g style="isolation: isolate;">
    <path d="M37.24,42.76c0,.89-.18,1.64-.53,2.24-.35,.61-.82,1.09-1.4,1.46-.58,.37-1.25,.63-1.99,.79-.74,.16-1.51,.24-2.29,.24h-6.49V31.21h6.49c.63,0,1.27,.07,1.93,.2,.66,.13,1.26,.35,1.79,.67,.54,.31,.97,.74,1.31,1.28,.34,.54,.51,1.22,.51,2.05,0,.9-.25,1.65-.74,2.24-.49,.59-1.14,1.02-1.93,1.28v.05c.46,.08,.89,.22,1.3,.43s.76,.47,1.06,.79c.3,.32,.54,.7,.71,1.13,.18,.43,.26,.91,.26,1.45Zm-4.46-6.83c0-.55-.21-.95-.63-1.21s-1.05-.38-1.87-.38h-1.93v3.36h2.12c.74,0,1.31-.15,1.71-.45,.41-.3,.61-.74,.61-1.32Zm.53,6.46c0-.67-.25-1.14-.76-1.4-.51-.26-1.18-.39-2.02-.39h-2.18v3.73h2.21c.31,0,.62-.03,.95-.08,.33-.05,.63-.15,.9-.29,.27-.14,.49-.33,.66-.59,.17-.25,.25-.58,.25-.98Z"/>
    <path d="M44.67,47.49v-11.96l-3.04,2.35-2-2.74,5.36-3.93h3.52v16.28h-3.84Z"/>
    <path d="M54.58,47.49v-3.21l6.35-5.74c.4-.38,.72-.77,.97-1.17,.25-.4,.37-.84,.37-1.33,0-.58-.18-1.05-.55-1.41-.37-.36-.86-.54-1.47-.54-.64,0-1.17,.23-1.58,.68s-.65,1.05-.72,1.78l-3.7-.51c.09-.83,.32-1.57,.68-2.21,.36-.65,.82-1.2,1.37-1.65,.55-.46,1.18-.8,1.9-1.04s1.47-.36,2.27-.36c.75,0,1.48,.1,2.18,.3,.71,.2,1.33,.51,1.89,.92s.99,.94,1.32,1.56c.33,.63,.49,1.37,.49,2.21,0,.58-.08,1.11-.23,1.58s-.36,.9-.63,1.3c-.27,.4-.58,.77-.92,1.12-.34,.34-.7,.69-1.07,1.02l-3.77,3.36h6.65v3.36h-11.78Z"/>
  </g>
  <g style="isolation: isolate;">
    <path d="M12.63,69.17h.08l5.54-15.08h2.78l-7.23,18.41h-2.39l-7.18-18.41h2.86l5.54,15.08Z"/>
    <path d="M25.47,55.73c0,.45-.16,.82-.48,1.12-.32,.29-.7,.44-1.15,.44s-.83-.15-1.13-.46c-.31-.3-.46-.67-.46-1.1s.15-.83,.46-1.13c.31-.3,.69-.46,1.13-.46s.83,.15,1.15,.46c.32,.3,.48,.68,.48,1.13Zm-.39,16.77h-2.44v-12.32h2.44v12.32Z"/>
    <path d="M35.38,62.18h-3.28v6.4c0,.74,.14,1.27,.42,1.59,.28,.32,.72,.48,1.33,.48,.22,0,.47-.02,.73-.07,.26-.05,.49-.12,.7-.21l.08,2c-.29,.1-.62,.19-.97,.25-.36,.06-.72,.09-1.11,.09-1.16,0-2.05-.32-2.67-.96s-.92-1.6-.92-2.89v-6.68h-2.37v-2h2.37v-3.54h2.42v3.54h3.28v2Z"/>
    <path d="M45.57,64.52c0-.92-.28-1.6-.83-2.04-.55-.44-1.29-.66-2.21-.66-.69,0-1.35,.13-1.96,.4-.62,.27-1.13,.61-1.55,1.03l-1.3-1.56c.61-.57,1.35-1.02,2.22-1.35,.88-.33,1.82-.49,2.82-.49,.88,0,1.65,.13,2.3,.38,.65,.25,1.18,.59,1.6,1.03s.73,.94,.94,1.53c.21,.59,.31,1.22,.31,1.9v5.38c0,.42,.01,.85,.04,1.31s.07,.84,.14,1.13h-2.21c-.14-.59-.21-1.18-.21-1.77h-.08c-.45,.66-1.02,1.17-1.7,1.53-.69,.36-1.5,.55-2.43,.55-.49,0-.99-.06-1.52-.19-.53-.13-1.01-.34-1.44-.64s-.79-.68-1.08-1.17c-.29-.48-.43-1.08-.43-1.79,0-.94,.25-1.68,.75-2.22s1.16-.96,1.98-1.25c.82-.29,1.73-.47,2.76-.56,1.02-.09,2.05-.13,3.09-.13v-.34Zm-.6,2.11c-.61,0-1.24,.03-1.89,.08-.65,.05-1.24,.16-1.77,.31-.53,.16-.97,.39-1.31,.7-.35,.31-.52,.73-.52,1.25,0,.36,.07,.67,.22,.91,.15,.24,.34,.44,.58,.6,.24,.16,.51,.26,.81,.33,.29,.06,.6,.09,.91,.09,1.14,0,2.02-.34,2.64-1.03,.62-.68,.92-1.55,.92-2.59v-.65h-.6Z"/>
    <path d="M55.88,60.53c.68-.46,1.5-.69,2.43-.69,.83,0,1.58,.19,2.25,.57s1.19,1.01,1.57,1.9c.42-.8,1-1.41,1.74-1.83,.75-.42,1.56-.64,2.44-.64,.8,0,1.48,.13,2.05,.4s1.05,.63,1.43,1.08c.38,.45,.66,.98,.85,1.59,.18,.61,.27,1.26,.27,1.95v7.64h-2.44v-6.84c0-.5-.04-.98-.13-1.43-.09-.45-.23-.85-.44-1.2s-.49-.62-.83-.83c-.35-.21-.79-.31-1.33-.31s-1.03,.12-1.43,.35c-.4,.23-.72,.54-.98,.91s-.43,.79-.55,1.26c-.11,.47-.17,.95-.17,1.43v6.66h-2.44v-7.33c0-.49-.04-.93-.13-1.33-.09-.4-.23-.74-.44-1.03-.21-.29-.48-.51-.81-.68-.33-.16-.74-.25-1.22-.25-.9,0-1.65,.37-2.25,1.11-.6,.74-.9,1.72-.9,2.95v6.55h-2.44v-9.67c0-.33,0-.75-.03-1.27-.02-.52-.04-.98-.08-1.38h2.31c.03,.31,.06,.66,.08,1.05,.02,.39,.03,.72,.03,.98h.08c.31-.66,.81-1.22,1.5-1.68Z"/>
    <path d="M77.91,55.73c0,.45-.16,.82-.48,1.12-.32,.29-.7,.44-1.15,.44s-.83-.15-1.13-.46c-.31-.3-.46-.67-.46-1.1s.15-.83,.46-1.13c.31-.3,.69-.46,1.13-.46s.83,.15,1.15,.46c.32,.3,.48,.68,.48,1.13Zm-.39,16.77h-2.44v-12.32h2.44v12.32Z"/>
    <path d="M84,60.18c.04,.31,.06,.66,.08,1.05,.02,.39,.03,.72,.03,.98h.08c.16-.33,.37-.64,.64-.92s.58-.54,.92-.75,.73-.39,1.14-.51c.42-.12,.85-.18,1.3-.18,.8,0,1.48,.13,2.05,.4s1.05,.63,1.43,1.08c.38,.45,.66,.98,.85,1.59,.18,.61,.27,1.26,.27,1.95v7.64h-2.44v-6.84c0-.5-.04-.98-.12-1.43-.08-.45-.22-.85-.43-1.2s-.49-.62-.86-.83-.83-.31-1.4-.31c-.97,0-1.76,.37-2.38,1.11-.62,.74-.92,1.72-.92,2.95v6.55h-2.44v-9.67c0-.33,0-.75-.03-1.27-.02-.52-.04-.98-.08-1.38h2.31Z"/>
  </g>
</svg>