<?xml version="1.0" encoding="UTF-8"?>
<svg id="Layer_1" data-name="Layer 1" xmlns="http://www.w3.org/2000/svg" viewBox="0 0 97.01 108.98">
  <path id="Path_472" data-name="Path 472" d="M96.01,94.68h0c-29.19,17.73-65.82,17.73-95.01,0V11.91C31-2.64,66.01-2.64,96.01,11.91V94.68Z" style="fill: none; stroke: #000; stroke-miterlimit: 10; stroke-width: 2px;"/>
  <g style="isolation: isolate;">
    <path d="M15.18,49.28v-10.29l-2.61,2.02-1.72-2.35,4.61-3.38h3.03v14.01h-3.3Z"/>
    <path d="M32.55,46.55v2.73h-3.11v-2.73h-6.59v-2.79l5.7-8.49h3.98v8.59h1.94v2.69h-1.92Zm-3.09-7.87h-.06l-3.32,5.18h3.38v-5.18Z"/>
    <path d="M47.01,42.24c0,.99-.1,1.93-.3,2.83-.2,.9-.51,1.69-.95,2.36s-1,1.22-1.69,1.62c-.69,.4-1.53,.6-2.52,.6s-1.83-.2-2.53-.6-1.27-.94-1.71-1.62c-.44-.68-.76-1.47-.96-2.36-.2-.9-.3-1.84-.3-2.83s.1-1.93,.3-2.82,.52-1.67,.96-2.33c.44-.67,1.01-1.2,1.71-1.59s1.54-.59,2.53-.59,1.83,.2,2.52,.59c.69,.4,1.26,.93,1.69,1.59,.44,.67,.75,1.44,.95,2.33s.3,1.83,.3,2.82Zm-3.4,0c0-.44-.03-.92-.08-1.44-.05-.53-.15-1.02-.3-1.47-.15-.46-.35-.84-.62-1.15-.27-.31-.62-.47-1.06-.47s-.79,.16-1.07,.47c-.28,.31-.49,.69-.64,1.15-.15,.45-.25,.95-.31,1.47-.05,.53-.08,1.01-.08,1.44s.03,.94,.08,1.47c.05,.53,.15,1.03,.31,1.48,.15,.45,.37,.84,.64,1.15,.28,.31,.63,.46,1.07,.46s.79-.15,1.06-.46c.27-.31,.48-.69,.62-1.15,.14-.46,.24-.95,.3-1.48,.05-.53,.08-1.03,.08-1.47Z"/>
    <path d="M61.77,49.28v-5.38c0-.28-.02-.54-.06-.8-.04-.26-.11-.48-.22-.66s-.25-.33-.43-.45c-.18-.11-.41-.17-.7-.17s-.52,.06-.72,.18-.38,.28-.51,.47c-.14,.2-.24,.43-.31,.68-.07,.26-.1,.52-.1,.8v5.32h-3.24v-5.62c0-.57-.11-1.02-.34-1.34-.22-.33-.58-.49-1.07-.49-.51,0-.91,.2-1.2,.61-.28,.41-.43,.91-.43,1.5v5.34h-3.26v-9.85h3.15v1.36h.04c.12-.21,.27-.41,.45-.61,.18-.2,.39-.37,.64-.52,.25-.15,.53-.27,.84-.37,.31-.09,.65-.14,1.02-.14,.71,0,1.32,.15,1.81,.44,.49,.29,.88,.71,1.16,1.25,.33-.51,.75-.92,1.27-1.23s1.14-.46,1.88-.46c.67,0,1.24,.12,1.69,.37,.46,.24,.82,.56,1.1,.95,.28,.39,.48,.82,.6,1.31s.19,.95,.19,1.41v6.09h-3.24Z"/>
    <path d="M77.91,48.35c0,.96-.14,1.8-.42,2.51-.28,.71-.67,1.3-1.17,1.77-.5,.47-1.11,.82-1.83,1.05-.72,.23-1.51,.35-2.38,.35s-1.76-.13-2.68-.4c-.92-.26-1.71-.65-2.38-1.15l1.62-2.31c.47,.42,1,.73,1.57,.94,.57,.2,1.14,.31,1.69,.31,.95,0,1.65-.25,2.11-.75,.45-.5,.68-1.17,.68-2v-.59h-.06c-.3,.4-.71,.71-1.23,.95-.51,.24-1.1,.36-1.76,.36-.75,0-1.42-.14-2-.41s-1.07-.64-1.47-1.1-.71-1-.92-1.61c-.21-.61-.32-1.26-.32-1.95s.11-1.34,.32-1.96c.21-.62,.52-1.17,.92-1.64s.89-.85,1.47-1.14,1.24-.43,1.98-.43c.62,0,1.21,.13,1.78,.38s1.02,.64,1.36,1.17h.04v-1.27h3.07v8.92Zm-3.09-4.06c0-.33-.06-.65-.17-.95-.11-.3-.27-.57-.48-.8-.21-.23-.46-.41-.75-.54-.29-.13-.62-.2-.99-.2s-.7,.07-.98,.2c-.28,.13-.52,.31-.72,.53s-.35,.49-.46,.79-.16,.63-.16,.97,.05,.65,.16,.95c.11,.3,.26,.57,.46,.8,.2,.23,.44,.42,.72,.55,.28,.14,.61,.21,.98,.21s.7-.07,1-.21c.3-.14,.55-.32,.75-.54s.36-.49,.48-.79c.11-.3,.17-.63,.17-.97Z"/>
  </g>
  <g style="isolation: isolate;">
    <path d="M21.26,68.33c-.63,.85-1.44,1.54-2.44,2.07-1,.53-2.2,.79-3.6,.79-1.21,0-2.32-.2-3.34-.61-1.02-.41-1.9-.98-2.64-1.72s-1.32-1.62-1.73-2.64c-.42-1.02-.63-2.14-.63-3.37s.21-2.37,.64-3.39,1.01-1.89,1.77-2.62c.75-.72,1.64-1.29,2.67-1.69,1.03-.4,2.15-.6,3.35-.6,.54,0,1.08,.05,1.63,.16,.55,.1,1.08,.26,1.59,.47,.51,.21,.97,.47,1.39,.77,.42,.31,.77,.66,1.07,1.06l-1.74,1.34c-.39-.54-.94-.98-1.64-1.33-.71-.35-1.47-.53-2.29-.53-.92,0-1.76,.17-2.49,.5-.74,.34-1.37,.79-1.89,1.38-.52,.58-.92,1.26-1.21,2.02-.28,.77-.43,1.58-.43,2.45s.14,1.73,.41,2.5c.28,.78,.67,1.45,1.19,2.02,.51,.57,1.14,1.02,1.88,1.35,.74,.33,1.56,.49,2.47,.49s1.71-.18,2.44-.54c.73-.36,1.33-.88,1.81-1.56l1.77,1.21Z"/>
  </g>
  <g style="isolation: isolate;">
    <path d="M29.6,63.93c0-.79-.24-1.38-.72-1.76-.48-.38-1.11-.57-1.9-.57-.6,0-1.16,.12-1.69,.35-.53,.23-.97,.53-1.33,.88l-1.12-1.34c.52-.49,1.16-.88,1.91-1.16,.75-.28,1.56-.43,2.43-.43,.76,0,1.42,.11,1.98,.32,.56,.22,1.02,.51,1.38,.88s.63,.81,.81,1.32c.18,.51,.27,1.05,.27,1.63v4.63c0,.36,.01,.73,.03,1.13,.02,.39,.06,.72,.12,.97h-1.9c-.12-.51-.18-1.01-.18-1.52h-.07c-.39,.57-.88,1.01-1.46,1.32-.59,.31-1.29,.47-2.09,.47-.42,0-.85-.06-1.31-.17-.45-.11-.87-.29-1.24-.55-.37-.25-.68-.59-.93-1.01-.25-.42-.37-.93-.37-1.54,0-.8,.22-1.44,.65-1.91,.43-.47,1-.83,1.7-1.07s1.49-.41,2.37-.48c.88-.07,1.77-.11,2.66-.11v-.29Zm-.51,1.81c-.52,0-1.06,.02-1.62,.07s-1.07,.13-1.52,.27c-.45,.13-.83,.34-1.13,.6-.3,.27-.45,.63-.45,1.07,0,.31,.06,.57,.19,.78,.13,.21,.29,.38,.5,.51,.21,.13,.44,.23,.69,.28,.25,.05,.51,.08,.78,.08,.98,0,1.74-.29,2.27-.88,.53-.59,.79-1.33,.79-2.23v-.56h-.51Z"/>
  </g>
  <g style="isolation: isolate;">
    <path d="M40.11,61.91h-2.46v8.88h-2.1v-8.88h-2.1v-1.72h2.1v-2.21c0-.63,.07-1.2,.21-1.73,.14-.53,.37-.99,.69-1.38,.32-.39,.73-.69,1.23-.92,.5-.22,1.11-.34,1.82-.34,.51,0,.95,.05,1.32,.16l-.25,1.81c-.16-.05-.33-.08-.49-.11-.16-.03-.35-.05-.56-.05-.4,0-.73,.07-.97,.21-.25,.14-.44,.33-.57,.57-.13,.24-.22,.51-.27,.82-.04,.31-.07,.62-.07,.95v2.21h2.46v1.72Z"/>
  </g>
  <g style="isolation: isolate;">
    <path d="M46.8,61.91h-2.46v8.88h-2.1v-8.88h-2.1v-1.72h2.1v-2.21c0-.63,.07-1.2,.21-1.73,.14-.53,.37-.99,.69-1.38,.32-.39,.73-.69,1.23-.92,.5-.22,1.11-.34,1.82-.34,.51,0,.95,.05,1.32,.16l-.25,1.81c-.16-.05-.33-.08-.49-.11-.16-.03-.35-.05-.56-.05-.4,0-.73,.07-.97,.21-.25,.14-.44,.33-.57,.57-.13,.24-.22,.51-.27,.82-.04,.31-.07,.62-.07,.95v2.21h2.46v1.72Z"/>
    <path d="M55.34,63.93c0-.79-.24-1.38-.72-1.76-.48-.38-1.11-.57-1.9-.57-.6,0-1.16,.12-1.69,.35-.53,.23-.97,.53-1.33,.88l-1.12-1.34c.52-.49,1.16-.88,1.91-1.16,.75-.28,1.56-.43,2.43-.43,.76,0,1.42,.11,1.98,.32,.56,.22,1.02,.51,1.38,.88s.63,.81,.81,1.32c.18,.51,.27,1.05,.27,1.63v4.63c0,.36,.01,.73,.03,1.13,.02,.39,.06,.72,.12,.97h-1.9c-.12-.51-.18-1.01-.18-1.52h-.07c-.39,.57-.88,1.01-1.46,1.32-.59,.31-1.29,.47-2.09,.47-.42,0-.85-.06-1.31-.17-.45-.11-.87-.29-1.24-.55-.37-.25-.68-.59-.93-1.01-.25-.42-.37-.93-.37-1.54,0-.8,.22-1.44,.65-1.91,.43-.47,1-.83,1.7-1.07s1.49-.41,2.37-.48c.88-.07,1.77-.11,2.66-.11v-.29Zm-.51,1.81c-.52,0-1.06,.02-1.62,.07s-1.07,.13-1.52,.27c-.45,.13-.83,.34-1.13,.6-.3,.27-.45,.63-.45,1.07,0,.31,.06,.57,.19,.78,.13,.21,.29,.38,.5,.51,.21,.13,.44,.23,.69,.28,.25,.05,.51,.08,.78,.08,.98,0,1.74-.29,2.27-.88,.53-.59,.79-1.33,.79-2.23v-.56h-.51Z"/>
    <path d="M63.33,56.37c0,.39-.14,.71-.41,.96-.27,.25-.6,.38-.99,.38s-.71-.13-.98-.39c-.27-.26-.4-.58-.4-.95s.13-.71,.4-.97c.27-.26,.59-.39,.98-.39s.71,.13,.99,.39c.27,.26,.41,.59,.41,.97Zm-.34,14.42h-2.1v-10.6h2.1v10.6Z"/>
    <path d="M68.56,60.19c.03,.27,.05,.57,.07,.91,.01,.34,.02,.62,.02,.84h.07c.13-.28,.32-.55,.55-.79s.5-.46,.79-.65c.3-.19,.63-.33,.98-.44,.36-.1,.73-.16,1.12-.16,.69,0,1.27,.12,1.77,.35,.49,.23,.9,.54,1.23,.93,.33,.39,.57,.84,.73,1.36s.23,1.08,.23,1.68v6.57h-2.1v-5.88c0-.43-.03-.84-.1-1.23-.07-.39-.19-.73-.37-1.03s-.42-.54-.74-.72c-.31-.18-.72-.27-1.21-.27-.84,0-1.52,.32-2.05,.95-.53,.63-.79,1.48-.79,2.54v5.64h-2.1v-8.32c0-.28,0-.65-.02-1.1-.02-.45-.04-.84-.07-1.19h1.99Z"/>
    <path d="M89.58,65.4v.36c0,.12,0,.24-.02,.36h-8.43c.01,.44,.12,.86,.3,1.25,.19,.39,.44,.73,.75,1.02,.31,.29,.67,.51,1.08,.68s.85,.24,1.31,.24c.72,0,1.33-.16,1.86-.47,.52-.31,.93-.69,1.23-1.14l1.48,1.19c-.57,.75-1.23,1.3-2,1.66-.77,.35-1.62,.53-2.56,.53-.8,0-1.55-.13-2.24-.4-.69-.27-1.28-.65-1.77-1.13-.49-.48-.88-1.07-1.16-1.76-.28-.69-.43-1.45-.43-2.28s.14-1.58,.41-2.27c.28-.69,.66-1.29,1.15-1.78s1.08-.88,1.75-1.15c.67-.28,1.4-.41,2.17-.41s1.48,.13,2.12,.38,1.17,.62,1.61,1.1c.44,.48,.78,1.06,1.02,1.73s.36,1.44,.36,2.29Zm-2.15-.85c-.02-.42-.09-.81-.21-1.17s-.31-.68-.56-.95c-.25-.27-.55-.48-.92-.64-.37-.16-.79-.24-1.29-.24-.45,0-.87,.08-1.26,.24-.4,.16-.74,.37-1.03,.64-.29,.27-.53,.58-.72,.95s-.29,.76-.32,1.17h6.31Z"/>
  </g>
</svg>