<?xml version="1.0" encoding="UTF-8"?>
<svg id="Layer_1" data-name="Layer 1" xmlns="http://www.w3.org/2000/svg" viewBox="0 0 97.01 108.98">
  <g style="isolation: isolate;">
    <path d="M18.27,57.6v-21.84l-5.54,4.28-3.65-5,9.78-7.18h6.43v29.74h-7.01Z"/>
    <path d="M55.15,51.81v5.8h-6.59v-5.8h-13.99v-5.92l12.1-18.02h8.44v18.23h4.12v5.71h-4.07Zm-6.55-16.72h-.13l-7.06,11h7.18v-11Z"/>
    <path d="M85.85,42.65c0,2.1-.21,4.1-.63,6.01-.42,1.9-1.09,3.58-2.02,5.02-.92,1.44-2.12,2.59-3.59,3.44-1.47,.85-3.25,1.28-5.35,1.28s-3.89-.43-5.38-1.28c-1.48-.85-2.7-2-3.63-3.44-.94-1.44-1.62-3.12-2.04-5.02-.42-1.9-.63-3.91-.63-6.01s.21-4.09,.63-5.98c.42-1.89,1.1-3.54,2.04-4.96,.94-1.41,2.15-2.54,3.63-3.38,1.48-.84,3.28-1.26,5.38-1.26s3.88,.42,5.35,1.26c1.47,.84,2.67,1.97,3.59,3.38,.92,1.41,1.6,3.07,2.02,4.96,.42,1.89,.63,3.88,.63,5.98Zm-7.22,0c0-.92-.06-1.95-.17-3.07-.11-1.12-.32-2.16-.63-3.13-.31-.97-.75-1.78-1.32-2.44-.57-.66-1.32-.99-2.25-.99s-1.68,.33-2.27,.99c-.59,.66-1.04,1.47-1.36,2.44-.32,.97-.54,2.01-.65,3.13-.11,1.12-.17,2.14-.17,3.07s.06,2,.17,3.13c.11,1.13,.33,2.18,.65,3.15,.32,.97,.78,1.78,1.36,2.44,.59,.66,1.34,.99,2.27,.99s1.67-.33,2.25-.99c.57-.66,1.01-1.47,1.32-2.44,.31-.97,.52-2.02,.63-3.15,.11-1.13,.17-2.18,.17-3.13Z"/>
  </g>
  <g>
    <g style="isolation: isolate;">
      <path d="M21.44,75.11c-.62,.84-1.42,1.51-2.4,2.04-.98,.52-2.16,.78-3.54,.78-1.19,0-2.28-.2-3.29-.61-1-.4-1.87-.97-2.6-1.69-.73-.73-1.29-1.59-1.71-2.6s-.62-2.11-.62-3.31,.21-2.33,.63-3.33c.42-1,1-1.86,1.74-2.57,.74-.71,1.62-1.27,2.63-1.66,1.01-.4,2.11-.59,3.3-.59,.53,0,1.06,.05,1.61,.15,.54,.1,1.06,.26,1.56,.46,.5,.21,.95,.46,1.36,.76s.76,.65,1.06,1.04l-1.72,1.32c-.38-.53-.92-.96-1.62-1.31-.7-.34-1.45-.52-2.25-.52-.91,0-1.73,.17-2.45,.49-.73,.33-1.35,.78-1.86,1.35-.51,.57-.91,1.24-1.19,1.99-.28,.75-.42,1.56-.42,2.41s.14,1.7,.41,2.46,.66,1.43,1.17,1.99c.51,.57,1.12,1.01,1.85,1.33,.73,.32,1.54,.48,2.43,.48s1.68-.18,2.4-.53c.72-.35,1.31-.87,1.78-1.54l1.74,1.19Z"/>
    </g>
    <path d="M29.64,70.78c0-.78-.23-1.35-.7-1.73s-1.09-.56-1.87-.56c-.59,0-1.14,.11-1.66,.34-.52,.23-.96,.52-1.31,.87l-1.1-1.32c.51-.48,1.14-.87,1.88-1.14s1.54-.42,2.39-.42c.75,0,1.4,.11,1.95,.32,.55,.21,1,.5,1.35,.87,.35,.37,.62,.8,.79,1.3,.18,.5,.26,1.03,.26,1.61v4.55c0,.35,.01,.72,.03,1.11s.06,.71,.12,.96h-1.87c-.12-.5-.18-1-.18-1.5h-.07c-.38,.56-.86,.99-1.44,1.3-.58,.31-1.27,.46-2.06,.46-.41,0-.84-.05-1.29-.17-.45-.11-.85-.29-1.22-.54-.37-.25-.67-.58-.91-.99-.24-.41-.36-.92-.36-1.52,0-.79,.21-1.42,.64-1.88s.98-.81,1.67-1.06,1.47-.4,2.33-.47c.87-.07,1.74-.11,2.62-.11v-.29Zm-.51,1.78c-.51,0-1.04,.02-1.6,.07-.55,.04-1.05,.13-1.5,.26-.45,.13-.82,.33-1.11,.59s-.44,.62-.44,1.06c0,.31,.06,.57,.19,.77,.12,.21,.29,.37,.5,.51,.21,.13,.43,.22,.68,.27,.25,.05,.51,.08,.77,.08,.97,0,1.71-.29,2.23-.87,.52-.58,.78-1.31,.78-2.19v-.55h-.51Z"/>
    <path d="M37.19,77.53h-2.07v-16.63h2.07v16.63Z"/>
    <path d="M51.36,72.3c0,.81-.14,1.55-.43,2.22s-.68,1.26-1.19,1.75-1.1,.87-1.79,1.14c-.69,.27-1.43,.41-2.22,.41s-1.53-.14-2.22-.41-1.28-.65-1.78-1.14c-.5-.49-.89-1.07-1.18-1.75-.29-.67-.43-1.42-.43-2.22s.14-1.54,.43-2.21c.29-.67,.68-1.24,1.18-1.73,.5-.48,1.09-.86,1.78-1.13s1.43-.41,2.22-.41,1.53,.14,2.22,.41c.69,.27,1.29,.65,1.79,1.13,.51,.48,.9,1.06,1.19,1.73,.29,.67,.43,1.41,.43,2.21Zm-2.16,.01c0-.5-.08-.97-.23-1.43-.15-.45-.38-.85-.67-1.2s-.66-.62-1.09-.82c-.43-.21-.93-.31-1.49-.31s-1.06,.1-1.49,.31-.8,.48-1.09,.82-.52,.74-.67,1.2c-.15,.45-.23,.93-.23,1.43s.08,.97,.23,1.43c.15,.45,.38,.86,.67,1.21,.29,.35,.66,.63,1.09,.83s.93,.31,1.49,.31,1.06-.1,1.49-.31c.43-.21,.8-.48,1.09-.83,.29-.35,.52-.75,.67-1.21,.15-.45,.23-.93,.23-1.43Z"/>
    <path d="M54.2,68.27c-.01-.44-.04-.83-.07-1.17h1.96c.03,.26,.05,.57,.07,.91s.02,.63,.02,.85h.07c.29-.62,.72-1.11,1.29-1.49s1.2-.56,1.9-.56c.32,0,.59,.03,.81,.09l-.09,1.91c-.29-.07-.61-.11-.95-.11-.5,0-.93,.09-1.3,.28-.37,.18-.67,.43-.91,.74-.24,.31-.42,.66-.54,1.07-.12,.4-.18,.83-.18,1.27v5.48h-2.07v-8.18c0-.28,0-.64-.02-1.08Z"/>
    <path d="M64.6,63.34c0,.38-.13,.7-.4,.95-.27,.25-.59,.37-.97,.37s-.7-.13-.96-.38-.39-.57-.39-.94,.13-.7,.39-.96c.26-.26,.58-.38,.96-.38s.7,.13,.97,.38c.27,.26,.4,.58,.4,.96Zm-.33,14.19h-2.07v-10.43h2.07v10.43Z"/>
    <path d="M77.62,72.23v.35c0,.12,0,.24-.02,.35h-8.29c.01,.44,.11,.85,.3,1.23s.43,.72,.74,1c.31,.28,.66,.51,1.07,.67s.83,.24,1.29,.24c.7,0,1.31-.15,1.83-.46s.92-.68,1.21-1.12l1.45,1.17c-.56,.74-1.21,1.28-1.97,1.63-.76,.35-1.6,.52-2.52,.52-.79,0-1.53-.13-2.2-.4-.67-.26-1.25-.63-1.74-1.11-.48-.48-.87-1.05-1.14-1.73-.28-.67-.42-1.42-.42-2.24s.14-1.55,.41-2.23c.27-.68,.65-1.27,1.13-1.75,.49-.48,1.06-.86,1.72-1.13,.66-.27,1.37-.41,2.14-.41s1.46,.12,2.08,.37c.62,.25,1.15,.61,1.59,1.08s.77,1.04,1,1.71c.24,.67,.35,1.42,.35,2.25Zm-2.11-.84c-.01-.41-.08-.8-.21-1.16-.12-.36-.31-.67-.55-.93-.24-.26-.54-.47-.9-.63-.36-.15-.78-.23-1.26-.23-.44,0-.86,.08-1.24,.23-.39,.15-.73,.36-1.01,.63-.29,.26-.52,.58-.7,.93-.18,.36-.29,.74-.32,1.16h6.2Z"/>
    <path d="M86.12,69.74c-.23-.38-.56-.69-.99-.93-.42-.24-.9-.36-1.43-.36-.23,0-.47,.03-.7,.08s-.44,.13-.63,.24c-.18,.11-.33,.25-.44,.42-.11,.17-.17,.38-.17,.63,0,.44,.2,.77,.59,.98,.4,.21,.99,.41,1.78,.58,.5,.12,.96,.26,1.39,.42,.42,.16,.79,.36,1.11,.61,.31,.24,.56,.53,.74,.87,.18,.34,.26,.73,.26,1.19,0,.62-.12,1.14-.35,1.56-.23,.42-.55,.77-.93,1.04-.39,.27-.83,.47-1.33,.58-.5,.12-1.01,.18-1.54,.18-.79,0-1.57-.15-2.32-.46-.76-.31-1.38-.78-1.88-1.41l1.47-1.25c.28,.41,.66,.76,1.16,1.03s1.03,.42,1.62,.42c.26,0,.52-.03,.76-.08s.46-.14,.66-.25,.36-.27,.47-.46,.18-.43,.18-.73c0-.48-.23-.84-.69-1.08-.46-.23-1.14-.45-2.04-.66-.35-.09-.71-.19-1.07-.32-.36-.12-.69-.3-.98-.52-.29-.22-.53-.5-.71-.83-.18-.33-.28-.74-.28-1.22,0-.56,.11-1.04,.34-1.44s.52-.73,.89-.99c.37-.26,.78-.45,1.25-.57,.47-.12,.95-.19,1.45-.19,.75,0,1.47,.15,2.17,.44,.7,.29,1.24,.72,1.62,1.28l-1.43,1.21Z"/>
  </g>
  <path id="Path_472" data-name="Path 472" d="M96.01,94.68h0c-29.19,17.73-65.82,17.73-95.01,0V11.91C31-2.64,66.01-2.64,96.01,11.91V94.68Z" style="fill: none; stroke: #000; stroke-miterlimit: 10; stroke-width: 2px;"/>
</svg>