<?xml version="1.0" encoding="UTF-8"?><svg id="Layer_1" xmlns="http://www.w3.org/2000/svg" viewBox="0 0 416.81 380.76"><defs><style>.cls-1{letter-spacing:-.09em;}.cls-2{fill:#fff;}.cls-2,.cls-3{stroke:#231f20;stroke-linecap:round;stroke-linejoin:round;stroke-width:2px;}.cls-3{fill:none;}.cls-4{font-family:MyriadPro-Regular, 'Myriad Pro';font-size:26.82px;}</style></defs><g><ellipse class="cls-3" cx="134.68" cy="124.76" rx="43.06" ry="21.53"/><path class="cls-3" d="M91.61,294.3c0,11.89,19.28,21.53,43.06,21.53,5.9,0,11.53-.59,16.65-1.67"/><line class="cls-3" x1="177.74" y1="138.76" x2="177.74" y2="124.77"/><line class="cls-3" x1="91.62" y1="124.76" x2="91.62" y2="294.29"/></g><g><path class="cls-3" d="M237.44,158.62c0,2.02-.55,3.97-1.59,5.82-3.55,6.34-12.76,11.49-24.73,14.02-.55,.12-1.11,.23-1.68,.33-4.69,.88-9.76,1.36-15.06,1.36-5.9,0-11.52-.59-16.64-1.67-15.52-3.25-26.42-10.92-26.42-19.86s10.9-16.61,26.42-19.86c5.12-1.08,10.74-1.67,16.64-1.67,5.3,0,10.37,.48,15.06,1.36,.57,.1,1.13,.21,1.68,.33,11.97,2.53,21.18,7.68,24.73,14.02,1.04,1.85,1.59,3.8,1.59,5.82Z"/><path class="cls-3" d="M151.32,328.15c0,11.89,19.28,21.53,43.06,21.53s43.06-9.64,43.06-21.53"/><polyline class="cls-3" points="237.44 328.15 237.44 313.67 237.44 246.55 237.44 158.62"/><polyline class="cls-3" points="151.32 328.15 151.32 314.16 151.32 158.62"/></g><g><ellipse class="cls-3" cx="192.79" cy="90.12" rx="43.06" ry="21.53"/><line class="cls-3" x1="235.85" y1="152.8" x2="235.85" y2="143.83"/><line class="cls-3" x1="235.85" y1="104.11" x2="235.85" y2="90.12"/><line class="cls-3" x1="149.73" y1="104.6" x2="149.73" y2="90.12"/></g><g><path class="cls-3" d="M295.56,123.97c0,8.61-10.11,16.04-24.73,19.49-.52,.12-1.05,.24-1.59,.35-5.14,1.09-10.8,1.69-16.74,1.69s-11.53-.59-16.65-1.67c-15.51-3.25-26.41-10.92-26.41-19.86s10.9-16.61,26.41-19.86c5.12-1.08,10.75-1.67,16.65-1.67s11.6,.6,16.74,1.69c.54,.11,1.07,.23,1.59,.35,14.62,3.45,24.73,10.88,24.73,19.49Z"/><path class="cls-3" d="M237.44,313.67c4.69,.88,9.76,1.36,15.06,1.36,23.78,0,43.06-9.64,43.06-21.53"/><polyline class="cls-3" points="295.56 293.5 295.56 280.05 295.56 232.68 295.56 211.9 295.56 123.97"/><line class="cls-3" x1="209.44" y1="138.45" x2="209.44" y2="123.97"/></g><g><ellipse class="cls-3" cx="254.19" cy="57.18" rx="43.06" ry="21.53"/><line class="cls-3" x1="297.24" y1="71.17" x2="297.24" y2="57.18"/><line class="cls-3" x1="211.12" y1="70.63" x2="211.12" y2="57.18"/></g><g><path class="cls-3" d="M356.95,91.03c0,2.01-.55,3.96-1.59,5.81-3.71,6.64-13.62,11.98-26.41,14.36-4.69,.88-9.76,1.36-15.06,1.36-5.9,0-11.53-.59-16.65-1.67-15.51-3.25-26.41-10.92-26.41-19.86s10.9-16.61,26.41-19.86c5.12-1.08,10.75-1.67,16.65-1.67,5.3,0,10.37,.48,15.06,1.36,12.79,2.38,22.7,7.72,26.41,14.36,1.04,1.85,1.59,3.8,1.59,5.81Z"/><path class="cls-3" d="M295.56,280.05c5.56,1.31,11.77,2.04,18.33,2.04,23.78,0,43.06-9.64,43.06-21.53"/><polyline class="cls-3" points="356.95 260.56 356.95 246.08 356.95 91.03"/><line class="cls-3" x1="270.83" y1="104.48" x2="270.83" y2="91.03"/></g><g><ellipse class="cls-3" cx="312.3" cy="22.53" rx="43.06" ry="21.53"/><line class="cls-3" x1="355.36" y1="36.52" x2="355.36" y2="22.53"/><line class="cls-3" x1="269.24" y1="37.01" x2="269.24" y2="22.53"/></g><g><ellipse class="cls-3" cx="372.01" cy="56.38" rx="43.06" ry="21.53"/><path class="cls-3" d="M356.95,246.08c4.69,.88,9.76,1.36,15.06,1.36,23.78,0,43.06-9.64,43.06-21.53"/><line class="cls-3" x1="415.07" y1="56.38" x2="415.07" y2="225.91"/><line class="cls-3" x1="328.95" y1="70.86" x2="328.95" y2="56.38"/></g><path class="cls-2" d="M91.49,237.83v67.44l65.66,36.75c22.24,12.75,49.58,12.74,71.81-.03l186.28-107v-66.97l-185.36,107c-22.28,12.86-49.71,12.88-72.01,.07l-66.38-37.26Z"/><path class="cls-3" d="M229.53,364.86l186.28-107"/><path class="cls-3" d="M92.05,328.14l65.66,36.75"/><line class="cls-3" x1="65.16" y1="123.97" x2="65.16" y2="296.25"/><text class="cls-4" transform="translate(0 213.24)"><tspan x="0" y="0">6.25</tspan><tspan class="cls-1" x="46.83" y="0">”</tspan></text><text class="cls-4" transform="translate(65.16 374.05)"><tspan x="0" y="0">4.5</tspan><tspan class="cls-1" x="33.07" y="0">”</tspan></text><text class="cls-4" transform="translate(332.61 333.9)"><tspan x="0" y="0">9</tspan><tspan class="cls-1" x="13.76" y="0">”</tspan></text></svg>