<svg id="insta-logo" xmlns="http://www.w3.org/2000/svg" width="48.171" height="48.171" viewBox="0 0 48.171 48.171">
  <path id="Path_34" data-name="Path 34" d="M340.75,398.523a5.288,5.288,0,1,1,2.2,4.3A5.315,5.315,0,0,1,340.75,398.523Z" transform="translate(-321.972 -374.438)"/>
  <path id="Path_35" data-name="Path 35" d="M347.2,394.924l-.018-5.106,4.447-.018h.659v5.106Z" transform="translate(-316.634 -377.3)"/>
  <path id="Path_36" data-name="Path 36" d="M356.786,394.45h4.484v12.317a2.886,2.886,0,0,1-2.892,2.892H339.912a2.9,2.9,0,0,1-2.892-2.892V394.45h4.5a8.238,8.238,0,1,0,15.264,0Z" transform="translate(-325.069 -373.44)"/>
  <path id="Path_37" data-name="Path 37" d="M371.615,390.016a24.1,24.1,0,1,0,7.046,17.039A24.042,24.042,0,0,0,371.615,390.016ZM369.62,416.3a5.811,5.811,0,0,1-5.82,5.82H345.333a5.823,5.823,0,0,1-5.82-5.82V397.813a5.847,5.847,0,0,1,5.82-5.82H363.8a5.835,5.835,0,0,1,5.82,5.82Z" transform="translate(-330.49 -382.97)"/>
  <path id="Path_38" data-name="Path 38" d="M340.75,398.523a5.288,5.288,0,1,1,2.2,4.3A5.315,5.315,0,0,1,340.75,398.523Z" transform="translate(-321.972 -374.438)"/>
  <path id="Path_39" data-name="Path 39" d="M347.2,394.924l-.018-5.106,4.447-.018h.659v5.106Z" transform="translate(-316.634 -377.3)"/>
  <path id="Path_40" data-name="Path 40" d="M356.786,394.45h4.484v12.317a2.886,2.886,0,0,1-2.892,2.892H339.912a2.9,2.9,0,0,1-2.892-2.892V394.45h4.5a8.238,8.238,0,1,0,15.264,0Z" transform="translate(-325.069 -373.44)"/>
  <path id="Path_41" data-name="Path 41" d="M371.615,390.016a24.1,24.1,0,1,0,7.046,17.039A24.042,24.042,0,0,0,371.615,390.016ZM369.62,416.3a5.811,5.811,0,0,1-5.82,5.82H345.333a5.823,5.823,0,0,1-5.82-5.82V397.813a5.847,5.847,0,0,1,5.82-5.82H363.8a5.835,5.835,0,0,1,5.82,5.82Z" transform="translate(-330.49 -382.97)"/>
  <path id="Path_42" data-name="Path 42" d="M340.75,398.523a5.288,5.288,0,1,1,2.2,4.3A5.315,5.315,0,0,1,340.75,398.523Z" transform="translate(-321.972 -374.438)"/>
  <path id="Path_43" data-name="Path 43" d="M347.2,394.924l-.018-5.106,4.447-.018h.659v5.106Z" transform="translate(-316.634 -377.3)"/>
  <path id="Path_44" data-name="Path 44" d="M356.786,394.45h4.484v12.317a2.886,2.886,0,0,1-2.892,2.892H339.912a2.9,2.9,0,0,1-2.892-2.892V394.45h4.5a8.238,8.238,0,1,0,15.264,0Z" transform="translate(-325.069 -373.44)"/>
  <path id="Path_45" data-name="Path 45" d="M371.615,390.016a24.1,24.1,0,1,0,7.046,17.039A24.042,24.042,0,0,0,371.615,390.016ZM369.62,416.3a5.811,5.811,0,0,1-5.82,5.82H345.333a5.823,5.823,0,0,1-5.82-5.82V397.813a5.847,5.847,0,0,1,5.82-5.82H363.8a5.835,5.835,0,0,1,5.82,5.82Z" transform="translate(-330.49 -382.97)"/>
</svg>
