<svg id="linkedin-logo" xmlns="http://www.w3.org/2000/svg" width="48.171" height="48.171" viewBox="0 0 48.171 48.171">
  <path id="Path_31" data-name="Path 31" d="M316.575,382.97a24.085,24.085,0,1,0,24.085,24.085A24.081,24.081,0,0,0,316.575,382.97Zm-11.549,9.023a3.514,3.514,0,1,1,0,7.028,3.5,3.5,0,0,1-3.514-3.514A3.515,3.515,0,0,1,305.027,391.993Zm4.081,30.656H302.3V402.26h6.808Zm22.53-.531h-6.021v-9.791c0-2.324-.256-5.326-3.459-5.326-3.24,0-3.752,2.544-3.752,5.161v9.956h-5.857V402.041h5.6v2.709h.092a6.324,6.324,0,0,1,5.912-2.709c6.314,0,7.486,3.624,7.486,9.041Z" transform="translate(-292.49 -382.97)"/>
  <path id="Path_32" data-name="Path 32" d="M316.575,382.97a24.085,24.085,0,1,0,24.085,24.085A24.081,24.081,0,0,0,316.575,382.97Zm-11.549,9.023a3.514,3.514,0,1,1,0,7.028,3.5,3.5,0,0,1-3.514-3.514A3.515,3.515,0,0,1,305.027,391.993Zm4.081,30.656H302.3V402.26h6.808Zm22.53-.531h-6.021v-9.791c0-2.324-.256-5.326-3.459-5.326-3.24,0-3.752,2.544-3.752,5.161v9.956h-5.857V402.041h5.6v2.709h.092a6.324,6.324,0,0,1,5.912-2.709c6.314,0,7.486,3.624,7.486,9.041Z" transform="translate(-292.49 -382.97)"/>
  <path id="Path_33" data-name="Path 33" d="M316.575,382.97a24.085,24.085,0,1,0,24.085,24.085A24.081,24.081,0,0,0,316.575,382.97Zm-11.549,9.023a3.514,3.514,0,1,1,0,7.028,3.5,3.5,0,0,1-3.514-3.514A3.515,3.515,0,0,1,305.027,391.993Zm4.081,30.656H302.3V402.26h6.808Zm22.53-.531h-6.021v-9.791c0-2.324-.256-5.326-3.459-5.326-3.24,0-3.752,2.544-3.752,5.161v9.956h-5.857V402.041h5.6v2.709h.092a6.324,6.324,0,0,1,5.912-2.709c6.314,0,7.486,3.624,7.486,9.041Z" transform="translate(-292.49 -382.97)"/>
</svg>
