<?xml version="1.0" encoding="utf-8"?>
<!-- Generator: Adobe Illustrator 26.3.1, SVG Export Plug-In . SVG Version: 6.00 Build 0)  -->
<svg version="1.1" id="Layer_1" xmlns="http://www.w3.org/2000/svg" xmlns:xlink="http://www.w3.org/1999/xlink" x="0px" y="0px"
	 viewBox="0 0 124.6 166" style="enable-background:new 0 0 124.6 166;" xml:space="preserve">
<style type="text/css">
	.st0{fill-rule:evenodd;clip-rule:evenodd;}
</style>
<path class="st0" d="M62.3,0L62.3,0z M124.6,62.3L124.6,62.3z M121.4,81.9c-2.1,6.4-5.3,12.4-9.3,17.7l-44.7,59.7l-5.1,6.8l-5.1-6.8
	L12.4,99.6c-4-5.3-7.1-11.2-9.3-17.7C1.1,75.7,0,69.1,0,62.3c0-17.2,7-32.8,18.2-44C29.5,7,45.1,0,62.3,0s32.8,7,44,18.2
	s18.2,26.8,18.2,44C124.6,69.1,123.4,75.7,121.4,81.9L121.4,81.9z M62.3,92.9c8.6,0,16.4-3.5,22-9.1c5.6-5.6,9.1-13.4,9.1-22
	s-3.5-16.4-9.1-22s-13.4-9.1-22-9.1s-16.4,3.5-22,9.1s-9.1,13.4-9.1,22s3.5,16.4,9.1,22C45.9,89.4,53.7,92.9,62.3,92.9z"/>
</svg>
