<?xml version="1.0" encoding="utf-8"?>
<!-- Generator: Adobe Illustrator 26.3.1, SVG Export Plug-In . SVG Version: 6.00 Build 0)  -->
<svg version="1.1" id="Layer_2_00000181800388139928866230000012729380857159415177_"
	 xmlns="http://www.w3.org/2000/svg" xmlns:xlink="http://www.w3.org/1999/xlink" x="0px" y="0px" viewBox="0 0 1136.5 982.7"
	 style="enable-background:new 0 0 1136.5 982.7;" xml:space="preserve">
<style type="text/css">
	.st0{fill:#FFFFFF;stroke:#231F20;stroke-linejoin:round;}
	.st1{stroke:#231F20;stroke-linejoin:round;}
	.st2{fill:none;stroke:#231F20;stroke-linejoin:round;}
	.st3{fill:none;stroke:#000000;stroke-miterlimit:10;}
	.st4{enable-background:new    ;}
</style>
<g>
	<g>
		<polygon class="st0" points="868.8,714.9 868.8,763.6 807.3,799.1 807.3,750.4 807.4,750.4 		"/>
		<polygon class="st0" points="868.8,714.9 807.4,750.4 775.3,731.8 836.7,696.4 		"/>
		<polygon class="st0" points="836.5,696.3 775.1,731.8 743,713.2 804.4,677.8 		"/>
		<polygon class="st0" points="804.2,677.7 742.8,713.1 710.7,694.6 772.1,659.1 		"/>
		<polygon class="st0" points="772,659 710.6,694.5 678.5,676 739.9,640.5 		"/>
		<polygon class="st0" points="739.5,640.3 678.1,675.8 646.1,657.2 707.5,621.8 		"/>
		<polygon class="st0" points="707.2,622 645.8,657.5 613.8,639 675.2,603.5 		"/>
		<polygon class="st0" points="674.9,603.4 613.5,638.8 581.5,620.3 642.9,584.9 		"/>
		<polygon class="st0" points="642.8,584.5 581.4,619.9 549.3,601.4 610.7,565.9 		"/>
		<polygon class="st0" points="775.1,731.8 807.4,750.4 807.3,799.1 775.1,780.5 		"/>
		<polygon class="st0" points="742.9,713.1 775.1,731.7 775.1,780.5 742.9,761.9 		"/>
		<polygon class="st0" points="710.7,694.3 743,712.9 742.9,761.6 710.7,743 		"/>
		<polygon class="st0" points="678.5,675.5 710.8,694.1 710.7,742.8 678.5,724.2 		"/>
		<polygon class="st0" points="646.1,657 678.3,675.6 678.3,724.4 646.1,705.8 		"/>
		<polygon class="st0" points="613.8,639.5 646,658.1 646,706.9 613.8,688.3 		"/>
		<polygon class="st0" points="581.5,620.6 613.7,639.2 613.7,688 581.5,669.4 		"/>
		<polygon class="st0" points="549.3,601.7 581.5,620.3 581.5,669 549.3,650.5 		"/>
	</g>
	<g>
		<polygon class="st0" points="802.9,753 802.9,801.7 741.4,837.1 741.4,788.4 741.5,788.4 		"/>
		<polygon class="st0" points="802.9,753 741.5,788.4 709.4,769.9 770.8,734.4 		"/>
		<polygon class="st0" points="770.6,734.4 709.2,769.8 677.1,751.3 738.5,715.8 		"/>
		<polygon class="st0" points="738.3,715.7 676.9,751.2 644.8,732.6 706.2,697.2 		"/>
		<polygon class="st0" points="706.1,697.1 644.7,732.5 612.6,714 674,678.6 		"/>
		<polygon class="st0" points="673.6,678.4 612.2,713.8 580.2,695.3 641.6,659.8 		"/>
		<polygon class="st0" points="641.3,660.1 579.9,695.5 547.9,677 609.3,641.6 		"/>
		<polygon class="st0" points="609,641.4 547.6,676.9 515.6,658.3 577,622.9 		"/>
		<polygon class="st0" points="576.9,622.5 515.5,657.9 483.4,639.4 544.8,604 		"/>
		<polygon class="st0" points="709.2,769.8 741.5,788.4 741.4,837.1 709.2,818.5 		"/>
		<polygon class="st0" points="677,751.2 709.2,769.8 709.2,818.5 677,799.9 		"/>
		<polygon class="st0" points="644.8,732.3 677.1,750.9 677,799.7 644.8,781.1 		"/>
		<polygon class="st0" points="612.6,713.5 644.9,732.1 644.8,780.8 612.6,762.3 		"/>
		<polygon class="st0" points="580.2,695.1 612.4,713.7 612.4,762.4 580.2,743.8 		"/>
		<polygon class="st0" points="547.9,677.6 580.1,696.2 580.1,744.9 547.9,726.3 		"/>
		<polygon class="st0" points="515.6,658.7 547.8,677.3 547.8,726 515.6,707.4 		"/>
		<polygon class="st0" points="483.4,639.7 515.6,658.3 515.6,707.1 483.4,688.5 		"/>
	</g>
	<g>
		<polygon class="st0" points="737,791 737,839.7 675.5,875.2 675.5,826.5 675.6,826.5 		"/>
		<polygon class="st0" points="737,791 675.6,826.5 643.5,807.9 704.9,772.5 		"/>
		<polygon class="st0" points="704.7,772.4 643.3,807.8 611.2,789.3 672.6,753.9 		"/>
		<polygon class="st0" points="672.4,753.8 611,789.2 578.9,770.7 640.3,735.2 		"/>
		<polygon class="st0" points="640.2,735.2 578.8,770.6 546.7,752.1 608.1,716.6 		"/>
		<polygon class="st0" points="607.7,716.4 546.3,751.8 514.3,733.3 575.7,697.9 		"/>
		<polygon class="st0" points="575.4,698.1 514,733.6 482,715 543.4,679.6 		"/>
		<polygon class="st0" points="543.1,679.5 481.7,714.9 449.7,696.4 511.1,661 		"/>
		<polygon class="st0" points="511,660.5 449.6,696 417.5,677.5 478.9,642 		"/>
		<polygon class="st0" points="643.3,807.8 675.6,826.5 675.5,875.2 643.3,856.6 		"/>
		<polygon class="st0" points="611.1,789.2 643.3,807.8 643.3,856.5 611.1,838 		"/>
		<polygon class="st0" points="578.9,770.4 611.2,789 611.1,837.7 578.9,819.1 		"/>
		<polygon class="st0" points="546.7,751.5 579,770.2 578.9,818.9 546.7,800.3 		"/>
		<polygon class="st0" points="514.3,733.1 546.5,751.7 546.4,800.5 514.3,781.9 		"/>
		<polygon class="st0" points="482,715.6 514.2,734.2 514.2,783 482,764.4 		"/>
		<polygon class="st0" points="449.7,696.7 481.9,715.3 481.9,764 449.7,745.5 		"/>
		<polygon class="st0" points="417.5,677.8 449.7,696.4 449.7,745.1 417.5,726.5 		"/>
	</g>
	<g>
		<polygon class="st0" points="671.1,829.1 671.1,877.8 609.6,913.2 609.6,864.5 609.7,864.5 		"/>
		<polygon class="st0" points="671.1,829.1 609.7,864.5 577.6,846 639,810.5 		"/>
		<polygon class="st0" points="638.8,810.5 577.4,845.9 545.3,827.4 606.7,791.9 		"/>
		<polygon class="st0" points="606.5,791.8 545.1,827.2 513,808.7 574.4,773.3 		"/>
		<polygon class="st0" points="574.3,773.2 512.9,808.6 480.8,790.1 542.2,754.7 		"/>
		<polygon class="st0" points="541.8,754.5 480.4,789.9 448.3,771.4 509.7,735.9 		"/>
		<polygon class="st0" points="509.5,736.2 448.1,771.6 416.1,753.1 477.5,717.7 		"/>
		<polygon class="st0" points="477.2,717.5 415.8,753 383.8,734.5 445.2,699 		"/>
		<polygon class="st0" points="445.1,698.6 383.7,734 351.6,715.5 413,680.1 		"/>
		<polygon class="st0" points="577.4,845.9 609.7,864.5 609.6,913.2 577.4,894.7 		"/>
		<polygon class="st0" points="545.2,827.2 577.4,845.8 577.4,894.6 545.2,876 		"/>
		<polygon class="st0" points="513,808.4 545.2,827 545.2,875.8 513,857.2 		"/>
		<polygon class="st0" points="480.8,789.6 513.1,808.2 513,856.9 480.8,838.3 		"/>
		<polygon class="st0" points="448.3,771.2 480.6,789.8 480.5,838.5 448.3,819.9 		"/>
		<polygon class="st0" points="416.1,753.7 448.3,772.3 448.3,821 416.1,802.4 		"/>
		<polygon class="st0" points="383.8,734.8 416,753.4 416,802.1 383.8,783.5 		"/>
		<polygon class="st0" points="351.6,715.8 383.8,734.4 383.8,783.2 351.6,764.6 		"/>
	</g>
	<g>
		<polygon class="st0" points="605.2,867.1 605.2,915.8 543.7,951.3 543.7,902.6 543.8,902.5 		"/>
		<polygon class="st0" points="605.2,867.1 543.8,902.5 511.7,884 573.1,848.6 		"/>
		<polygon class="st0" points="572.9,848.5 511.5,883.9 479.4,865.4 540.8,830 		"/>
		<polygon class="st0" points="540.6,829.8 479.2,865.3 447.1,846.8 508.5,811.3 		"/>
		<polygon class="st0" points="508.4,811.2 447,846.7 414.9,828.2 476.3,792.7 		"/>
		<polygon class="st0" points="475.9,792.5 414.5,827.9 382.4,809.4 443.8,774 		"/>
		<polygon class="st0" points="443.6,774.2 382.2,809.7 350.2,791.1 411.6,755.7 		"/>
		<polygon class="st0" points="411.3,755.6 349.9,791 317.9,772.5 379.3,737.1 		"/>
		<polygon class="st0" points="379.2,736.6 317.8,772.1 285.7,753.5 347.1,718.1 		"/>
		<polygon class="st0" points="511.5,883.9 543.8,902.5 543.7,951.3 511.5,932.7 		"/>
		<polygon class="st0" points="479.3,865.3 511.5,883.9 511.5,932.6 479.3,914 		"/>
		<polygon class="st0" points="447.1,846.5 479.3,865.1 479.3,913.8 447.1,895.2 		"/>
		<polygon class="st0" points="414.9,827.6 447.2,846.2 447.1,895 414.9,876.4 		"/>
		<polygon class="st0" points="382.4,809.2 414.7,827.8 414.6,876.6 382.4,858 		"/>
		<polygon class="st0" points="350.2,791.7 382.4,810.3 382.4,859.1 350.2,840.5 		"/>
		<polygon class="st0" points="317.9,772.8 350.1,791.4 350,840.2 317.9,821.6 		"/>
		<polygon class="st0" points="285.7,753.9 317.9,772.5 317.9,821.2 285.7,802.6 		"/>
	</g>
</g>
<g>
	<g>
		<polygon class="st0" points="868.8,665.5 868.8,714.2 807.3,749.7 807.3,701 807.4,700.9 		"/>
		<polygon class="st0" points="868.8,665.5 807.4,700.9 775.3,682.4 836.7,647 		"/>
		<polygon class="st0" points="836.5,646.9 775.1,682.3 743,663.8 804.4,628.3 		"/>
		<polygon class="st0" points="804.2,628.2 742.8,663.7 710.7,645.1 772.1,609.7 		"/>
		<polygon class="st0" points="772,609.6 710.6,645.1 678.5,626.5 739.9,591.1 		"/>
		<polygon class="st0" points="739.5,590.9 678.1,626.3 646.1,607.8 707.5,572.4 		"/>
		<polygon class="st0" points="707.2,572.6 645.8,608.1 613.8,589.5 675.2,554.1 		"/>
		<polygon class="st0" points="674.9,554 613.5,589.4 581.5,570.9 642.9,535.4 		"/>
		<polygon class="st0" points="642.8,535 581.4,570.5 549.3,551.9 610.7,516.5 		"/>
		<polygon class="st0" points="775.1,682.3 807.4,700.9 807.3,749.7 775.1,731.1 		"/>
		<polygon class="st0" points="742.9,663.7 775.1,682.3 775.1,731 742.9,712.4 		"/>
		<polygon class="st0" points="710.7,644.8 743,663.5 742.9,712.2 710.7,693.6 		"/>
		<polygon class="st0" points="678.5,626 710.8,644.6 710.7,693.4 678.5,674.8 		"/>
		<polygon class="st0" points="646.1,607.6 678.3,626.2 678.3,674.9 646.1,656.3 		"/>
		<polygon class="st0" points="613.8,590.1 646,608.7 646,657.5 613.8,638.9 		"/>
		<polygon class="st0" points="581.5,571.2 613.7,589.8 613.7,638.5 581.5,619.9 		"/>
		<polygon class="st0" points="549.3,552.3 581.5,570.9 581.5,619.6 549.3,601 		"/>
	</g>
	<g>
		<polygon class="st0" points="802.9,703.5 802.9,752.3 741.4,787.7 741.4,739 741.5,739 		"/>
		<polygon class="st0" points="802.9,703.5 741.5,739 709.4,720.5 770.8,685 		"/>
		<polygon class="st0" points="770.6,684.9 709.2,720.4 677.1,701.8 738.5,666.4 		"/>
		<polygon class="st0" points="738.3,666.3 676.9,701.7 644.8,683.2 706.2,647.8 		"/>
		<polygon class="st0" points="706.1,647.7 644.7,683.1 612.6,664.6 674,629.2 		"/>
		<polygon class="st0" points="673.6,628.9 612.2,664.4 580.2,645.8 641.6,610.4 		"/>
		<polygon class="st0" points="641.3,610.7 579.9,646.1 547.9,627.6 609.3,592.1 		"/>
		<polygon class="st0" points="609,592 547.6,627.5 515.6,608.9 577,573.5 		"/>
		<polygon class="st0" points="576.9,573.1 515.5,608.5 483.4,590 544.8,554.5 		"/>
		<polygon class="st0" points="709.2,720.4 741.5,739 741.4,787.7 709.2,769.1 		"/>
		<polygon class="st0" points="677,701.7 709.2,720.3 709.2,769.1 677,750.5 		"/>
		<polygon class="st0" points="644.8,682.9 677.1,701.5 677,750.2 644.8,731.7 		"/>
		<polygon class="st0" points="612.6,664.1 644.9,682.7 644.8,731.4 612.6,712.8 		"/>
		<polygon class="st0" points="580.2,645.6 612.4,664.2 612.4,713 580.2,694.4 		"/>
		<polygon class="st0" points="547.9,628.2 580.1,646.8 580.1,695.5 547.9,676.9 		"/>
		<polygon class="st0" points="515.6,609.2 547.8,627.8 547.8,676.6 515.6,658 		"/>
		<polygon class="st0" points="483.4,590.3 515.6,608.9 515.6,657.7 483.4,639.1 		"/>
	</g>
	<g>
		<polygon class="st0" points="737,741.6 737,790.3 675.5,825.8 675.5,777 675.6,777 		"/>
		<polygon class="st0" points="737,741.6 675.6,777 643.5,758.5 704.9,723.1 		"/>
		<polygon class="st0" points="704.7,723 643.3,758.4 611.2,739.9 672.6,704.5 		"/>
		<polygon class="st0" points="672.4,704.3 611,739.8 578.9,721.2 640.3,685.8 		"/>
		<polygon class="st0" points="640.2,685.7 578.8,721.2 546.7,702.6 608.1,667.2 		"/>
		<polygon class="st0" points="607.7,667 546.3,702.4 514.3,683.9 575.7,648.5 		"/>
		<polygon class="st0" points="575.4,648.7 514,684.2 482,665.6 543.4,630.2 		"/>
		<polygon class="st0" points="543.1,630.1 481.7,665.5 449.7,647 511.1,611.5 		"/>
		<polygon class="st0" points="511,611.1 449.6,646.6 417.5,628 478.9,592.6 		"/>
		<polygon class="st0" points="643.3,758.4 675.6,777 675.5,825.8 643.3,807.2 		"/>
		<polygon class="st0" points="611.1,739.8 643.3,758.4 643.3,807.1 611.1,788.5 		"/>
		<polygon class="st0" points="578.9,721 611.2,739.5 611.1,788.3 578.9,769.7 		"/>
		<polygon class="st0" points="546.7,702.1 579,720.7 578.9,769.5 546.7,750.9 		"/>
		<polygon class="st0" points="514.3,683.7 546.5,702.3 546.4,751 514.3,732.5 		"/>
		<polygon class="st0" points="482,666.2 514.2,684.8 514.2,733.5 482,715 		"/>
		<polygon class="st0" points="449.7,647.3 481.9,665.9 481.9,714.6 449.7,696 		"/>
		<polygon class="st0" points="417.5,628.4 449.7,647 449.7,695.7 417.5,677.1 		"/>
	</g>
	<g>
		<polygon class="st0" points="671.1,779.6 671.1,828.3 609.6,863.8 609.6,815.1 609.7,815.1 		"/>
		<polygon class="st0" points="671.1,779.6 609.7,815.1 577.6,796.5 639,761.1 		"/>
		<polygon class="st0" points="638.8,761 577.4,796.5 545.3,777.9 606.7,742.5 		"/>
		<polygon class="st0" points="606.5,742.4 545.1,777.8 513,759.3 574.4,723.8 		"/>
		<polygon class="st0" points="574.3,723.8 512.9,759.2 480.8,740.7 542.2,705.2 		"/>
		<polygon class="st0" points="541.8,705 480.4,740.5 448.3,721.9 509.7,686.5 		"/>
		<polygon class="st0" points="509.5,686.8 448.1,722.2 416.1,703.7 477.5,668.2 		"/>
		<polygon class="st0" points="477.2,668.1 415.8,703.5 383.8,685 445.2,649.6 		"/>
		<polygon class="st0" points="445.1,649.2 383.7,684.6 351.6,666.1 413,630.6 		"/>
		<polygon class="st0" points="577.4,796.5 609.7,815.1 609.6,863.8 577.4,845.2 		"/>
		<polygon class="st0" points="545.2,777.8 577.4,796.4 577.4,845.2 545.2,826.6 		"/>
		<polygon class="st0" points="513,759 545.2,777.6 545.2,826.3 513,807.8 		"/>
		<polygon class="st0" points="480.8,740.2 513.1,758.8 513,807.5 480.8,788.9 		"/>
		<polygon class="st0" points="448.3,721.7 480.6,740.3 480.5,789.1 448.3,770.5 		"/>
		<polygon class="st0" points="416.1,704.2 448.3,722.8 448.3,771.6 416.1,753 		"/>
		<polygon class="st0" points="383.8,685.3 416,703.9 416,752.7 383.8,734.1 		"/>
		<polygon class="st0" points="351.6,666.4 383.8,685 383.8,733.8 351.6,715.2 		"/>
	</g>
	<g>
		<polygon class="st0" points="605.2,817.7 605.2,866.4 543.7,901.9 543.7,853.1 543.8,853.1 		"/>
		<polygon class="st0" points="605.2,817.7 543.8,853.1 511.7,834.6 573.1,799.2 		"/>
		<polygon class="st0" points="572.9,799.1 511.5,834.5 479.4,816 540.8,780.5 		"/>
		<polygon class="st0" points="540.6,780.4 479.2,815.9 447.1,797.3 508.5,761.9 		"/>
		<polygon class="st0" points="508.4,761.8 447,797.3 414.9,778.7 476.3,743.3 		"/>
		<polygon class="st0" points="475.9,743.1 414.5,778.5 382.4,760 443.8,724.5 		"/>
		<polygon class="st0" points="443.6,724.8 382.2,760.2 350.2,741.7 411.6,706.3 		"/>
		<polygon class="st0" points="411.3,706.2 349.9,741.6 317.9,723.1 379.3,687.6 		"/>
		<polygon class="st0" points="379.2,687.2 317.8,722.7 285.7,704.1 347.1,668.7 		"/>
		<polygon class="st0" points="511.5,834.5 543.8,853.1 543.7,901.9 511.5,883.3 		"/>
		<polygon class="st0" points="479.3,815.9 511.5,834.5 511.5,883.2 479.3,864.6 		"/>
		<polygon class="st0" points="447.1,797 479.3,815.7 479.3,864.4 447.1,845.8 		"/>
		<polygon class="st0" points="414.9,778.2 447.2,796.8 447.1,845.6 414.9,827 		"/>
		<polygon class="st0" points="382.4,759.8 414.7,778.4 414.6,827.1 382.4,808.5 		"/>
		<polygon class="st0" points="350.2,742.3 382.4,760.9 382.4,809.6 350.2,791 		"/>
		<polygon class="st0" points="317.9,723.4 350.1,742 350,790.7 317.9,772.1 		"/>
		<polygon class="st0" points="285.7,704.5 317.9,723.1 317.9,771.8 285.7,753.2 		"/>
	</g>
</g>
<g>
	<g>
		<polygon class="st0" points="868.8,616.1 868.8,664.8 807.3,700.2 807.3,651.5 807.4,651.5 		"/>
		<polygon class="st0" points="868.8,616.1 807.4,651.5 775.3,633 836.7,597.5 		"/>
		<polygon class="st0" points="836.5,597.5 775.1,632.9 743,614.4 804.4,578.9 		"/>
		<polygon class="st0" points="804.2,578.8 742.8,614.2 710.7,595.7 772.1,560.3 		"/>
		<polygon class="st0" points="772,560.2 710.6,595.6 678.5,577.1 739.9,541.7 		"/>
		<polygon class="st0" points="739.5,541.5 678.1,576.9 646.1,558.4 707.5,522.9 		"/>
		<polygon class="st0" points="707.2,523.2 645.8,558.6 613.8,540.1 675.2,504.7 		"/>
		<polygon class="st0" points="674.9,504.5 613.5,540 581.5,521.5 642.9,486 		"/>
		<polygon class="st0" points="642.8,485.6 581.4,521 549.3,502.5 610.7,467.1 		"/>
		<polygon class="st0" points="775.1,632.9 807.4,651.5 807.3,700.2 775.1,681.7 		"/>
		<polygon class="st0" points="742.9,614.2 775.1,632.9 775.1,681.6 742.9,663 		"/>
		<polygon class="st0" points="710.7,595.4 743,614 742.9,662.8 710.7,644.2 		"/>
		<polygon class="st0" points="678.5,576.6 710.8,595.2 710.7,644 678.5,625.4 		"/>
		<polygon class="st0" points="646.1,558.2 678.3,576.8 678.3,625.5 646.1,606.9 		"/>
		<polygon class="st0" points="613.8,540.7 646,559.3 646,608 613.8,589.4 		"/>
		<polygon class="st0" points="581.5,521.8 613.7,540.4 613.7,589.1 581.5,570.5 		"/>
		<polygon class="st0" points="549.3,502.8 581.5,521.5 581.5,570.2 549.3,551.6 		"/>
	</g>
	<g>
		<polygon class="st0" points="802.9,654.1 802.9,702.8 741.4,738.3 741.4,689.6 741.5,689.5 		"/>
		<polygon class="st0" points="802.9,654.1 741.5,689.5 709.4,671 770.8,635.6 		"/>
		<polygon class="st0" points="770.6,635.5 709.2,671 677.1,652.4 738.5,617 		"/>
		<polygon class="st0" points="738.3,616.9 676.9,652.3 644.8,633.8 706.2,598.3 		"/>
		<polygon class="st0" points="706.1,598.2 644.7,633.7 612.6,615.2 674,579.7 		"/>
		<polygon class="st0" points="673.6,579.5 612.2,615 580.2,596.4 641.6,561 		"/>
		<polygon class="st0" points="641.3,561.2 579.9,596.7 547.9,578.2 609.3,542.7 		"/>
		<polygon class="st0" points="609,542.6 547.6,578 515.6,559.5 577,524.1 		"/>
		<polygon class="st0" points="576.9,523.7 515.5,559.1 483.4,540.6 544.8,505.1 		"/>
		<polygon class="st0" points="709.2,671 741.5,689.5 741.4,738.3 709.2,719.7 		"/>
		<polygon class="st0" points="677,652.3 709.2,670.9 709.2,719.6 677,701 		"/>
		<polygon class="st0" points="644.8,633.5 677.1,652.1 677,700.8 644.8,682.2 		"/>
		<polygon class="st0" points="612.6,614.7 644.9,633.2 644.8,682 612.6,663.4 		"/>
		<polygon class="st0" points="580.2,596.2 612.4,614.8 612.4,663.6 580.2,645 		"/>
		<polygon class="st0" points="547.9,578.7 580.1,597.3 580.1,646.1 547.9,627.5 		"/>
		<polygon class="st0" points="515.6,559.8 547.8,578.4 547.8,627.2 515.6,608.6 		"/>
		<polygon class="st0" points="483.4,540.9 515.6,559.5 515.6,608.2 483.4,589.6 		"/>
	</g>
	<g>
		<polygon class="st0" points="737,692.2 737,740.9 675.5,776.3 675.5,727.6 675.6,727.6 		"/>
		<polygon class="st0" points="737,692.2 675.6,727.6 643.5,709.1 704.9,673.6 		"/>
		<polygon class="st0" points="704.7,673.5 643.3,709 611.2,690.5 672.6,655 		"/>
		<polygon class="st0" points="672.4,654.9 611,690.3 578.9,671.8 640.3,636.4 		"/>
		<polygon class="st0" points="640.2,636.3 578.8,671.7 546.7,653.2 608.1,617.8 		"/>
		<polygon class="st0" points="607.7,617.6 546.3,653 514.3,634.5 575.7,599 		"/>
		<polygon class="st0" points="575.4,599.3 514,634.7 482,616.2 543.4,580.8 		"/>
		<polygon class="st0" points="543.1,580.6 481.7,616.1 449.7,597.5 511.1,562.1 		"/>
		<polygon class="st0" points="511,561.7 449.6,597.1 417.5,578.6 478.9,543.2 		"/>
		<polygon class="st0" points="643.3,709 675.6,727.6 675.5,776.3 643.3,757.8 		"/>
		<polygon class="st0" points="611.1,690.3 643.3,709 643.3,757.7 611.1,739.1 		"/>
		<polygon class="st0" points="578.9,671.5 611.2,690.1 611.1,738.9 578.9,720.3 		"/>
		<polygon class="st0" points="546.7,652.7 579,671.3 578.9,720 546.7,701.5 		"/>
		<polygon class="st0" points="514.3,634.3 546.5,652.9 546.4,701.6 514.3,683 		"/>
		<polygon class="st0" points="482,616.8 514.2,635.4 514.2,684.1 482,665.5 		"/>
		<polygon class="st0" points="449.7,597.9 481.9,616.5 481.9,665.2 449.7,646.6 		"/>
		<polygon class="st0" points="417.5,578.9 449.7,597.5 449.7,646.3 417.5,627.7 		"/>
	</g>
	<g>
		<polygon class="st0" points="671.1,730.2 671.1,778.9 609.6,814.4 609.6,765.7 609.7,765.7 		"/>
		<polygon class="st0" points="671.1,730.2 609.7,765.7 577.6,747.1 639,711.7 		"/>
		<polygon class="st0" points="638.8,711.6 577.4,747 545.3,728.5 606.7,693.1 		"/>
		<polygon class="st0" points="606.5,693 545.1,728.4 513,709.9 574.4,674.4 		"/>
		<polygon class="st0" points="574.3,674.3 512.9,709.8 480.8,691.2 542.2,655.8 		"/>
		<polygon class="st0" points="541.8,655.6 480.4,691 448.3,672.5 509.7,637.1 		"/>
		<polygon class="st0" points="509.5,637.3 448.1,672.8 416.1,654.2 477.5,618.8 		"/>
		<polygon class="st0" points="477.2,618.7 415.8,654.1 383.8,635.6 445.2,600.2 		"/>
		<polygon class="st0" points="445.1,599.7 383.7,635.2 351.6,616.7 413,581.2 		"/>
		<polygon class="st0" points="577.4,747 609.7,765.7 609.6,814.4 577.4,795.8 		"/>
		<polygon class="st0" points="545.2,728.4 577.4,747 577.4,795.7 545.2,777.2 		"/>
		<polygon class="st0" points="513,709.6 545.2,728.2 545.2,776.9 513,758.3 		"/>
		<polygon class="st0" points="480.8,690.7 513.1,709.3 513,758.1 480.8,739.5 		"/>
		<polygon class="st0" points="448.3,672.3 480.6,690.9 480.5,739.7 448.3,721.1 		"/>
		<polygon class="st0" points="416.1,654.8 448.3,673.4 448.3,722.2 416.1,703.6 		"/>
		<polygon class="st0" points="383.8,635.9 416,654.5 416,703.2 383.8,684.7 		"/>
		<polygon class="st0" points="351.6,617 383.8,635.6 383.8,684.3 351.6,665.7 		"/>
	</g>
	<g>
		<polygon class="st0" points="605.2,768.2 605.2,817 543.7,852.4 543.7,803.7 543.8,803.7 		"/>
		<polygon class="st0" points="605.2,768.2 543.8,803.7 511.7,785.2 573.1,749.7 		"/>
		<polygon class="st0" points="572.9,749.7 511.5,785.1 479.4,766.6 540.8,731.1 		"/>
		<polygon class="st0" points="540.6,731 479.2,766.4 447.1,747.9 508.5,712.5 		"/>
		<polygon class="st0" points="508.4,712.4 447,747.8 414.9,729.3 476.3,693.9 		"/>
		<polygon class="st0" points="475.9,693.7 414.5,729.1 382.4,710.6 443.8,675.1 		"/>
		<polygon class="st0" points="443.6,675.4 382.2,710.8 350.2,692.3 411.6,656.8 		"/>
		<polygon class="st0" points="411.3,656.7 349.9,692.2 317.9,673.7 379.3,638.2 		"/>
		<polygon class="st0" points="379.2,637.8 317.8,673.2 285.7,654.7 347.1,619.3 		"/>
		<polygon class="st0" points="511.5,785.1 543.8,803.7 543.7,852.4 511.5,833.8 		"/>
		<polygon class="st0" points="479.3,766.4 511.5,785 511.5,833.8 479.3,815.2 		"/>
		<polygon class="st0" points="447.1,747.6 479.3,766.2 479.3,815 447.1,796.4 		"/>
		<polygon class="st0" points="414.9,728.8 447.2,747.4 447.1,796.1 414.9,777.5 		"/>
		<polygon class="st0" points="382.4,710.4 414.7,729 414.6,777.7 382.4,759.1 		"/>
		<polygon class="st0" points="350.2,692.9 382.4,711.5 382.4,760.2 350.2,741.6 		"/>
		<polygon class="st0" points="317.9,674 350.1,692.6 350,741.3 317.9,722.7 		"/>
		<polygon class="st0" points="285.7,655 317.9,673.6 317.9,722.4 285.7,703.8 		"/>
	</g>
</g>
<g>
	<g>
		<polygon class="st0" points="868.8,566.6 868.8,615.4 807.3,650.8 807.3,602.1 807.4,602.1 		"/>
		<polygon class="st0" points="868.8,566.6 807.4,602.1 775.3,583.5 836.7,548.1 		"/>
		<polygon class="st0" points="836.5,548 775.1,583.5 743,564.9 804.4,529.5 		"/>
		<polygon class="st0" points="804.2,529.4 742.8,564.8 710.7,546.3 772.1,510.9 		"/>
		<polygon class="st0" points="772,510.8 710.6,546.2 678.5,527.7 739.9,492.2 		"/>
		<polygon class="st0" points="739.5,492 678.1,527.5 646.1,509 707.5,473.5 		"/>
		<polygon class="st0" points="707.2,473.8 645.8,509.2 613.8,490.7 675.2,455.2 		"/>
		<polygon class="st0" points="674.9,455.1 613.5,490.6 581.5,472 642.9,436.6 		"/>
		<polygon class="st0" points="642.8,436.2 581.4,471.6 549.3,453.1 610.7,417.6 		"/>
		<polygon class="st0" points="775.1,583.5 807.4,602.1 807.3,650.8 775.1,632.2 		"/>
		<polygon class="st0" points="742.9,564.8 775.1,583.4 775.1,632.2 742.9,613.6 		"/>
		<polygon class="st0" points="710.7,546 743,564.6 742.9,613.3 710.7,594.8 		"/>
		<polygon class="st0" points="678.5,527.2 710.8,545.8 710.7,594.5 678.5,575.9 		"/>
		<polygon class="st0" points="646.1,508.7 678.3,527.3 678.3,576.1 646.1,557.5 		"/>
		<polygon class="st0" points="613.8,491.3 646,509.9 646,558.6 613.8,540 		"/>
		<polygon class="st0" points="581.5,472.3 613.7,490.9 613.7,539.7 581.5,521.1 		"/>
		<polygon class="st0" points="549.3,453.4 581.5,472 581.5,520.8 549.3,502.2 		"/>
	</g>
	<g>
		<polygon class="st0" points="802.9,604.7 802.9,653.4 741.4,688.9 741.4,640.2 741.5,640.1 		"/>
		<polygon class="st0" points="802.9,604.7 741.5,640.1 709.4,621.6 770.8,586.2 		"/>
		<polygon class="st0" points="770.6,586.1 709.2,621.5 677.1,603 738.5,567.5 		"/>
		<polygon class="st0" points="738.3,567.4 676.9,602.9 644.8,584.3 706.2,548.9 		"/>
		<polygon class="st0" points="706.1,548.8 644.7,584.3 612.6,565.7 674,530.3 		"/>
		<polygon class="st0" points="673.6,530.1 612.2,565.5 580.2,547 641.6,511.5 		"/>
		<polygon class="st0" points="641.3,511.8 579.9,547.3 547.9,528.7 609.3,493.3 		"/>
		<polygon class="st0" points="609,493.2 547.6,528.6 515.6,510.1 577,474.6 		"/>
		<polygon class="st0" points="576.9,474.2 515.5,509.7 483.4,491.1 544.8,455.7 		"/>
		<polygon class="st0" points="709.2,621.5 741.5,640.1 741.4,688.9 709.2,670.3 		"/>
		<polygon class="st0" points="677,602.9 709.2,621.5 709.2,670.2 677,651.6 		"/>
		<polygon class="st0" points="644.8,584 677.1,602.7 677,651.4 644.8,632.8 		"/>
		<polygon class="st0" points="612.6,565.2 644.9,583.8 644.8,632.6 612.6,614 		"/>
		<polygon class="st0" points="580.2,546.8 612.4,565.4 612.4,614.1 580.2,595.5 		"/>
		<polygon class="st0" points="547.9,529.3 580.1,547.9 580.1,596.7 547.9,578.1 		"/>
		<polygon class="st0" points="515.6,510.4 547.8,529 547.8,577.7 515.6,559.1 		"/>
		<polygon class="st0" points="483.4,491.5 515.6,510.1 515.6,558.8 483.4,540.2 		"/>
	</g>
	<g>
		<polygon class="st0" points="737,642.7 737,691.5 675.5,726.9 675.5,678.2 675.6,678.2 		"/>
		<polygon class="st0" points="737,642.7 675.6,678.2 643.5,659.6 704.9,624.2 		"/>
		<polygon class="st0" points="704.7,624.1 643.3,659.6 611.2,641 672.6,605.6 		"/>
		<polygon class="st0" points="672.4,605.5 611,640.9 578.9,622.4 640.3,587 		"/>
		<polygon class="st0" points="640.2,586.9 578.8,622.3 546.7,603.8 608.1,568.3 		"/>
		<polygon class="st0" points="607.7,568.1 546.3,603.6 514.3,585 575.7,549.6 		"/>
		<polygon class="st0" points="575.4,549.9 514,585.3 482,566.8 543.4,531.3 		"/>
		<polygon class="st0" points="543.1,531.2 481.7,566.7 449.7,548.1 511.1,512.7 		"/>
		<polygon class="st0" points="511,512.3 449.6,547.7 417.5,529.2 478.9,493.7 		"/>
		<polygon class="st0" points="643.3,659.6 675.6,678.2 675.5,726.9 643.3,708.3 		"/>
		<polygon class="st0" points="611.1,640.9 643.3,659.5 643.3,708.3 611.1,689.7 		"/>
		<polygon class="st0" points="578.9,622.1 611.2,640.7 611.1,689.4 578.9,670.8 		"/>
		<polygon class="st0" points="546.7,603.3 579,621.9 578.9,670.6 546.7,652 		"/>
		<polygon class="st0" points="514.3,584.8 546.5,603.5 546.4,652.2 514.3,633.6 		"/>
		<polygon class="st0" points="482,567.3 514.2,586 514.2,634.7 482,616.1 		"/>
		<polygon class="st0" points="449.7,548.4 481.9,567 481.9,615.8 449.7,597.2 		"/>
		<polygon class="st0" points="417.5,529.5 449.7,548.1 449.7,596.9 417.5,578.3 		"/>
	</g>
	<g>
		<polygon class="st0" points="671.1,680.8 671.1,729.5 609.6,765 609.6,716.2 609.7,716.2 		"/>
		<polygon class="st0" points="671.1,680.8 609.7,716.2 577.6,697.7 639,662.2 		"/>
		<polygon class="st0" points="638.8,662.2 577.4,697.6 545.3,679.1 606.7,643.7 		"/>
		<polygon class="st0" points="606.5,643.5 545.1,679 513,660.4 574.4,625 		"/>
		<polygon class="st0" points="574.3,624.9 512.9,660.4 480.8,641.8 542.2,606.4 		"/>
		<polygon class="st0" points="541.8,606.2 480.4,641.6 448.3,623.1 509.7,587.7 		"/>
		<polygon class="st0" points="509.5,587.9 448.1,623.3 416.1,604.8 477.5,569.4 		"/>
		<polygon class="st0" points="477.2,569.3 415.8,604.7 383.8,586.2 445.2,550.7 		"/>
		<polygon class="st0" points="445.1,550.3 383.7,585.8 351.6,567.2 413,531.8 		"/>
		<polygon class="st0" points="577.4,697.6 609.7,716.2 609.6,765 577.4,746.4 		"/>
		<polygon class="st0" points="545.2,679 577.4,697.6 577.4,746.3 545.2,727.7 		"/>
		<polygon class="st0" points="513,660.1 545.2,678.8 545.2,727.5 513,708.9 		"/>
		<polygon class="st0" points="480.8,641.3 513.1,659.9 513,708.7 480.8,690.1 		"/>
		<polygon class="st0" points="448.3,622.9 480.6,641.5 480.5,690.2 448.3,671.6 		"/>
		<polygon class="st0" points="416.1,605.4 448.3,624 448.3,672.7 416.1,654.2 		"/>
		<polygon class="st0" points="383.8,586.5 416,605.1 416,653.8 383.8,635.2 		"/>
		<polygon class="st0" points="351.6,567.6 383.8,586.2 383.8,634.9 351.6,616.3 		"/>
	</g>
	<g>
		<polygon class="st0" points="605.2,718.8 605.2,767.5 543.7,803 543.7,754.3 543.8,754.3 		"/>
		<polygon class="st0" points="605.2,718.8 543.8,754.3 511.7,735.7 573.1,700.3 		"/>
		<polygon class="st0" points="572.9,700.2 511.5,735.7 479.4,717.1 540.8,681.7 		"/>
		<polygon class="st0" points="540.6,681.6 479.2,717 447.1,698.5 508.5,663 		"/>
		<polygon class="st0" points="508.4,663 447,698.4 414.9,679.9 476.3,644.4 		"/>
		<polygon class="st0" points="475.9,644.2 414.5,679.7 382.4,661.1 443.8,625.7 		"/>
		<polygon class="st0" points="443.6,626 382.2,661.4 350.2,642.9 411.6,607.4 		"/>
		<polygon class="st0" points="411.3,607.3 349.9,642.8 317.9,624.2 379.3,588.8 		"/>
		<polygon class="st0" points="379.2,588.4 317.8,623.8 285.7,605.3 347.1,569.8 		"/>
		<polygon class="st0" points="511.5,735.7 543.8,754.3 543.7,803 511.5,784.4 		"/>
		<polygon class="st0" points="479.3,717 511.5,735.6 511.5,784.4 479.3,765.8 		"/>
		<polygon class="st0" points="447.1,698.2 479.3,716.8 479.3,765.5 447.1,747 		"/>
		<polygon class="st0" points="414.9,679.4 447.2,698 447.1,746.7 414.9,728.1 		"/>
		<polygon class="st0" points="382.4,660.9 414.7,679.5 414.6,728.3 382.4,709.7 		"/>
		<polygon class="st0" points="350.2,643.5 382.4,662 382.4,710.8 350.2,692.2 		"/>
		<polygon class="st0" points="317.9,624.5 350.1,643.1 350,691.9 317.9,673.3 		"/>
		<polygon class="st0" points="285.7,605.6 317.9,624.2 317.9,673 285.7,654.4 		"/>
	</g>
</g>
<g>
	<g>
		<polygon class="st0" points="868.8,517.2 868.8,565.9 807.3,601.4 807.3,552.7 807.4,552.7 		"/>
		<polygon class="st0" points="868.8,517.2 807.4,552.7 775.3,534.1 836.7,498.7 		"/>
		<polygon class="st0" points="836.5,498.6 775.1,534 743,515.5 804.4,480.1 		"/>
		<polygon class="st0" points="804.2,480 742.8,515.4 710.7,496.9 772.1,461.4 		"/>
		<polygon class="st0" points="772,461.4 710.6,496.8 678.5,478.3 739.9,442.8 		"/>
		<polygon class="st0" points="739.5,442.6 678.1,478 646.1,459.5 707.5,424.1 		"/>
		<polygon class="st0" points="707.2,424.3 645.8,459.8 613.8,441.2 675.2,405.8 		"/>
		<polygon class="st0" points="674.9,405.7 613.5,441.1 581.5,422.6 642.9,387.2 		"/>
		<polygon class="st0" points="642.8,386.8 581.4,422.2 549.3,403.7 610.7,368.2 		"/>
		<polygon class="st0" points="775.1,534 807.4,552.7 807.3,601.4 775.1,582.8 		"/>
		<polygon class="st0" points="742.9,515.4 775.1,534 775.1,582.8 742.9,564.2 		"/>
		<polygon class="st0" points="710.7,496.6 743,515.2 742.9,563.9 710.7,545.3 		"/>
		<polygon class="st0" points="678.5,477.8 710.8,496.4 710.7,545.1 678.5,526.5 		"/>
		<polygon class="st0" points="646.1,459.3 678.3,477.9 678.3,526.7 646.1,508.1 		"/>
		<polygon class="st0" points="613.8,441.8 646,460.4 646,509.2 613.8,490.6 		"/>
		<polygon class="st0" points="581.5,422.9 613.7,441.5 613.7,490.3 581.5,471.7 		"/>
		<polygon class="st0" points="549.3,404 581.5,422.6 581.5,471.3 549.3,452.8 		"/>
	</g>
	<g>
		<polygon class="st0" points="802.9,555.3 802.9,604 741.4,639.4 741.4,590.7 741.5,590.7 		"/>
		<polygon class="st0" points="802.9,555.3 741.5,590.7 709.4,572.2 770.8,536.7 		"/>
		<polygon class="st0" points="770.6,536.7 709.2,572.1 677.1,553.6 738.5,518.1 		"/>
		<polygon class="st0" points="738.3,518 676.9,553.5 644.8,534.9 706.2,499.5 		"/>
		<polygon class="st0" points="706.1,499.4 644.7,534.8 612.6,516.3 674,480.9 		"/>
		<polygon class="st0" points="673.6,480.7 612.2,516.1 580.2,497.6 641.6,462.1 		"/>
		<polygon class="st0" points="641.3,462.4 579.9,497.8 547.9,479.3 609.3,443.9 		"/>
		<polygon class="st0" points="609,443.7 547.6,479.2 515.6,460.6 577,425.2 		"/>
		<polygon class="st0" points="576.9,424.8 515.5,460.2 483.4,441.7 544.8,406.3 		"/>
		<polygon class="st0" points="709.2,572.1 741.5,590.7 741.4,639.4 709.2,620.8 		"/>
		<polygon class="st0" points="677,553.5 709.2,572 709.2,620.8 677,602.2 		"/>
		<polygon class="st0" points="644.8,534.6 677.1,553.2 677,602 644.8,583.4 		"/>
		<polygon class="st0" points="612.6,515.8 644.9,534.4 644.8,583.1 612.6,564.5 		"/>
		<polygon class="st0" points="580.2,497.4 612.4,516 612.4,564.7 580.2,546.1 		"/>
		<polygon class="st0" points="547.9,479.9 580.1,498.5 580.1,547.2 547.9,528.6 		"/>
		<polygon class="st0" points="515.6,461 547.8,479.6 547.8,528.3 515.6,509.7 		"/>
		<polygon class="st0" points="483.4,442 515.6,460.6 515.6,509.4 483.4,490.8 		"/>
	</g>
	<g>
		<polygon class="st0" points="737,593.3 737,642 675.5,677.5 675.5,628.8 675.6,628.8 		"/>
		<polygon class="st0" points="737,593.3 675.6,628.8 643.5,610.2 704.9,574.8 		"/>
		<polygon class="st0" points="704.7,574.7 643.3,610.1 611.2,591.6 672.6,556.2 		"/>
		<polygon class="st0" points="672.4,556 611,591.5 578.9,573 640.3,537.5 		"/>
		<polygon class="st0" points="640.2,537.5 578.8,572.9 546.7,554.4 608.1,518.9 		"/>
		<polygon class="st0" points="607.7,518.7 546.3,554.2 514.3,535.6 575.7,500.2 		"/>
		<polygon class="st0" points="575.4,500.4 514,535.9 482,517.3 543.4,481.9 		"/>
		<polygon class="st0" points="543.1,481.8 481.7,517.2 449.7,498.7 511.1,463.3 		"/>
		<polygon class="st0" points="511,462.8 449.6,498.3 417.5,479.8 478.9,444.3 		"/>
		<polygon class="st0" points="643.3,610.1 675.6,628.8 675.5,677.5 643.3,658.9 		"/>
		<polygon class="st0" points="611.1,591.5 643.3,610.1 643.3,658.8 611.1,640.2 		"/>
		<polygon class="st0" points="578.9,572.7 611.2,591.3 611.1,640 578.9,621.4 		"/>
		<polygon class="st0" points="546.7,553.8 579,572.5 578.9,621.2 546.7,602.6 		"/>
		<polygon class="st0" points="514.3,535.4 546.5,554 546.4,602.8 514.3,584.2 		"/>
		<polygon class="st0" points="482,517.9 514.2,536.5 514.2,585.3 482,566.7 		"/>
		<polygon class="st0" points="449.7,499 481.9,517.6 481.9,566.3 449.7,547.8 		"/>
		<polygon class="st0" points="417.5,480.1 449.7,498.7 449.7,547.4 417.5,528.8 		"/>
	</g>
	<g>
		<polygon class="st0" points="671.1,631.4 671.1,680.1 609.6,715.5 609.6,666.8 609.7,666.8 		"/>
		<polygon class="st0" points="671.1,631.4 609.7,666.8 577.6,648.3 639,612.8 		"/>
		<polygon class="st0" points="638.8,612.8 577.4,648.2 545.3,629.7 606.7,594.2 		"/>
		<polygon class="st0" points="606.5,594.1 545.1,629.5 513,611 574.4,575.6 		"/>
		<polygon class="st0" points="574.3,575.5 512.9,610.9 480.8,592.4 542.2,557 		"/>
		<polygon class="st0" points="541.8,556.8 480.4,592.2 448.3,573.7 509.7,538.2 		"/>
		<polygon class="st0" points="509.5,538.5 448.1,573.9 416.1,555.4 477.5,520 		"/>
		<polygon class="st0" points="477.2,519.8 415.8,555.3 383.8,536.8 445.2,501.3 		"/>
		<polygon class="st0" points="445.1,500.9 383.7,536.3 351.6,517.8 413,482.4 		"/>
		<polygon class="st0" points="577.4,648.2 609.7,666.8 609.6,715.5 577.4,697 		"/>
		<polygon class="st0" points="545.2,629.5 577.4,648.2 577.4,696.9 545.2,678.3 		"/>
		<polygon class="st0" points="513,610.7 545.2,629.3 545.2,678.1 513,659.5 		"/>
		<polygon class="st0" points="480.8,591.9 513.1,610.5 513,659.2 480.8,640.7 		"/>
		<polygon class="st0" points="448.3,573.5 480.6,592.1 480.5,640.8 448.3,622.2 		"/>
		<polygon class="st0" points="416.1,556 448.3,574.6 448.3,623.3 416.1,604.7 		"/>
		<polygon class="st0" points="383.8,537 416,555.7 416,604.4 383.8,585.8 		"/>
		<polygon class="st0" points="351.6,518.1 383.8,536.7 383.8,585.5 351.6,566.9 		"/>
	</g>
	<g>
		<polygon class="st0" points="605.2,669.4 605.2,718.1 543.7,753.6 543.7,704.9 543.8,704.8 		"/>
		<polygon class="st0" points="605.2,669.4 543.8,704.8 511.7,686.3 573.1,650.9 		"/>
		<polygon class="st0" points="572.9,650.8 511.5,686.2 479.4,667.7 540.8,632.3 		"/>
		<polygon class="st0" points="540.6,632.2 479.2,667.6 447.1,649.1 508.5,613.6 		"/>
		<polygon class="st0" points="508.4,613.5 447,649 414.9,630.5 476.3,595 		"/>
		<polygon class="st0" points="475.9,594.8 414.5,630.2 382.4,611.7 443.8,576.3 		"/>
		<polygon class="st0" points="443.6,576.5 382.2,612 350.2,593.4 411.6,558 		"/>
		<polygon class="st0" points="411.3,557.9 349.9,593.3 317.9,574.8 379.3,539.4 		"/>
		<polygon class="st0" points="379.2,538.9 317.8,574.4 285.7,555.8 347.1,520.4 		"/>
		<polygon class="st0" points="511.5,686.2 543.8,704.8 543.7,753.6 511.5,735 		"/>
		<polygon class="st0" points="479.3,667.6 511.5,686.2 511.5,734.9 479.3,716.3 		"/>
		<polygon class="st0" points="447.1,648.8 479.3,667.4 479.3,716.1 447.1,697.5 		"/>
		<polygon class="st0" points="414.9,629.9 447.2,648.5 447.1,697.3 414.9,678.7 		"/>
		<polygon class="st0" points="382.4,611.5 414.7,630.1 414.6,678.9 382.4,660.3 		"/>
		<polygon class="st0" points="350.2,594 382.4,612.6 382.4,661.4 350.2,642.8 		"/>
		<polygon class="st0" points="317.9,575.1 350.1,593.7 350,642.5 317.9,623.9 		"/>
		<polygon class="st0" points="285.7,556.2 317.9,574.8 317.9,623.5 285.7,604.9 		"/>
	</g>
</g>
<g>
	<g>
		<polygon class="st0" points="868.8,467.8 868.8,516.5 807.3,552 807.3,503.2 807.4,503.2 		"/>
		<polygon class="st0" points="868.8,467.8 807.4,503.2 775.3,484.7 836.7,449.3 		"/>
		<polygon class="st0" points="836.5,449.2 775.1,484.6 743,466.1 804.4,430.6 		"/>
		<polygon class="st0" points="804.2,430.5 742.8,466 710.7,447.4 772.1,412 		"/>
		<polygon class="st0" points="772,411.9 710.6,447.4 678.5,428.8 739.9,393.4 		"/>
		<polygon class="st0" points="739.5,393.2 678.1,428.6 646.1,410.1 707.5,374.7 		"/>
		<polygon class="st0" points="707.2,374.9 645.8,410.4 613.8,391.8 675.2,356.4 		"/>
		<polygon class="st0" points="674.9,356.3 613.5,391.7 581.5,373.2 642.9,337.7 		"/>
		<polygon class="st0" points="642.8,337.3 581.4,372.8 549.3,354.2 610.7,318.8 		"/>
		<polygon class="st0" points="775.1,484.6 807.4,503.2 807.3,552 775.1,533.4 		"/>
		<polygon class="st0" points="742.9,466 775.1,484.6 775.1,533.3 742.9,514.7 		"/>
		<polygon class="st0" points="710.7,447.1 743,465.8 742.9,514.5 710.7,495.9 		"/>
		<polygon class="st0" points="678.5,428.3 710.8,446.9 710.7,495.7 678.5,477.1 		"/>
		<polygon class="st0" points="646.1,409.9 678.3,428.5 678.3,477.2 646.1,458.6 		"/>
		<polygon class="st0" points="613.8,392.4 646,411 646,459.8 613.8,441.2 		"/>
		<polygon class="st0" points="581.5,373.5 613.7,392.1 613.7,440.8 581.5,422.2 		"/>
		<polygon class="st0" points="549.3,354.6 581.5,373.2 581.5,421.9 549.3,403.3 		"/>
	</g>
	<g>
		<polygon class="st0" points="802.9,505.8 802.9,554.6 741.4,590 741.4,541.3 741.5,541.3 		"/>
		<polygon class="st0" points="802.9,505.8 741.5,541.3 709.4,522.8 770.8,487.3 		"/>
		<polygon class="st0" points="770.6,487.2 709.2,522.7 677.1,504.1 738.5,468.7 		"/>
		<polygon class="st0" points="738.3,468.6 676.9,504 644.8,485.5 706.2,450 		"/>
		<polygon class="st0" points="706.1,450 644.7,485.4 612.6,466.9 674,431.4 		"/>
		<polygon class="st0" points="673.6,431.2 612.2,466.7 580.2,448.1 641.6,412.7 		"/>
		<polygon class="st0" points="641.3,413 579.9,448.4 547.9,429.9 609.3,394.4 		"/>
		<polygon class="st0" points="609,394.3 547.6,429.8 515.6,411.2 577,375.8 		"/>
		<polygon class="st0" points="576.9,375.4 515.5,410.8 483.4,392.3 544.8,356.8 		"/>
		<polygon class="st0" points="709.2,522.7 741.5,541.3 741.4,590 709.2,571.4 		"/>
		<polygon class="st0" points="677,504 709.2,522.6 709.2,571.4 677,552.8 		"/>
		<polygon class="st0" points="644.8,485.2 677.1,503.8 677,552.5 644.8,534 		"/>
		<polygon class="st0" points="612.6,466.4 644.9,485 644.8,533.7 612.6,515.1 		"/>
		<polygon class="st0" points="580.2,447.9 612.4,466.5 612.4,515.3 580.2,496.7 		"/>
		<polygon class="st0" points="547.9,430.5 580.1,449.1 580.1,497.8 547.9,479.2 		"/>
		<polygon class="st0" points="515.6,411.5 547.8,430.1 547.8,478.9 515.6,460.3 		"/>
		<polygon class="st0" points="483.4,392.6 515.6,411.2 515.6,460 483.4,441.4 		"/>
	</g>
	<g>
		<polygon class="st0" points="737,543.9 737,592.6 675.5,628.1 675.5,579.3 675.6,579.3 		"/>
		<polygon class="st0" points="737,543.9 675.6,579.3 643.5,560.8 704.9,525.3 		"/>
		<polygon class="st0" points="704.7,525.3 643.3,560.7 611.2,542.2 672.6,506.8 		"/>
		<polygon class="st0" points="672.4,506.6 611,542.1 578.9,523.5 640.3,488.1 		"/>
		<polygon class="st0" points="640.2,488 578.8,523.5 546.7,504.9 608.1,469.5 		"/>
		<polygon class="st0" points="607.7,469.3 546.3,504.7 514.3,486.2 575.7,450.8 		"/>
		<polygon class="st0" points="575.4,451 514,486.5 482,467.9 543.4,432.5 		"/>
		<polygon class="st0" points="543.1,432.4 481.7,467.8 449.7,449.3 511.1,413.8 		"/>
		<polygon class="st0" points="511,413.4 449.6,448.9 417.5,430.3 478.9,394.9 		"/>
		<polygon class="st0" points="643.3,560.7 675.6,579.3 675.5,628.1 643.3,609.5 		"/>
		<polygon class="st0" points="611.1,542.1 643.3,560.7 643.3,609.4 611.1,590.8 		"/>
		<polygon class="st0" points="578.9,523.2 611.2,541.8 611.1,590.6 578.9,572 		"/>
		<polygon class="st0" points="546.7,504.4 579,523 578.9,571.8 546.7,553.2 		"/>
		<polygon class="st0" points="514.3,486 546.5,504.6 546.4,553.3 514.3,534.8 		"/>
		<polygon class="st0" points="482,468.5 514.2,487.1 514.2,535.8 482,517.3 		"/>
		<polygon class="st0" points="449.7,449.6 481.9,468.2 481.9,516.9 449.7,498.3 		"/>
		<polygon class="st0" points="417.5,430.7 449.7,449.3 449.7,498 417.5,479.4 		"/>
	</g>
	<g>
		<polygon class="st0" points="671.1,581.9 671.1,630.7 609.6,666.1 609.6,617.4 609.7,617.4 		"/>
		<polygon class="st0" points="671.1,581.9 609.7,617.4 577.6,598.8 639,563.4 		"/>
		<polygon class="st0" points="638.8,563.3 577.4,598.8 545.3,580.2 606.7,544.8 		"/>
		<polygon class="st0" points="606.5,544.7 545.1,580.1 513,561.6 574.4,526.2 		"/>
		<polygon class="st0" points="574.3,526.1 512.9,561.5 480.8,543 542.2,507.5 		"/>
		<polygon class="st0" points="541.8,507.3 480.4,542.8 448.3,524.2 509.7,488.8 		"/>
		<polygon class="st0" points="509.5,489.1 448.1,524.5 416.1,506 477.5,470.5 		"/>
		<polygon class="st0" points="477.2,470.4 415.8,505.9 383.8,487.3 445.2,451.9 		"/>
		<polygon class="st0" points="445.1,451.5 383.7,486.9 351.6,468.4 413,432.9 		"/>
		<polygon class="st0" points="577.4,598.8 609.7,617.4 609.6,666.1 577.4,647.5 		"/>
		<polygon class="st0" points="545.2,580.1 577.4,598.7 577.4,647.5 545.2,628.9 		"/>
		<polygon class="st0" points="513,561.3 545.2,579.9 545.2,628.6 513,610 		"/>
		<polygon class="st0" points="480.8,542.5 513.1,561.1 513,609.8 480.8,591.2 		"/>
		<polygon class="st0" points="448.3,524 480.6,542.6 480.5,591.4 448.3,572.8 		"/>
		<polygon class="st0" points="416.1,506.5 448.3,525.2 448.3,573.9 416.1,555.3 		"/>
		<polygon class="st0" points="383.8,487.6 416,506.2 416,555 383.8,536.4 		"/>
		<polygon class="st0" points="351.6,468.7 383.8,487.3 383.8,536 351.6,517.5 		"/>
	</g>
	<g>
		<polygon class="st0" points="605.2,620 605.2,668.7 543.7,704.2 543.7,655.4 543.8,655.4 		"/>
		<polygon class="st0" points="605.2,620 543.8,655.4 511.7,636.9 573.1,601.5 		"/>
		<polygon class="st0" points="572.9,601.4 511.5,636.8 479.4,618.3 540.8,582.8 		"/>
		<polygon class="st0" points="540.6,582.7 479.2,618.2 447.1,599.6 508.5,564.2 		"/>
		<polygon class="st0" points="508.4,564.1 447,599.6 414.9,581 476.3,545.6 		"/>
		<polygon class="st0" points="475.9,545.4 414.5,580.8 382.4,562.3 443.8,526.8 		"/>
		<polygon class="st0" points="443.6,527.1 382.2,562.5 350.2,544 411.6,508.6 		"/>
		<polygon class="st0" points="411.3,508.5 349.9,543.9 317.9,525.4 379.3,489.9 		"/>
		<polygon class="st0" points="379.2,489.5 317.8,525 285.7,506.4 347.1,471 		"/>
		<polygon class="st0" points="511.5,636.8 543.8,655.4 543.7,704.2 511.5,685.6 		"/>
		<polygon class="st0" points="479.3,618.2 511.5,636.8 511.5,685.5 479.3,666.9 		"/>
		<polygon class="st0" points="447.1,599.3 479.3,618 479.3,666.7 447.1,648.1 		"/>
		<polygon class="st0" points="414.9,580.5 447.2,599.1 447.1,647.9 414.9,629.3 		"/>
		<polygon class="st0" points="382.4,562.1 414.7,580.7 414.6,629.4 382.4,610.8 		"/>
		<polygon class="st0" points="350.2,544.6 382.4,563.2 382.4,611.9 350.2,593.3 		"/>
		<polygon class="st0" points="317.9,525.7 350.1,544.3 350,593 317.9,574.4 		"/>
		<polygon class="st0" points="285.7,506.8 317.9,525.4 317.9,574.1 285.7,555.5 		"/>
	</g>
</g>
<g>
	<g>
		<polygon class="st0" points="868.8,418.4 868.8,467.1 807.3,502.5 807.3,453.8 807.4,453.8 		"/>
		<polygon class="st0" points="868.8,418.4 807.4,453.8 775.3,435.3 836.7,399.8 		"/>
		<polygon class="st0" points="836.5,399.8 775.1,435.2 743,416.7 804.4,381.2 		"/>
		<polygon class="st0" points="804.2,381.1 742.8,416.5 710.7,398 772.1,362.6 		"/>
		<polygon class="st0" points="772,362.5 710.6,397.9 678.5,379.4 739.9,344 		"/>
		<polygon class="st0" points="739.5,343.8 678.1,379.2 646.1,360.7 707.5,325.2 		"/>
		<polygon class="st0" points="707.2,325.5 645.8,360.9 613.8,342.4 675.2,307 		"/>
		<polygon class="st0" points="674.9,306.9 613.5,342.3 581.5,323.8 642.9,288.3 		"/>
		<polygon class="st0" points="642.8,287.9 581.4,323.3 549.3,304.8 610.7,269.4 		"/>
		<polygon class="st0" points="775.1,435.2 807.4,453.8 807.3,502.5 775.1,484 		"/>
		<polygon class="st0" points="742.9,416.5 775.1,435.2 775.1,483.9 742.9,465.3 		"/>
		<polygon class="st0" points="710.7,397.7 743,416.3 742.9,465.1 710.7,446.5 		"/>
		<polygon class="st0" points="678.5,378.9 710.8,397.5 710.7,446.2 678.5,427.7 		"/>
		<polygon class="st0" points="646.1,360.5 678.3,379.1 678.3,427.8 646.1,409.2 		"/>
		<polygon class="st0" points="613.8,343 646,361.6 646,410.3 613.8,391.7 		"/>
		<polygon class="st0" points="581.5,324.1 613.7,342.7 613.7,391.4 581.5,372.8 		"/>
		<polygon class="st0" points="549.3,305.1 581.5,323.8 581.5,372.5 549.3,353.9 		"/>
	</g>
	<g>
		<polygon class="st0" points="802.9,456.4 802.9,505.1 741.4,540.6 741.4,491.9 741.5,491.9 		"/>
		<polygon class="st0" points="802.9,456.4 741.5,491.9 709.4,473.3 770.8,437.9 		"/>
		<polygon class="st0" points="770.6,437.8 709.2,473.2 677.1,454.7 738.5,419.3 		"/>
		<polygon class="st0" points="738.3,419.2 676.9,454.6 644.8,436.1 706.2,400.6 		"/>
		<polygon class="st0" points="706.1,400.5 644.7,436 612.6,417.5 674,382 		"/>
		<polygon class="st0" points="673.6,381.8 612.2,417.2 580.2,398.7 641.6,363.3 		"/>
		<polygon class="st0" points="641.3,363.5 579.9,399 547.9,380.5 609.3,345 		"/>
		<polygon class="st0" points="609,344.9 547.6,380.3 515.6,361.8 577,326.4 		"/>
		<polygon class="st0" points="576.9,326 515.5,361.4 483.4,342.9 544.8,307.4 		"/>
		<polygon class="st0" points="709.2,473.2 741.5,491.9 741.4,540.6 709.2,522 		"/>
		<polygon class="st0" points="677,454.6 709.2,473.2 709.2,521.9 677,503.4 		"/>
		<polygon class="st0" points="644.8,435.8 677.1,454.4 677,503.1 644.8,484.5 		"/>
		<polygon class="st0" points="612.6,417 644.9,435.5 644.8,484.3 612.6,465.7 		"/>
		<polygon class="st0" points="580.2,398.5 612.4,417.1 612.4,465.9 580.2,447.3 		"/>
		<polygon class="st0" points="547.9,381 580.1,399.6 580.1,448.4 547.9,429.8 		"/>
		<polygon class="st0" points="515.6,362.1 547.8,380.7 547.8,429.5 515.6,410.9 		"/>
		<polygon class="st0" points="483.4,343.2 515.6,361.8 515.6,410.5 483.4,391.9 		"/>
	</g>
	<g>
		<polygon class="st0" points="737,494.5 737,543.2 675.5,578.6 675.5,529.9 675.6,529.9 		"/>
		<polygon class="st0" points="737,494.5 675.6,529.9 643.5,511.4 704.9,475.9 		"/>
		<polygon class="st0" points="704.7,475.9 643.3,511.3 611.2,492.8 672.6,457.3 		"/>
		<polygon class="st0" points="672.4,457.2 611,492.6 578.9,474.1 640.3,438.7 		"/>
		<polygon class="st0" points="640.2,438.6 578.8,474 546.7,455.5 608.1,420.1 		"/>
		<polygon class="st0" points="607.7,419.9 546.3,455.3 514.3,436.8 575.7,401.3 		"/>
		<polygon class="st0" points="575.4,401.6 514,437 482,418.5 543.4,383.1 		"/>
		<polygon class="st0" points="543.1,382.9 481.7,418.4 449.7,399.9 511.1,364.4 		"/>
		<polygon class="st0" points="511,364 449.6,399.4 417.5,380.9 478.9,345.5 		"/>
		<polygon class="st0" points="643.3,511.3 675.6,529.9 675.5,578.6 643.3,560 		"/>
		<polygon class="st0" points="611.1,492.6 643.3,511.2 643.3,560 611.1,541.4 		"/>
		<polygon class="st0" points="578.9,473.8 611.2,492.4 611.1,541.2 578.9,522.6 		"/>
		<polygon class="st0" points="546.7,455 579,473.6 578.9,522.3 546.7,503.8 		"/>
		<polygon class="st0" points="514.3,436.6 546.5,455.2 546.4,503.9 514.3,485.3 		"/>
		<polygon class="st0" points="482,419.1 514.2,437.7 514.2,486.4 482,467.8 		"/>
		<polygon class="st0" points="449.7,400.1 481.9,418.8 481.9,467.5 449.7,448.9 		"/>
		<polygon class="st0" points="417.5,381.2 449.7,399.8 449.7,448.6 417.5,430 		"/>
	</g>
	<g>
		<polygon class="st0" points="671.1,532.5 671.1,581.2 609.6,616.7 609.6,568 609.7,568 		"/>
		<polygon class="st0" points="671.1,532.5 609.7,568 577.6,549.4 639,514 		"/>
		<polygon class="st0" points="638.8,513.9 577.4,549.3 545.3,530.8 606.7,495.4 		"/>
		<polygon class="st0" points="606.5,495.2 545.1,530.7 513,512.2 574.4,476.7 		"/>
		<polygon class="st0" points="574.3,476.6 512.9,512.1 480.8,493.5 542.2,458.1 		"/>
		<polygon class="st0" points="541.8,457.9 480.4,493.3 448.3,474.8 509.7,439.4 		"/>
		<polygon class="st0" points="509.5,439.6 448.1,475.1 416.1,456.5 477.5,421.1 		"/>
		<polygon class="st0" points="477.2,421 415.8,456.4 383.8,437.9 445.2,402.5 		"/>
		<polygon class="st0" points="445.1,402 383.7,437.5 351.6,419 413,383.5 		"/>
		<polygon class="st0" points="577.4,549.3 609.7,568 609.6,616.7 577.4,598.1 		"/>
		<polygon class="st0" points="545.2,530.7 577.4,549.3 577.4,598 545.2,579.5 		"/>
		<polygon class="st0" points="513,511.9 545.2,530.5 545.2,579.2 513,560.6 		"/>
		<polygon class="st0" points="480.8,493 513.1,511.6 513,560.4 480.8,541.8 		"/>
		<polygon class="st0" points="448.3,474.6 480.6,493.2 480.5,542 448.3,523.4 		"/>
		<polygon class="st0" points="416.1,457.1 448.3,475.7 448.3,524.5 416.1,505.9 		"/>
		<polygon class="st0" points="383.8,438.2 416,456.8 416,505.5 383.8,487 		"/>
		<polygon class="st0" points="351.6,419.3 383.8,437.9 383.8,486.6 351.6,468 		"/>
	</g>
	<g>
		<polygon class="st0" points="605.2,570.5 605.2,619.3 543.7,654.7 543.7,606 543.8,606 		"/>
		<polygon class="st0" points="605.2,570.5 543.8,606 511.7,587.5 573.1,552 		"/>
		<polygon class="st0" points="572.9,552 511.5,587.4 479.4,568.9 540.8,533.4 		"/>
		<polygon class="st0" points="540.6,533.3 479.2,568.7 447.1,550.2 508.5,514.8 		"/>
		<polygon class="st0" points="508.4,514.7 447,550.1 414.9,531.6 476.3,496.2 		"/>
		<polygon class="st0" points="475.9,496 414.5,531.4 382.4,512.9 443.8,477.4 		"/>
		<polygon class="st0" points="443.6,477.7 382.2,513.1 350.2,494.6 411.6,459.1 		"/>
		<polygon class="st0" points="411.3,459 349.9,494.5 317.9,475.9 379.3,440.5 		"/>
		<polygon class="st0" points="379.2,440.1 317.8,475.5 285.7,457 347.1,421.6 		"/>
		<polygon class="st0" points="511.5,587.4 543.8,606 543.7,654.7 511.5,636.1 		"/>
		<polygon class="st0" points="479.3,568.7 511.5,587.3 511.5,636.1 479.3,617.5 		"/>
		<polygon class="st0" points="447.1,549.9 479.3,568.5 479.3,617.3 447.1,598.7 		"/>
		<polygon class="st0" points="414.9,531.1 447.2,549.7 447.1,598.4 414.9,579.8 		"/>
		<polygon class="st0" points="382.4,512.7 414.7,531.3 414.6,580 382.4,561.4 		"/>
		<polygon class="st0" points="350.2,495.2 382.4,513.8 382.4,562.5 350.2,543.9 		"/>
		<polygon class="st0" points="317.9,476.2 350.1,494.9 350,543.6 317.9,525 		"/>
		<polygon class="st0" points="285.7,457.3 317.9,475.9 317.9,524.7 285.7,506.1 		"/>
	</g>
</g>
<g>
	<g>
		<polygon class="st0" points="868.8,368.9 868.8,417.7 807.3,453.1 807.3,404.4 807.4,404.4 		"/>
		<polygon class="st0" points="868.8,368.9 807.4,404.4 775.3,385.9 836.7,350.4 		"/>
		<polygon class="st0" points="836.5,350.3 775.1,385.8 743,367.2 804.4,331.8 		"/>
		<polygon class="st0" points="804.2,331.7 742.8,367.1 710.7,348.6 772.1,313.1 		"/>
		<polygon class="st0" points="772,313.1 710.6,348.5 678.5,330 739.9,294.5 		"/>
		<polygon class="st0" points="739.5,294.3 678.1,329.8 646.1,311.2 707.5,275.8 		"/>
		<polygon class="st0" points="707.2,276.1 645.8,311.5 613.8,293 675.2,257.5 		"/>
		<polygon class="st0" points="674.9,257.4 613.5,292.9 581.5,274.3 642.9,238.9 		"/>
		<polygon class="st0" points="642.8,238.5 581.4,273.9 549.3,255.4 610.7,219.9 		"/>
		<polygon class="st0" points="775.1,385.8 807.4,404.4 807.3,453.1 775.1,434.5 		"/>
		<polygon class="st0" points="742.9,367.1 775.1,385.7 775.1,434.5 742.9,415.9 		"/>
		<polygon class="st0" points="710.7,348.3 743,366.9 742.9,415.6 710.7,397.1 		"/>
		<polygon class="st0" points="678.5,329.5 710.8,348.1 710.7,396.8 678.5,378.2 		"/>
		<polygon class="st0" points="646.1,311 678.3,329.6 678.3,378.4 646.1,359.8 		"/>
		<polygon class="st0" points="613.8,293.6 646,312.2 646,360.9 613.8,342.3 		"/>
		<polygon class="st0" points="581.5,274.6 613.7,293.2 613.7,342 581.5,323.4 		"/>
		<polygon class="st0" points="549.3,255.7 581.5,274.3 581.5,323.1 549.3,304.5 		"/>
	</g>
	<g>
		<polygon class="st0" points="802.9,407 802.9,455.7 741.4,491.2 741.4,442.5 741.5,442.4 		"/>
		<polygon class="st0" points="802.9,407 741.5,442.4 709.4,423.9 770.8,388.5 		"/>
		<polygon class="st0" points="770.6,388.4 709.2,423.8 677.1,405.3 738.5,369.9 		"/>
		<polygon class="st0" points="738.3,369.7 676.9,405.2 644.8,386.6 706.2,351.2 		"/>
		<polygon class="st0" points="706.1,351.1 644.7,386.6 612.6,368 674,332.6 		"/>
		<polygon class="st0" points="673.6,332.4 612.2,367.8 580.2,349.3 641.6,313.9 		"/>
		<polygon class="st0" points="641.3,314.1 579.9,349.6 547.9,331 609.3,295.6 		"/>
		<polygon class="st0" points="609,295.5 547.6,330.9 515.6,312.4 577,276.9 		"/>
		<polygon class="st0" points="576.9,276.5 515.5,312 483.4,293.4 544.8,258 		"/>
		<polygon class="st0" points="709.2,423.8 741.5,442.4 741.4,491.2 709.2,472.6 		"/>
		<polygon class="st0" points="677,405.2 709.2,423.8 709.2,472.5 677,453.9 		"/>
		<polygon class="st0" points="644.8,386.4 677.1,405 677,453.7 644.8,435.1 		"/>
		<polygon class="st0" points="612.6,367.5 644.9,386.1 644.8,434.9 612.6,416.3 		"/>
		<polygon class="st0" points="580.2,349.1 612.4,367.7 612.4,416.4 580.2,397.9 		"/>
		<polygon class="st0" points="547.9,331.6 580.1,350.2 580.1,399 547.9,380.4 		"/>
		<polygon class="st0" points="515.6,312.7 547.8,331.3 547.8,380 515.6,361.4 		"/>
		<polygon class="st0" points="483.4,293.8 515.6,312.4 515.6,361.1 483.4,342.5 		"/>
	</g>
	<g>
		<polygon class="st0" points="737,445 737,493.8 675.5,529.2 675.5,480.5 675.6,480.5 		"/>
		<polygon class="st0" points="737,445 675.6,480.5 643.5,461.9 704.9,426.5 		"/>
		<polygon class="st0" points="704.7,426.4 643.3,461.9 611.2,443.3 672.6,407.9 		"/>
		<polygon class="st0" points="672.4,407.8 611,443.2 578.9,424.7 640.3,389.2 		"/>
		<polygon class="st0" points="640.2,389.2 578.8,424.6 546.7,406.1 608.1,370.6 		"/>
		<polygon class="st0" points="607.7,370.4 546.3,405.9 514.3,387.3 575.7,351.9 		"/>
		<polygon class="st0" points="575.4,352.2 514,387.6 482,369.1 543.4,333.6 		"/>
		<polygon class="st0" points="543.1,333.5 481.7,369 449.7,350.4 511.1,315 		"/>
		<polygon class="st0" points="511,314.6 449.6,350 417.5,331.5 478.9,296 		"/>
		<polygon class="st0" points="643.3,461.9 675.6,480.5 675.5,529.2 643.3,510.6 		"/>
		<polygon class="st0" points="611.1,443.2 643.3,461.8 643.3,510.6 611.1,492 		"/>
		<polygon class="st0" points="578.9,424.4 611.2,443 611.1,491.7 578.9,473.1 		"/>
		<polygon class="st0" points="546.7,405.6 579,424.2 578.9,472.9 546.7,454.3 		"/>
		<polygon class="st0" points="514.3,387.1 546.5,405.8 546.4,454.5 514.3,435.9 		"/>
		<polygon class="st0" points="482,369.6 514.2,388.3 514.2,437 482,418.4 		"/>
		<polygon class="st0" points="449.7,350.7 481.9,369.3 481.9,418.1 449.7,399.5 		"/>
		<polygon class="st0" points="417.5,331.8 449.7,350.4 449.7,399.2 417.5,380.6 		"/>
	</g>
	<g>
		<polygon class="st0" points="671.1,483.1 671.1,531.8 609.6,567.3 609.6,518.5 609.7,518.5 		"/>
		<polygon class="st0" points="671.1,483.1 609.7,518.5 577.6,500 639,464.5 		"/>
		<polygon class="st0" points="638.8,464.5 577.4,499.9 545.3,481.4 606.7,446 		"/>
		<polygon class="st0" points="606.5,445.8 545.1,481.3 513,462.7 574.4,427.3 		"/>
		<polygon class="st0" points="574.3,427.2 512.9,462.7 480.8,444.1 542.2,408.7 		"/>
		<polygon class="st0" points="541.8,408.5 480.4,443.9 448.3,425.4 509.7,390 		"/>
		<polygon class="st0" points="509.5,390.2 448.1,425.6 416.1,407.1 477.5,371.7 		"/>
		<polygon class="st0" points="477.2,371.6 415.8,407 383.8,388.5 445.2,353 		"/>
		<polygon class="st0" points="445.1,352.6 383.7,388.1 351.6,369.5 413,334.1 		"/>
		<polygon class="st0" points="577.4,499.9 609.7,518.5 609.6,567.3 577.4,548.7 		"/>
		<polygon class="st0" points="545.2,481.3 577.4,499.9 577.4,548.6 545.2,530 		"/>
		<polygon class="st0" points="513,462.4 545.2,481 545.2,529.8 513,511.2 		"/>
		<polygon class="st0" points="480.8,443.6 513.1,462.2 513,511 480.8,492.4 		"/>
		<polygon class="st0" points="448.3,425.2 480.6,443.8 480.5,492.5 448.3,473.9 		"/>
		<polygon class="st0" points="416.1,407.7 448.3,426.3 448.3,475 416.1,456.5 		"/>
		<polygon class="st0" points="383.8,388.8 416,407.4 416,456.1 383.8,437.5 		"/>
		<polygon class="st0" points="351.6,369.9 383.8,388.5 383.8,437.2 351.6,418.6 		"/>
	</g>
	<g>
		<polygon class="st0" points="605.2,521.1 605.2,569.8 543.7,605.3 543.7,556.6 543.8,556.6 		"/>
		<polygon class="st0" points="605.2,521.1 543.8,556.6 511.7,538 573.1,502.6 		"/>
		<polygon class="st0" points="572.9,502.5 511.5,538 479.4,519.4 540.8,484 		"/>
		<polygon class="st0" points="540.6,483.9 479.2,519.3 447.1,500.8 508.5,465.3 		"/>
		<polygon class="st0" points="508.4,465.3 447,500.7 414.9,482.2 476.3,446.7 		"/>
		<polygon class="st0" points="475.9,446.5 414.5,482 382.4,463.4 443.8,428 		"/>
		<polygon class="st0" points="443.6,428.3 382.2,463.7 350.2,445.2 411.6,409.7 		"/>
		<polygon class="st0" points="411.3,409.6 349.9,445 317.9,426.5 379.3,391.1 		"/>
		<polygon class="st0" points="379.2,390.7 317.8,426.1 285.7,407.6 347.1,372.1 		"/>
		<polygon class="st0" points="511.5,538 543.8,556.6 543.7,605.3 511.5,586.7 		"/>
		<polygon class="st0" points="479.3,519.3 511.5,537.9 511.5,586.7 479.3,568.1 		"/>
		<polygon class="st0" points="447.1,500.5 479.3,519.1 479.3,567.8 447.1,549.2 		"/>
		<polygon class="st0" points="414.9,481.7 447.2,500.3 447.1,549 414.9,530.4 		"/>
		<polygon class="st0" points="382.4,463.2 414.7,481.8 414.6,530.6 382.4,512 		"/>
		<polygon class="st0" points="350.2,445.8 382.4,464.4 382.4,513.1 350.2,494.5 		"/>
		<polygon class="st0" points="317.9,426.8 350.1,445.4 350,494.2 317.9,475.6 		"/>
		<polygon class="st0" points="285.7,407.9 317.9,426.5 317.9,475.2 285.7,456.7 		"/>
	</g>
</g>
<g>
	<g>
		<polygon class="st0" points="868.8,319.5 868.8,368.2 807.3,403.7 807.3,355 807.4,355 		"/>
		<polygon class="st0" points="868.8,319.5 807.4,355 775.3,336.4 836.7,301 		"/>
		<polygon class="st0" points="836.5,300.9 775.1,336.4 743,317.8 804.4,282.4 		"/>
		<polygon class="st0" points="804.2,282.3 742.8,317.7 710.7,299.2 772.1,263.7 		"/>
		<polygon class="st0" points="772,263.6 710.6,299.1 678.5,280.6 739.9,245.1 		"/>
		<polygon class="st0" points="739.5,244.9 678.1,280.4 646.1,261.8 707.5,226.4 		"/>
		<polygon class="st0" points="707.2,226.6 645.8,262.1 613.8,243.6 675.2,208.1 		"/>
		<polygon class="st0" points="674.9,208 613.5,243.4 581.5,224.9 642.9,189.5 		"/>
		<polygon class="st0" points="642.8,189.1 581.4,224.5 549.3,206 610.7,170.5 		"/>
		<polygon class="st0" points="775.1,336.4 807.4,355 807.3,403.7 775.1,385.1 		"/>
		<polygon class="st0" points="742.9,317.7 775.1,336.3 775.1,385 742.9,366.5 		"/>
		<polygon class="st0" points="710.7,298.9 743,317.5 742.9,366.2 710.7,347.6 		"/>
		<polygon class="st0" points="678.5,280 710.8,298.7 710.7,347.4 678.5,328.8 		"/>
		<polygon class="st0" points="646.1,261.6 678.3,280.2 678.3,329 646.1,310.4 		"/>
		<polygon class="st0" points="613.8,244.1 646,262.7 646,311.5 613.8,292.9 		"/>
		<polygon class="st0" points="581.5,225.2 613.7,243.8 613.7,292.6 581.5,274 		"/>
		<polygon class="st0" points="549.3,206.3 581.5,224.9 581.5,273.6 549.3,255.1 		"/>
	</g>
	<g>
		<polygon class="st0" points="802.9,357.6 802.9,406.3 741.4,441.7 741.4,393 741.5,393 		"/>
		<polygon class="st0" points="802.9,357.6 741.5,393 709.4,374.5 770.8,339 		"/>
		<polygon class="st0" points="770.6,339 709.2,374.4 677.1,355.9 738.5,320.4 		"/>
		<polygon class="st0" points="738.3,320.3 676.9,355.8 644.8,337.2 706.2,301.8 		"/>
		<polygon class="st0" points="706.1,301.7 644.7,337.1 612.6,318.6 674,283.2 		"/>
		<polygon class="st0" points="673.6,283 612.2,318.4 580.2,299.9 641.6,264.4 		"/>
		<polygon class="st0" points="641.3,264.7 579.9,300.1 547.9,281.6 609.3,246.2 		"/>
		<polygon class="st0" points="609,246 547.6,281.5 515.6,263 577,227.5 		"/>
		<polygon class="st0" points="576.9,227.1 515.5,262.5 483.4,244 544.8,208.6 		"/>
		<polygon class="st0" points="709.2,374.4 741.5,393 741.4,441.7 709.2,423.1 		"/>
		<polygon class="st0" points="677,355.8 709.2,374.4 709.2,423.1 677,404.5 		"/>
		<polygon class="st0" points="644.8,336.9 677.1,355.5 677,404.3 644.8,385.7 		"/>
		<polygon class="st0" points="612.6,318.1 644.9,336.7 644.8,385.4 612.6,366.9 		"/>
		<polygon class="st0" points="580.2,299.7 612.4,318.3 612.4,367 580.2,348.4 		"/>
		<polygon class="st0" points="547.9,282.2 580.1,300.8 580.1,349.5 547.9,330.9 		"/>
		<polygon class="st0" points="515.6,263.3 547.8,281.9 547.8,330.6 515.6,312 		"/>
		<polygon class="st0" points="483.4,244.3 515.6,262.9 515.6,311.7 483.4,293.1 		"/>
	</g>
	<g>
		<polygon class="st0" points="737,395.6 737,444.3 675.5,479.8 675.5,431.1 675.6,431 		"/>
		<polygon class="st0" points="737,395.6 675.6,431 643.5,412.5 704.9,377.1 		"/>
		<polygon class="st0" points="704.7,377 643.3,412.4 611.2,393.9 672.6,358.5 		"/>
		<polygon class="st0" points="672.4,358.4 611,393.8 578.9,375.3 640.3,339.8 		"/>
		<polygon class="st0" points="640.2,339.8 578.8,375.2 546.7,356.7 608.1,321.2 		"/>
		<polygon class="st0" points="607.7,321 546.3,356.4 514.3,337.9 575.7,302.5 		"/>
		<polygon class="st0" points="575.4,302.7 514,338.2 482,319.6 543.4,284.2 		"/>
		<polygon class="st0" points="543.1,284.1 481.7,319.5 449.7,301 511.1,265.6 		"/>
		<polygon class="st0" points="511,265.1 449.6,300.6 417.5,282 478.9,246.6 		"/>
		<polygon class="st0" points="643.3,412.4 675.6,431 675.5,479.8 643.3,461.2 		"/>
		<polygon class="st0" points="611.1,393.8 643.3,412.4 643.3,461.1 611.1,442.5 		"/>
		<polygon class="st0" points="578.9,375 611.2,393.6 611.1,442.3 578.9,423.7 		"/>
		<polygon class="st0" points="546.7,356.1 579,374.8 578.9,423.5 546.7,404.9 		"/>
		<polygon class="st0" points="514.3,337.7 546.5,356.3 546.4,405.1 514.3,386.5 		"/>
		<polygon class="st0" points="482,320.2 514.2,338.8 514.2,387.6 482,369 		"/>
		<polygon class="st0" points="449.7,301.3 481.9,319.9 481.9,368.6 449.7,350.1 		"/>
		<polygon class="st0" points="417.5,282.4 449.7,301 449.7,349.7 417.5,331.1 		"/>
	</g>
	<g>
		<polygon class="st0" points="671.1,433.7 671.1,482.4 609.6,517.8 609.6,469.1 609.7,469.1 		"/>
		<polygon class="st0" points="671.1,433.7 609.7,469.1 577.6,450.6 639,415.1 		"/>
		<polygon class="st0" points="638.8,415 577.4,450.5 545.3,432 606.7,396.5 		"/>
		<polygon class="st0" points="606.5,396.4 545.1,431.8 513,413.3 574.4,377.9 		"/>
		<polygon class="st0" points="574.3,377.8 512.9,413.2 480.8,394.7 542.2,359.3 		"/>
		<polygon class="st0" points="541.8,359 480.4,394.5 448.3,376 509.7,340.5 		"/>
		<polygon class="st0" points="509.5,340.8 448.1,376.2 416.1,357.7 477.5,322.3 		"/>
		<polygon class="st0" points="477.2,322.1 415.8,357.6 383.8,339 445.2,303.6 		"/>
		<polygon class="st0" points="445.1,303.2 383.7,338.6 351.6,320.1 413,284.7 		"/>
		<polygon class="st0" points="577.4,450.5 609.7,469.1 609.6,517.8 577.4,499.2 		"/>
		<polygon class="st0" points="545.2,431.8 577.4,450.5 577.4,499.2 545.2,480.6 		"/>
		<polygon class="st0" points="513,413 545.2,431.6 545.2,480.4 513,461.8 		"/>
		<polygon class="st0" points="480.8,394.2 513.1,412.8 513,461.5 480.8,443 		"/>
		<polygon class="st0" points="448.3,375.8 480.6,394.4 480.5,443.1 448.3,424.5 		"/>
		<polygon class="st0" points="416.1,358.3 448.3,376.9 448.3,425.6 416.1,407 		"/>
		<polygon class="st0" points="383.8,339.4 416,358 416,406.7 383.8,388.1 		"/>
		<polygon class="st0" points="351.6,320.4 383.8,339 383.8,387.8 351.6,369.2 		"/>
	</g>
	<g>
		<polygon class="st0" points="605.2,471.7 605.2,520.4 543.7,555.9 543.7,507.2 543.8,507.1 		"/>
		<polygon class="st0" points="605.2,471.7 543.8,507.1 511.7,488.6 573.1,453.2 		"/>
		<polygon class="st0" points="572.9,453.1 511.5,488.5 479.4,470 540.8,434.6 		"/>
		<polygon class="st0" points="540.6,434.5 479.2,469.9 447.1,451.4 508.5,415.9 		"/>
		<polygon class="st0" points="508.4,415.8 447,451.3 414.9,432.8 476.3,397.3 		"/>
		<polygon class="st0" points="475.9,397.1 414.5,432.5 382.4,414 443.8,378.6 		"/>
		<polygon class="st0" points="443.6,378.8 382.2,414.3 350.2,395.7 411.6,360.3 		"/>
		<polygon class="st0" points="411.3,360.2 349.9,395.6 317.9,377.1 379.3,341.6 		"/>
		<polygon class="st0" points="379.2,341.2 317.8,376.7 285.7,358.1 347.1,322.7 		"/>
		<polygon class="st0" points="511.5,488.5 543.8,507.1 543.7,555.9 511.5,537.3 		"/>
		<polygon class="st0" points="479.3,469.9 511.5,488.5 511.5,537.2 479.3,518.7 		"/>
		<polygon class="st0" points="447.1,451.1 479.3,469.7 479.3,518.4 447.1,499.8 		"/>
		<polygon class="st0" points="414.9,432.2 447.2,450.9 447.1,499.6 414.9,481 		"/>
		<polygon class="st0" points="382.4,413.8 414.7,432.4 414.6,481.2 382.4,462.6 		"/>
		<polygon class="st0" points="350.2,396.3 382.4,414.9 382.4,463.7 350.2,445.1 		"/>
		<polygon class="st0" points="317.9,377.4 350.1,396 350,444.8 317.9,426.2 		"/>
		<polygon class="st0" points="285.7,358.5 317.9,377.1 317.9,425.8 285.7,407.2 		"/>
	</g>
</g>
<g>
	<g>
		<polygon class="st0" points="868.8,270.1 868.8,318.8 807.3,354.3 807.3,305.5 807.4,305.5 		"/>
		<polygon class="st0" points="868.8,270.1 807.4,305.5 775.3,287 836.7,251.6 		"/>
		<polygon class="st0" points="836.5,251.5 775.1,286.9 743,268.4 804.4,232.9 		"/>
		<polygon class="st0" points="804.2,232.8 742.8,268.3 710.7,249.7 772.1,214.3 		"/>
		<polygon class="st0" points="772,214.2 710.6,249.7 678.5,231.1 739.9,195.7 		"/>
		<polygon class="st0" points="739.5,195.5 678.1,230.9 646.1,212.4 707.5,177 		"/>
		<polygon class="st0" points="707.2,177.2 645.8,212.7 613.8,194.1 675.2,158.7 		"/>
		<polygon class="st0" points="674.9,158.6 613.5,194 581.5,175.5 642.9,140 		"/>
		<polygon class="st0" points="642.8,139.6 581.4,175.1 549.3,156.5 610.7,121.1 		"/>
		<polygon class="st0" points="775.1,286.9 807.4,305.5 807.3,354.3 775.1,335.7 		"/>
		<polygon class="st0" points="742.9,268.3 775.1,286.9 775.1,335.6 742.9,317 		"/>
		<polygon class="st0" points="710.7,249.4 743,268.1 742.9,316.8 710.7,298.2 		"/>
		<polygon class="st0" points="678.5,230.6 710.8,249.2 710.7,298 678.5,279.4 		"/>
		<polygon class="st0" points="646.1,212.2 678.3,230.8 678.3,279.5 646.1,261 		"/>
		<polygon class="st0" points="613.8,194.7 646,213.3 646,262 613.8,243.5 		"/>
		<polygon class="st0" points="581.5,175.8 613.7,194.4 613.7,243.1 581.5,224.5 		"/>
		<polygon class="st0" points="549.3,156.9 581.5,175.5 581.5,224.2 549.3,205.6 		"/>
	</g>
	<g>
		<polygon class="st0" points="802.9,308.1 802.9,356.9 741.4,392.3 741.4,343.6 741.5,343.6 		"/>
		<polygon class="st0" points="802.9,308.1 741.5,343.6 709.4,325 770.8,289.6 		"/>
		<polygon class="st0" points="770.6,289.5 709.2,325 677.1,306.4 738.5,271 		"/>
		<polygon class="st0" points="738.3,270.9 676.9,306.3 644.8,287.8 706.2,252.4 		"/>
		<polygon class="st0" points="706.1,252.3 644.7,287.7 612.6,269.2 674,233.7 		"/>
		<polygon class="st0" points="673.6,233.5 612.2,269 580.2,250.4 641.6,215 		"/>
		<polygon class="st0" points="641.3,215.3 579.9,250.7 547.9,232.2 609.3,196.7 		"/>
		<polygon class="st0" points="609,196.6 547.6,232.1 515.6,213.5 577,178.1 		"/>
		<polygon class="st0" points="576.9,177.7 515.5,213.1 483.4,194.6 544.8,159.1 		"/>
		<polygon class="st0" points="709.2,325 741.5,343.6 741.4,392.3 709.2,373.7 		"/>
		<polygon class="st0" points="677,306.3 709.2,324.9 709.2,373.7 677,355.1 		"/>
		<polygon class="st0" points="644.8,287.5 677.1,306.1 677,354.8 644.8,336.2 		"/>
		<polygon class="st0" points="612.6,268.7 644.9,287.3 644.8,336 612.6,317.4 		"/>
		<polygon class="st0" points="580.2,250.2 612.4,268.9 612.4,317.6 580.2,299 		"/>
		<polygon class="st0" points="547.9,232.8 580.1,251.4 580.1,300.1 547.9,281.5 		"/>
		<polygon class="st0" points="515.6,213.8 547.8,232.4 547.8,281.2 515.6,262.6 		"/>
		<polygon class="st0" points="483.4,194.9 515.6,213.5 515.6,262.3 483.4,243.7 		"/>
	</g>
	<g>
		<polygon class="st0" points="737,346.2 737,394.9 675.5,430.4 675.5,381.6 675.6,381.6 		"/>
		<polygon class="st0" points="737,346.2 675.6,381.6 643.5,363.1 704.9,327.6 		"/>
		<polygon class="st0" points="704.7,327.6 643.3,363 611.2,344.5 672.6,309 		"/>
		<polygon class="st0" points="672.4,308.9 611,344.4 578.9,325.8 640.3,290.4 		"/>
		<polygon class="st0" points="640.2,290.3 578.8,325.8 546.7,307.2 608.1,271.8 		"/>
		<polygon class="st0" points="607.7,271.6 546.3,307 514.3,288.5 575.7,253.1 		"/>
		<polygon class="st0" points="575.4,253.3 514,288.8 482,270.2 543.4,234.8 		"/>
		<polygon class="st0" points="543.1,234.7 481.7,270.1 449.7,251.6 511.1,216.1 		"/>
		<polygon class="st0" points="511,215.7 449.6,251.2 417.5,232.6 478.9,197.2 		"/>
		<polygon class="st0" points="643.3,363 675.6,381.6 675.5,430.4 643.3,411.8 		"/>
		<polygon class="st0" points="611.1,344.4 643.3,363 643.3,411.7 611.1,393.1 		"/>
		<polygon class="st0" points="578.9,325.5 611.2,344.1 611.1,392.9 578.9,374.3 		"/>
		<polygon class="st0" points="546.7,306.7 579,325.3 578.9,374.1 546.7,355.5 		"/>
		<polygon class="st0" points="514.3,288.3 546.5,306.9 546.4,355.6 514.3,337 		"/>
		<polygon class="st0" points="482,270.8 514.2,289.4 514.2,338.1 482,319.6 		"/>
		<polygon class="st0" points="449.7,251.9 481.9,270.5 481.9,319.2 449.7,300.6 		"/>
		<polygon class="st0" points="417.5,233 449.7,251.6 449.7,300.3 417.5,281.7 		"/>
	</g>
	<g>
		<polygon class="st0" points="671.1,384.2 671.1,433 609.6,468.4 609.6,419.7 609.7,419.7 		"/>
		<polygon class="st0" points="671.1,384.2 609.7,419.7 577.6,401.1 639,365.7 		"/>
		<polygon class="st0" points="638.8,365.6 577.4,401.1 545.3,382.5 606.7,347.1 		"/>
		<polygon class="st0" points="606.5,347 545.1,382.4 513,363.9 574.4,328.5 		"/>
		<polygon class="st0" points="574.3,328.4 512.9,363.8 480.8,345.3 542.2,309.8 		"/>
		<polygon class="st0" points="541.8,309.6 480.4,345.1 448.3,326.5 509.7,291.1 		"/>
		<polygon class="st0" points="509.5,291.4 448.1,326.8 416.1,308.3 477.5,272.8 		"/>
		<polygon class="st0" points="477.2,272.7 415.8,308.1 383.8,289.6 445.2,254.2 		"/>
		<polygon class="st0" points="445.1,253.8 383.7,289.2 351.6,270.7 413,235.2 		"/>
		<polygon class="st0" points="577.4,401.1 609.7,419.7 609.6,468.4 577.4,449.8 		"/>
		<polygon class="st0" points="545.2,382.4 577.4,401 577.4,449.8 545.2,431.2 		"/>
		<polygon class="st0" points="513,363.6 545.2,382.2 545.2,430.9 513,412.4 		"/>
		<polygon class="st0" points="480.8,344.8 513.1,363.4 513,412.1 480.8,393.5 		"/>
		<polygon class="st0" points="448.3,326.3 480.6,344.9 480.5,393.7 448.3,375.1 		"/>
		<polygon class="st0" points="416.1,308.9 448.3,327.5 448.3,376.2 416.1,357.6 		"/>
		<polygon class="st0" points="383.8,289.9 416,308.5 416,357.3 383.8,338.7 		"/>
		<polygon class="st0" points="351.6,271 383.8,289.6 383.8,338.4 351.6,319.8 		"/>
	</g>
	<g>
		<polygon class="st0" points="605.2,422.3 605.2,471 543.7,506.5 543.7,457.7 543.8,457.7 		"/>
		<polygon class="st0" points="605.2,422.3 543.8,457.7 511.7,439.2 573.1,403.8 		"/>
		<polygon class="st0" points="572.9,403.7 511.5,439.1 479.4,420.6 540.8,385.1 		"/>
		<polygon class="st0" points="540.6,385 479.2,420.5 447.1,401.9 508.5,366.5 		"/>
		<polygon class="st0" points="508.4,366.4 447,401.9 414.9,383.3 476.3,347.9 		"/>
		<polygon class="st0" points="475.9,347.7 414.5,383.1 382.4,364.6 443.8,329.1 		"/>
		<polygon class="st0" points="443.6,329.4 382.2,364.9 350.2,346.3 411.6,310.9 		"/>
		<polygon class="st0" points="411.3,310.8 349.9,346.2 317.9,327.7 379.3,292.2 		"/>
		<polygon class="st0" points="379.2,291.8 317.8,327.2 285.7,308.7 347.1,273.3 		"/>
		<polygon class="st0" points="511.5,439.1 543.8,457.7 543.7,506.5 511.5,487.9 		"/>
		<polygon class="st0" points="479.3,420.5 511.5,439.1 511.5,487.8 479.3,469.2 		"/>
		<polygon class="st0" points="447.1,401.6 479.3,420.2 479.3,469 447.1,450.4 		"/>
		<polygon class="st0" points="414.9,382.8 447.2,401.4 447.1,450.2 414.9,431.6 		"/>
		<polygon class="st0" points="382.4,364.4 414.7,383 414.6,431.7 382.4,413.1 		"/>
		<polygon class="st0" points="350.2,346.9 382.4,365.5 382.4,414.2 350.2,395.6 		"/>
		<polygon class="st0" points="317.9,328 350.1,346.6 350,395.3 317.9,376.7 		"/>
		<polygon class="st0" points="285.7,309 317.9,327.7 317.9,376.4 285.7,357.8 		"/>
	</g>
</g>
<g>
	<g>
		<polygon class="st0" points="868.8,149.5 868.8,198.2 807.3,233.7 807.3,185 807.4,184.9 		"/>
		<polygon class="st0" points="868.8,149.5 807.4,184.9 775.3,166.4 836.7,131 		"/>
		<polygon class="st0" points="836.5,130.9 775.1,166.3 743,147.8 804.4,112.4 		"/>
		<polygon class="st0" points="804.2,112.2 742.8,147.7 710.7,129.1 772.1,93.7 		"/>
		<polygon class="st0" points="772,93.6 710.6,129.1 678.5,110.5 739.9,75.1 		"/>
		<polygon class="st0" points="739.5,74.9 678.1,110.3 646.1,91.8 707.5,56.4 		"/>
		<polygon class="st0" points="707.2,56.6 645.8,92.1 613.8,73.5 675.2,38.1 		"/>
		<polygon class="st0" points="674.9,38 613.5,73.4 581.5,54.9 642.9,19.5 		"/>
		<polygon class="st0" points="642.8,19 581.4,54.5 549.3,35.9 610.7,0.5 		"/>
		<polygon class="st0" points="775.1,166.3 807.4,184.9 807.3,233.7 775.1,215.1 		"/>
		<polygon class="st0" points="742.9,147.7 775.1,166.3 775.1,215 742.9,196.4 		"/>
		<polygon class="st0" points="710.7,128.9 743,147.5 742.9,196.2 710.7,177.6 		"/>
		<polygon class="st0" points="678.5,110 710.8,128.6 710.7,177.4 678.5,158.8 		"/>
		<polygon class="st0" points="646.1,91.6 678.3,110.2 678.3,158.9 646.1,140.4 		"/>
		<polygon class="st0" points="613.8,74.1 646,92.7 646,141.5 613.8,122.9 		"/>
		<polygon class="st0" points="581.5,55.2 613.7,73.8 613.7,122.5 581.5,103.9 		"/>
		<polygon class="st0" points="549.3,36.3 581.5,54.9 581.5,103.6 549.3,85 		"/>
	</g>
	<g>
		<polygon class="st0" points="802.9,187.5 802.9,236.3 741.4,271.7 741.4,223 741.5,223 		"/>
		<polygon class="st0" points="802.9,187.5 741.5,223 709.4,204.4 770.8,169 		"/>
		<polygon class="st0" points="770.6,168.9 709.2,204.4 677.1,185.9 738.5,150.4 		"/>
		<polygon class="st0" points="738.3,150.3 676.9,185.7 644.8,167.2 706.2,131.8 		"/>
		<polygon class="st0" points="706.1,131.7 644.7,167.1 612.6,148.6 674,113.2 		"/>
		<polygon class="st0" points="673.6,112.9 612.2,148.4 580.2,129.9 641.6,94.4 		"/>
		<polygon class="st0" points="641.3,94.7 579.9,130.1 547.9,111.6 609.3,76.1 		"/>
		<polygon class="st0" points="609,76 547.6,111.5 515.6,92.9 577,57.5 		"/>
		<polygon class="st0" points="576.9,57.1 515.5,92.5 483.4,74 544.8,38.5 		"/>
		<polygon class="st0" points="709.2,204.4 741.5,223 741.4,271.7 709.2,253.1 		"/>
		<polygon class="st0" points="677,185.7 709.2,204.3 709.2,253.1 677,234.5 		"/>
		<polygon class="st0" points="644.8,166.9 677.1,185.5 677,234.2 644.8,215.7 		"/>
		<polygon class="st0" points="612.6,148.1 644.9,166.7 644.8,215.4 612.6,196.8 		"/>
		<polygon class="st0" points="580.2,129.6 612.4,148.3 612.4,197 580.2,178.4 		"/>
		<polygon class="st0" points="547.9,112.2 580.1,130.8 580.1,179.5 547.9,160.9 		"/>
		<polygon class="st0" points="515.6,93.2 547.8,111.8 547.8,160.6 515.6,142 		"/>
		<polygon class="st0" points="483.4,74.3 515.6,92.9 515.6,141.7 483.4,123.1 		"/>
	</g>
	<g>
		<polygon class="st0" points="737,225.6 737,274.3 675.5,309.8 675.5,261 675.6,261 		"/>
		<polygon class="st0" points="737,225.6 675.6,261 643.5,242.5 704.9,207.1 		"/>
		<polygon class="st0" points="704.7,207 643.3,242.4 611.2,223.9 672.6,188.5 		"/>
		<polygon class="st0" points="672.4,188.3 611,223.8 578.9,205.2 640.3,169.8 		"/>
		<polygon class="st0" points="640.2,169.7 578.8,205.2 546.7,186.6 608.1,151.2 		"/>
		<polygon class="st0" points="607.7,151 546.3,186.4 514.3,167.9 575.7,132.5 		"/>
		<polygon class="st0" points="575.4,132.7 514,168.2 482,149.6 543.4,114.2 		"/>
		<polygon class="st0" points="543.1,114.1 481.7,149.5 449.7,131 511.1,95.5 		"/>
		<polygon class="st0" points="511,95.1 449.6,130.6 417.5,112 478.9,76.6 		"/>
		<polygon class="st0" points="643.3,242.4 675.6,261 675.5,309.8 643.3,291.2 		"/>
		<polygon class="st0" points="611.1,223.8 643.3,242.4 643.3,291.1 611.1,272.5 		"/>
		<polygon class="st0" points="578.9,204.9 611.2,223.6 611.1,272.3 578.9,253.7 		"/>
		<polygon class="st0" points="546.7,186.1 579,204.7 578.9,253.5 546.7,234.9 		"/>
		<polygon class="st0" points="514.3,167.7 546.5,186.3 546.4,235 514.3,216.4 		"/>
		<polygon class="st0" points="482,150.2 514.2,168.8 514.2,217.6 482,199 		"/>
		<polygon class="st0" points="449.7,131.3 481.9,149.9 481.9,198.6 449.7,180 		"/>
		<polygon class="st0" points="417.5,112.4 449.7,131 449.7,179.7 417.5,161.1 		"/>
	</g>
	<g>
		<polygon class="st0" points="671.1,263.6 671.1,312.4 609.6,347.8 609.6,299.1 609.7,299.1 		"/>
		<polygon class="st0" points="671.1,263.6 609.7,299.1 577.6,280.5 639,245.1 		"/>
		<polygon class="st0" points="638.8,245 577.4,280.5 545.3,261.9 606.7,226.5 		"/>
		<polygon class="st0" points="606.5,226.4 545.1,261.8 513,243.3 574.4,207.9 		"/>
		<polygon class="st0" points="574.3,207.8 512.9,243.2 480.8,224.7 542.2,189.2 		"/>
		<polygon class="st0" points="541.8,189 480.4,224.5 448.3,205.9 509.7,170.5 		"/>
		<polygon class="st0" points="509.5,170.8 448.1,206.2 416.1,187.7 477.5,152.2 		"/>
		<polygon class="st0" points="477.2,152.1 415.8,187.6 383.8,169 445.2,133.6 		"/>
		<polygon class="st0" points="445.1,133.2 383.7,168.6 351.6,150.1 413,114.6 		"/>
		<polygon class="st0" points="577.4,280.5 609.7,299.1 609.6,347.8 577.4,329.2 		"/>
		<polygon class="st0" points="545.2,261.8 577.4,280.4 577.4,329.2 545.2,310.6 		"/>
		<polygon class="st0" points="513,243 545.2,261.6 545.2,310.4 513,291.8 		"/>
		<polygon class="st0" points="480.8,224.2 513.1,242.8 513,291.5 480.8,272.9 		"/>
		<polygon class="st0" points="448.3,205.7 480.6,224.4 480.5,273.1 448.3,254.5 		"/>
		<polygon class="st0" points="416.1,188.2 448.3,206.9 448.3,255.6 416.1,237 		"/>
		<polygon class="st0" points="383.8,169.3 416,187.9 416,236.7 383.8,218.1 		"/>
		<polygon class="st0" points="351.6,150.4 383.8,169 383.8,217.8 351.6,199.2 		"/>
	</g>
	<g>
		<polygon class="st0" points="605.2,301.7 605.2,350.4 543.7,385.9 543.7,337.1 543.8,337.1 		"/>
		<polygon class="st0" points="605.2,301.7 543.8,337.1 511.7,318.6 573.1,283.2 		"/>
		<polygon class="st0" points="572.9,283.1 511.5,318.5 479.4,300 540.8,264.5 		"/>
		<polygon class="st0" points="540.6,264.4 479.2,299.9 447.1,281.3 508.5,245.9 		"/>
		<polygon class="st0" points="508.4,245.8 447,281.3 414.9,262.7 476.3,227.3 		"/>
		<polygon class="st0" points="475.9,227.1 414.5,262.5 382.4,244 443.8,208.6 		"/>
		<polygon class="st0" points="443.6,208.8 382.2,244.3 350.2,225.7 411.6,190.3 		"/>
		<polygon class="st0" points="411.3,190.2 349.9,225.6 317.9,207.1 379.3,171.6 		"/>
		<polygon class="st0" points="379.2,171.2 317.8,206.7 285.7,188.1 347.1,152.7 		"/>
		<polygon class="st0" points="511.5,318.5 543.8,337.1 543.7,385.9 511.5,367.3 		"/>
		<polygon class="st0" points="479.3,299.9 511.5,318.5 511.5,367.2 479.3,348.6 		"/>
		<polygon class="st0" points="447.1,281 479.3,299.6 479.3,348.4 447.1,329.8 		"/>
		<polygon class="st0" points="414.9,262.2 447.2,280.8 447.1,329.6 414.9,311 		"/>
		<polygon class="st0" points="382.4,243.8 414.7,262.4 414.6,311.1 382.4,292.5 		"/>
		<polygon class="st0" points="350.2,226.3 382.4,244.9 382.4,293.6 350.2,275.1 		"/>
		<polygon class="st0" points="317.9,207.4 350.1,226 350,274.7 317.9,256.1 		"/>
		<polygon class="st0" points="285.7,188.5 317.9,207.1 317.9,255.8 285.7,237.2 		"/>
	</g>
</g>
<polygon class="st1" points="886.9,785.7 543.7,982.2 254,815.2 254,784.4 543.7,951.3 886.9,754.8 "/>
<line class="st2" x1="285.7" y1="765.9" x2="254" y2="784.5"/>
<line class="st2" x1="868.8" y1="744.2" x2="887.3" y2="755.1"/>
<line class="st3" x1="210" y1="187.5" x2="210" y2="784.4"/>
<g class="st4">
	<path d="M10.3,422.2L10.3,422.2L5,424.8l-0.9-4.1l6.9-3.4h4.5v28.4h-5.2V422.2z"/>
	<path d="M33.7,422.2L33.7,422.2l-5.3,2.6l-0.9-4.1l6.9-3.4h4.5v28.4h-5.2V422.2z"/>
	<path d="M59,416.3h5.4v24.9h12.1v4.5H59V416.3z"/>
	<path d="M92.2,445.8l-0.3-2.4h-0.1c-1.3,1.7-3.5,2.8-6.3,2.8c-4.3,0-6.7-3.1-6.7-6.3c0-5.4,4.8-8.1,12.6-8v-0.3
		c0-1.4-0.6-3.7-4.3-3.7c-2.1,0-4.3,0.7-5.7,1.6l-1-3.5c1.6-1,4.3-1.9,7.7-1.9c6.8,0,8.8,4.3,8.8,9v7.7c0,1.9,0.1,3.8,0.3,5.1H92.2z
		 M91.5,435.4c-3.8-0.1-7.4,0.7-7.4,4c0,2.1,1.4,3.1,3.1,3.1c2.1,0,3.7-1.4,4.2-2.9c0.1-0.4,0.2-0.8,0.2-1.2V435.4z"/>
	<path d="M105.4,424.5l3.8,11.4c0.4,1.3,0.9,2.9,1.2,4.1h0.1c0.3-1.2,0.7-2.8,1.1-4.2l3.3-11.4h5.8l-5.3,14.5
		c-2.9,7.9-4.9,11.5-7.4,13.7c-2.1,1.9-4.3,2.6-5.6,2.8l-1.2-4.5c0.9-0.2,2.1-0.7,3.1-1.5c1-0.7,2.2-1.9,2.9-3.4
		c0.2-0.4,0.3-0.7,0.3-1c0-0.2,0-0.5-0.3-1l-7.8-19.5H105.4z"/>
	<path d="M127.1,436.6c0.1,3.8,3.1,5.5,6.6,5.5c2.5,0,4.3-0.3,5.9-1l0.8,3.7c-1.8,0.7-4.4,1.3-7.4,1.3c-6.9,0-11-4.2-11-10.7
		c0-5.9,3.6-11.4,10.4-11.4c6.9,0,9.2,5.7,9.2,10.3c0,1-0.1,1.8-0.2,2.3H127.1z M136.4,432.9c0-2-0.8-5.2-4.4-5.2
		c-3.3,0-4.7,3-4.9,5.2H136.4z"/>
	<path d="M145.8,431.3c0-2.9,0-4.9-0.2-6.9h4.7l0.2,4.1h0.2c1-3,3.5-4.5,5.8-4.5c0.5,0,0.8,0,1.3,0.1v5.1c-0.4-0.1-0.9-0.2-1.6-0.2
		c-2.6,0-4.3,1.7-4.8,4.1c-0.1,0.5-0.2,1-0.2,1.7v11h-5.4V431.3z"/>
	<path d="M161.1,440.8c1.2,0.7,3.5,1.5,5.5,1.5c2.4,0,3.4-1,3.4-2.4c0-1.4-0.9-2.2-3.5-3.1c-4.1-1.4-5.9-3.7-5.9-6.2
		c0-3.8,3.1-6.7,8-6.7c2.4,0,4.4,0.6,5.6,1.3l-1,3.8c-0.9-0.5-2.6-1.2-4.5-1.2c-1.9,0-3,0.9-3,2.2c0,1.4,1,2,3.7,3
		c3.8,1.4,5.6,3.4,5.7,6.5c0,3.8-3,6.6-8.6,6.6c-2.6,0-4.9-0.6-6.5-1.5L161.1,440.8z"/>
</g>
<g class="st4">
	<path d="M918.4,177.4v-6.8h-12v-3.3l10.8-16.6h5.9v16h3.4v3.8h-3.4v6.8H918.4z M918.4,166.8v-7.2c0-1.5,0-3.1,0.2-4.6h-0.2
		c-0.8,1.7-1.5,3-2.3,4.5l-4.9,7.3l0,0.1H918.4z"/>
	<path d="M940.4,177.4v-6.8h-12v-3.3l10.8-16.6h5.9v16h3.4v3.8h-3.4v6.8H940.4z M940.4,166.8v-7.2c0-1.5,0-3.1,0.2-4.6h-0.2
		c-0.8,1.7-1.5,3-2.3,4.5l-4.9,7.3l0,0.1H940.4z"/>
	<path d="M970,163.9c0,8.5-3.4,13.9-9.7,13.9c-6.1,0-9.4-5.6-9.5-13.7c0-8.3,3.5-13.8,9.7-13.8C967,150.4,970,156.1,970,163.9z
		 M955.9,164.2c0,6.5,1.8,9.8,4.5,9.8c2.9,0,4.5-3.6,4.5-10c0-6.2-1.5-9.8-4.5-9.8C957.7,154.2,955.9,157.5,955.9,164.2z"/>
	<path d="M1002.5,176.6c-1.2,0.6-3.8,1.2-7.1,1.2c-8.8,0-14.1-5.5-14.1-13.9c0-9.1,6.3-14.6,14.7-14.6c3.3,0,5.7,0.7,6.7,1.2l-1.1,4
		c-1.3-0.6-3.1-1.1-5.4-1.1c-5.6,0-9.7,3.5-9.7,10.1c0,6.1,3.6,9.9,9.6,9.9c2,0,4.2-0.4,5.5-1L1002.5,176.6z"/>
	<path d="M1006.3,172.8c1.1,0.7,3.3,1.4,5.1,1.4c2.2,0,3.2-0.9,3.2-2.2c0-1.4-0.8-2-3.3-2.9c-3.9-1.3-5.5-3.5-5.5-5.8
		c0-3.5,2.9-6.3,7.5-6.3c2.2,0,4.1,0.6,5.3,1.2l-1,3.6c-0.9-0.5-2.5-1.1-4.2-1.1c-1.8,0-2.8,0.9-2.8,2.1c0,1.3,0.9,1.9,3.5,2.8
		c3.6,1.3,5.3,3.1,5.3,6.1c0,3.6-2.8,6.2-8.1,6.2c-2.4,0-4.6-0.6-6.1-1.4L1006.3,172.8z"/>
	<path d="M1021.3,179l10-29.7h3.5l-10,29.7H1021.3z"/>
	<path d="M1037.6,150.2c1.8-0.3,4.3-0.6,7.7-0.6c3.7,0,6.4,0.8,8.1,2.2c1.6,1.4,2.7,3.5,2.7,6.1c0,2.6-0.8,4.8-2.4,6.3
		c-2,2-5.2,2.9-8.7,2.9c-0.9,0-1.8,0-2.5-0.2v10.4h-5V150.2z M1042.6,163c0.6,0.2,1.4,0.2,2.5,0.2c3.8,0,6.1-1.8,6.1-5.1
		c0-3.1-2.1-4.7-5.6-4.7c-1.4,0-2.4,0.1-2.9,0.2V163z"/>
	<path d="M1060.2,148.3h5.1v29h-5.1V148.3z"/>
	<path d="M1070.7,148.3h5.1v29h-5.1V148.3z"/>
	<path d="M1086.9,151.8v5.7h4.8v3.8h-4.8v8.8c0,2.4,0.7,3.7,2.6,3.7c0.9,0,1.5-0.1,2-0.2l0.1,3.8c-0.7,0.3-2,0.5-3.6,0.5
		c-1.8,0-3.4-0.6-4.3-1.6c-1.1-1.1-1.6-2.9-1.6-5.6v-9.4h-2.9v-3.8h2.9V153L1086.9,151.8z"/>
</g>
<g class="st4">
	<path d="M908.5,199.3c1.8-0.3,4.3-0.6,7.7-0.6c3.7,0,6.4,0.8,8.1,2.2c1.6,1.4,2.7,3.5,2.7,6.1c0,2.6-0.8,4.8-2.4,6.3
		c-2,2-5.2,2.9-8.7,2.9c-0.9,0-1.8,0-2.5-0.2v10.4h-5V199.3z M913.5,212.1c0.6,0.2,1.4,0.2,2.5,0.2c3.8,0,6.1-1.8,6.1-5.1
		c0-3.1-2.1-4.7-5.6-4.7c-1.4,0-2.4,0.1-2.9,0.2V212.1z"/>
	<path d="M931,197.4h5.1v29H931V197.4z"/>
	<path d="M941.5,197.4h5.1v29h-5.1V197.4z"/>
	<path d="M957.8,200.9v5.7h4.8v3.8h-4.8v8.8c0,2.4,0.7,3.7,2.6,3.7c0.9,0,1.5-0.1,2-0.2l0.1,3.8c-0.7,0.3-2,0.5-3.6,0.5
		c-1.8,0-3.4-0.6-4.3-1.6c-1.1-1.1-1.6-2.9-1.6-5.6v-9.4H950v-3.8h2.9v-4.5L957.8,200.9z"/>
	<path d="M965.8,209.9c0-1.9,1.3-3.2,3.1-3.2c1.8,0,3.1,1.3,3.1,3.2c0,1.8-1.2,3.2-3.1,3.2C967.1,213.1,965.8,211.8,965.8,209.9z
		 M965.8,223.7c0-1.9,1.3-3.2,3.1-3.2c1.8,0,3.1,1.3,3.1,3.2c0,1.8-1.2,3.2-3.1,3.2C967.1,226.9,965.8,225.5,965.8,223.7z"/>
	<path d="M994.7,226.5v-6.8h-12v-3.3l10.8-16.6h5.9v16h3.4v3.8h-3.4v6.8H994.7z M994.7,215.9v-7.2c0-1.5,0-3.1,0.2-4.6h-0.2
		c-0.8,1.7-1.5,3-2.3,4.5l-4.9,7.3l0,0.1H994.7z"/>
	<path d="M1024.3,213c0,8.5-3.4,13.9-9.7,13.9c-6.1,0-9.4-5.6-9.5-13.7c0-8.3,3.5-13.8,9.7-13.8
		C1021.3,199.4,1024.3,205.2,1024.3,213z M1010.2,213.3c0,6.5,1.8,9.8,4.5,9.8c2.9,0,4.5-3.6,4.5-10c0-6.2-1.5-9.8-4.5-9.8
		C1012.1,203.3,1010.2,206.6,1010.2,213.3z"/>
	<path d="M1034.4,198.5c-1.1,3.7-2.9,7.9-4.4,10.5l-3.1,0.3c1.1-3,2.1-7.1,2.7-10.4L1034.4,198.5z M1041.5,198.5
		c-1.1,3.7-2.9,7.9-4.4,10.5l-3.1,0.3c1.1-3,2.2-7.1,2.7-10.4L1041.5,198.5z"/>
	<path d="M1053.8,206.6l2.4,3.8c0.7,1.1,1.2,2,1.8,3.1h0.1c0.6-1.1,1.1-2.1,1.7-3.1l2.2-3.7h5.5l-6.7,9.6l6.8,10.4h-5.7l-2.5-4
		c-0.7-1.1-1.2-2.1-1.8-3.2h-0.1c-0.6,1.1-1.1,2.1-1.8,3.2l-2.3,4h-5.6l6.9-10.1l-6.7-9.8H1053.8z"/>
	<path d="M1089.3,226.5v-6.8h-12v-3.3l10.8-16.6h5.9v16h3.4v3.8h-3.4v6.8H1089.3z M1089.3,215.9v-7.2c0-1.5,0-3.1,0.2-4.6h-0.2
		c-0.8,1.7-1.5,3-2.3,4.5l-4.9,7.3l0,0.1H1089.3z"/>
	<path d="M1099.7,219.6c0-3.3,1.9-5.6,5-6.9v-0.1c-2.8-1.4-4-3.6-4-5.9c0-4.3,3.8-7.3,8.9-7.3c5.7,0,8.3,3.4,8.3,6.7
		c0,2.2-1.2,4.6-4.1,6v0.1c2.9,1.1,5.1,3.4,5.1,6.7c0,4.7-4,7.9-9.7,7.9C1103,226.9,1099.7,223.4,1099.7,219.6z M1113.8,219.4
		c0-2.7-2-4.2-5-5c-2.5,0.7-3.9,2.5-3.9,4.7c-0.1,2.2,1.6,4.3,4.5,4.3C1112,223.4,1113.8,221.7,1113.8,219.4z M1105.5,206.5
		c0,2.2,1.8,3.5,4.3,4.2c1.8-0.5,3.3-2,3.3-4c0-1.8-1.1-3.8-3.8-3.8C1106.8,202.9,1105.5,204.6,1105.5,206.5z"/>
	<path d="M1129,198.5c-1.1,3.7-2.9,7.9-4.4,10.5l-3.1,0.3c1.1-3,2.1-7.1,2.7-10.4L1129,198.5z M1136.1,198.5
		c-1.1,3.7-2.9,7.9-4.4,10.5l-3.1,0.3c1.1-3,2.2-7.1,2.7-10.4L1136.1,198.5z"/>
</g>
<g class="st4">
	<path d="M790.5,875h-10.9l-0.8,5.7c0.7-0.1,1.2-0.1,2.1-0.1c2.5,0,5,0.6,6.9,1.8c2.1,1.4,3.7,3.8,3.7,7.2c0,5.4-4.5,9.8-11.5,9.8
		c-3.3,0-6-0.8-7.5-1.7l1.1-4.1c1.2,0.7,3.7,1.5,6.2,1.5c3.1,0,6.2-1.8,6.2-5.2c0-3.2-2.4-5.4-8.1-5.4c-1.6,0-2.8,0.1-3.9,0.3
		l1.9-14.3h14.7V875z"/>
</g>
<g class="st4">
	<path d="M333.9,935c0-3.5,2.1-5.9,5.3-7.4v-0.1c-3-1.4-4.3-3.8-4.3-6.3c0-4.6,4.1-7.8,9.5-7.8c6.1,0,8.9,3.7,8.9,7.2
		c0,2.4-1.3,4.9-4.4,6.4v0.1c3.1,1.2,5.4,3.6,5.4,7.2c0,5.1-4.3,8.5-10.4,8.5C337.4,942.8,333.9,939,333.9,935z M348.9,934.8
		c0-2.9-2.1-4.5-5.3-5.3c-2.7,0.8-4.2,2.6-4.2,5c-0.1,2.4,1.7,4.6,4.8,4.6C347,939,348.9,937.2,348.9,934.8z M340,921
		c0,2.3,1.9,3.7,4.6,4.5c1.9-0.6,3.5-2.1,3.5-4.3c0-2-1.2-4-4.1-4C341.4,917.2,340,918.9,340,921z"/>
</g>
</svg>
