<?xml version="1.0" encoding="utf-8"?>
<!-- Generator: Adobe Illustrator 26.3.1, SVG Export Plug-In . SVG Version: 6.00 Build 0)  -->
<svg version="1.1" id="Layer_1" xmlns="http://www.w3.org/2000/svg" xmlns:xlink="http://www.w3.org/1999/xlink" x="0px" y="0px"
	 viewBox="0 0 663.7 363" style="enable-background:new 0 0 663.7 363;" xml:space="preserve">
<style type="text/css">
	.st0{fill:#E04403;}
	.st1{fill:#FFFFFF;}
</style>
<path class="st0" d="M494.1,37l169.6,84.6l-24.8,49.8c-85.2,170.9-293.1,240.4-464,155.2L0,239.3l22.2-44.5
	C108.9,21.1,320.4-49.7,494.1,37L494.1,37z"/>
<g>
	<path class="st1" d="M232.5,196.6c9.2,0,16.1-3.6,20.9-7.6v0c-1-1.8-1.8-3.9-2.4-6.4c-14.9,7.6-20-3.5-12-33
		c6.2-23,7.2-26.8,7.2-26.8h-16.5c-3.1,0-5.7,2.1-6.5,5l-5.8,21.8C207.8,184.8,218.5,196.6,232.5,196.6z"/>
	<path class="st1" d="M270.9,196.6c8.7,0,15.3-3.2,20.1-6.9l0,0c-1.4-1.8-2.6-3.8-3.5-6.2c-13.4,5.7-17.7-5.7-10.1-33.9
		c6.2-23,7.2-26.8,7.2-26.8H268c-3.1,0-5.7,2.1-6.5,5l-5.8,21.8C246.2,184.8,256.9,196.6,270.9,196.6z"/>
	<path class="st1" d="M400.9,110.4c-1.6,0.2-3.3,0.3-4.9,0.5c-4.9,0.7-11,1.5-17.5,2.1c-3.1,11.5-7,26.2-10.2,38.1
		c-9.4,35.1-2.5,46.9,11.2,46.9s23.5-38.6,31.3-64.5h0c-0.5-2.6-1.2-4.7-1.7-7.1c-7.4,22.1-17.6,54.6-21.5,54.6s-0.1-20.3,1.4-25.9
		C392.5,141.7,397.4,123.4,400.9,110.4z"/>
	<path class="st1" d="M426.7,198c10,0,17.3-4.3,22.2-8.7l0,0c-1.3-1.7-2.3-3.5-3.2-5.5c-15.2,8.1-20.5-2.9-12.5-32.7
		c0.7-2.4,1.9-7,3-10.9c0.9-3.4-0.8-7-4.1-8.2c-7-2.6-13.3-7.1-17.5-10.6c-1.9-1.6-4.7,0-4.4,2.4c1.1,9,5.7,11.3-1.1,36.8
		C403,182.7,412.7,198,426.7,198z"/>
	<path class="st1" d="M307.6,196.6c8.7,0,15.1-3.5,19.6-7.3c-1.1-1.7-2-3.6-2.7-5.9c-11.5,7.7-20.7-3.5-12.8-33
		c5.7-21.3,14.4-22.2,20.2-20.1c0.6,0.2,1.2,0.5,1.7,0.7l-5,18.7c-9.4,35.1,1.3,46.9,15.3,46.9c8.2,0,14.6-2.8,19.3-6.3v0
		c-1.1-1.8-1.9-4.1-2.4-6.9c-13.6,6-18.1-5.3-10.5-33.7c6.2-23,7.2-26.8,7.2-26.8H341c-2.3,0-4.3,1.1-5.5,2.9
		c-0.4-0.2-0.9-0.4-1.4-0.7c-2.7-1.2-6.1-2.2-9.8-2.2c-6.5,0-26.6-1-34.2,27.5C282.4,178.8,292.2,196.6,307.6,196.6z"/>
	<path class="st1" d="M396,109.3c12.2-1.4,24.5-2,36.7-1.4c4.9,0.2,9.8,0.8,14.8,1.6c-4.5-2.2-9.5-3.5-14.4-4.6
		c-9.9-2-20.1-2.6-30.2-2.2c0,0,0,0,0,0c1.4-5.2,2.3-8.5,2.3-8.5h-16.5c-3.1,0-5.7,2.1-6.5,5c-0.4,1.6-1,3.6-1.6,5.8
		c-7.4,0.9-14.7,1.8-22.1,2.1c-7.9,0.3-16,0.4-23.7-1.6c-1.8-0.5-3.5-1.2-5.2-2C344.4,116.2,377.9,111.8,396,109.3z"/>
	<path class="st1" d="M539.4,159.9c-11-17.3-28.1-17-38.2-17c-0.7,0-1.4,0-2.1-0.1c-2.9-12.1-10.5-21.9-23-21.9
		c-14.7,0-7.6,31.6,14.5,35.5c-0.1,3.5-0.5,7-1.4,10.5l9.6,0.5c0.9-3.4,1.5-7.1,1.6-10.8C516,155.5,528.2,150.4,539.4,159.9z
		 M476.7,125.7c3.8,0,8.4,5.7,11.2,14C477.7,134.8,472.3,125.7,476.7,125.7z"/>
	<path class="st1" d="M195.3,209.1c27.8,44,14.9,84.9-3.1,84.9s-21-15.1-13.1-44.5l40.5-151.3h-18.3l0,0c-3.1,0-5.8,2.1-6.5,5
		l-0.1,0.3c-1.3-1.9-2.9-3.8-4.7-5.6c-4-3.9-9.1-7-15.4-7c-8.3,0-33.4,0.4-44.9,43.3c-11.5,42.9,7.8,65.9,26.4,65.9
		c2.4,0,4.7-0.3,6.7-0.9l2.5-9.2c-1.2,0.2-2.6,0.4-4,0.4c-12.2,0-12.5-26.5-6.7-48.2c4.8-17.9,12-41.4,23-41.4c4.6,0,8,1.8,10.6,4
		c2.2,1.9,3.7,4.1,4.7,5.8L162,226c-13.4,49.9,3.4,76.1,30.3,76.1C214.9,302.1,249.8,260.7,195.3,209.1z"/>
	<path class="st1" d="M204.9,203.6c-2.2,0.3-2.4,3.1-0.3,3.7c56.7,16.6,80.9,63,163.9,72.3v0c-38.3-17.2-92.3-57.6-101-62.9
		C256,209.8,235.7,199.6,204.9,203.6z"/>
	<path class="st1" d="M420.8,272.5c-31.2-10.5-49.5-25.4-81.8-43c-11.9-6.5-24.6-11.3-37.9-14.5c-7.3-1.8-15.8-3.8-23.2-5.5
		c-2.2-0.5-3.5,2.2-1.6,3.5c6.8,4.4,15,9.8,24.9,16.4c49.2,33,51.2,36.5,66.8,43.6c0.2,0.1,0.5,0.2,0.7,0.3
		c13.4,6.1,28.4,8.6,43.2,7.4c9.5-0.8,19.8-1.9,25.5-3.3C431.2,275.8,425.6,274.1,420.8,272.5L420.8,272.5z"/>
	<path class="st1" d="M432.4,241.5c-8.9-2-21.2-6-30-9c-7.1-2.4-14.4-3.9-21.9-4.3c-9.8-0.6-19.3-1.7-28.6-3.1
		c-2.2-0.3-3.3,2.5-1.3,3.5c42.5,23.6,52.6,30.7,71.8,36.5c4.7,1.4,10.2,2.8,16.5,4c10.1,1.9,20.6,0.3,29.7-4.2
		c9.9-5,18.8-10.8,26.8-17h0C476.3,248.3,455.1,246.6,432.4,241.5z"/>
	<polygon class="st1" points="550,181.5 550,181.5 550,181.5 	"/>
	<path class="st1" d="M418.2,227.8c-2.2,0.2-2.6,3.3-0.5,4c12,3.8,25.8,6.9,41.3,8.3c8.5,0.8,16.6,1,24.2,0.8
		c14.8-0.4,33.9-10.7,43.3-21.4c19.3-21.9,23.3-37.8,23.3-38C549.4,181.9,503.3,221.9,418.2,227.8z"/>
	<path class="st1" d="M468.8,200c14.7,0,24.6-12.8,29.9-32.7l-9.6-0.5c-3,11.3-10.1,24.6-19,24.6c-5.6,0-9.4-8.2-4.7-25.7
		c1.8-6.5,4.5-10.5,6.3-13.5c0.7-1.2,0.7-2.7-0.2-3.8c-5.4-6.8-9.3-17.6-7-22.2c-7.2,3.6-14.8,12.3-18.5,26.2
		C440.6,172.2,446.9,200,468.8,200z"/>
	<polygon class="st1" points="498.7,167.3 498.7,167.3 498.7,167.3 	"/>
</g>
</svg>
