<?xml version="1.0" encoding="utf-8"?>
<!-- Generator: Adobe Illustrator 26.3.1, SVG Export Plug-In . SVG Version: 6.00 Build 0)  -->
<svg version="1.1" id="Layer_1" xmlns="http://www.w3.org/2000/svg" xmlns:xlink="http://www.w3.org/1999/xlink" x="0px" y="0px"
	 viewBox="0 0 52 30" style="enable-background:new 0 0 52 30;" xml:space="preserve">
<style type="text/css">
	.st0{fill:none;}
	.st1{fill:#FFFFFF;}
</style>
<g id="Path_2954" transform="translate(13.491 5.105)">
	<g>
		<path class="st0" d="M6.5-0.1c4,0.1,7.1,3.5,7,7.5c0.1,4-3,7.4-7,7.5c-4-0.1-7.1-3.5-7-7.5C-0.6,3.4,2.5,0,6.5-0.1z"/>
	</g>
	<g>
		<path class="st1" d="M6.5,1.9c-2.8,0-5,2.5-5,5.5s2.2,5.5,5,5.5s5-2.5,5-5.5S9.3,1.9,6.5,1.9 M6.5-0.1c3.9,0,7,3.4,7,7.5
			s-3.1,7.5-7,7.5s-7-3.4-7-7.5S2.6-0.1,6.5-0.1z"/>
	</g>
</g>
<g id="Line_1">
	<rect x="29.9" y="13.6" transform="matrix(0.5855 -0.8107 0.8107 0.5855 -3.8513 33.6111)" class="st1" width="2" height="14"/>
</g>
</svg>
