<svg id="twitter-logo" xmlns="http://www.w3.org/2000/svg" width="48.171" height="48.189" viewBox="0 0 48.171 48.189">
  <path id="Path_28" data-name="Path 28" d="M295.615,390.016a24.11,24.11,0,1,0,7.046,17.039A24.042,24.042,0,0,0,295.615,390.016Zm-5.088,11c.018.256.018.512.018.787v.238a17.291,17.291,0,0,1-17.57,17.057,17.677,17.677,0,0,1-9.462-2.727,13.1,13.1,0,0,0,1.464.091,12.548,12.548,0,0,0,7.687-2.617,6.183,6.183,0,0,1-5.783-4.209,6.345,6.345,0,0,0,1.171.11,6.134,6.134,0,0,0,1.629-.22,6.111,6.111,0,0,1-4.96-5.966v-.073a6.21,6.21,0,0,0,2.8.75,6.063,6.063,0,0,1-2.745-5.051,5.953,5.953,0,0,1,.842-3.056,17.65,17.65,0,0,0,12.72,6.351,5.667,5.667,0,0,1-.146-1.482,6.085,6.085,0,0,1,6.168-5.985,6.27,6.27,0,0,1,4.521,1.922,12.55,12.55,0,0,0,3.917-1.482,6.07,6.07,0,0,1-2.727,3.368,12.593,12.593,0,0,0,3.551-.952A12.64,12.64,0,0,1,290.527,401.016Z" transform="translate(-254.49 -382.97)"/>
  <path id="Path_29" data-name="Path 29" d="M295.615,390.016a24.11,24.11,0,1,0,7.046,17.039A24.042,24.042,0,0,0,295.615,390.016Zm-5.088,11c.018.256.018.512.018.787v.238a17.291,17.291,0,0,1-17.57,17.057,17.677,17.677,0,0,1-9.462-2.727,13.1,13.1,0,0,0,1.464.091,12.548,12.548,0,0,0,7.687-2.617,6.183,6.183,0,0,1-5.783-4.209,6.345,6.345,0,0,0,1.171.11,6.134,6.134,0,0,0,1.629-.22,6.111,6.111,0,0,1-4.96-5.966v-.073a6.21,6.21,0,0,0,2.8.75,6.063,6.063,0,0,1-2.745-5.051,5.953,5.953,0,0,1,.842-3.056,17.65,17.65,0,0,0,12.72,6.351,5.667,5.667,0,0,1-.146-1.482,6.085,6.085,0,0,1,6.168-5.985,6.27,6.27,0,0,1,4.521,1.922,12.55,12.55,0,0,0,3.917-1.482,6.07,6.07,0,0,1-2.727,3.368,12.593,12.593,0,0,0,3.551-.952A12.64,12.64,0,0,1,290.527,401.016Z" transform="translate(-254.49 -382.97)"/>
  <path id="Path_30" data-name="Path 30" d="M295.615,390.016a24.11,24.11,0,1,0,7.046,17.039A24.042,24.042,0,0,0,295.615,390.016Zm-5.088,11c.018.256.018.512.018.787v.238a17.291,17.291,0,0,1-17.57,17.057,17.677,17.677,0,0,1-9.462-2.727,13.1,13.1,0,0,0,1.464.091,12.548,12.548,0,0,0,7.687-2.617,6.183,6.183,0,0,1-5.783-4.209,6.345,6.345,0,0,0,1.171.11,6.134,6.134,0,0,0,1.629-.22,6.111,6.111,0,0,1-4.96-5.966v-.073a6.21,6.21,0,0,0,2.8.75,6.063,6.063,0,0,1-2.745-5.051,5.953,5.953,0,0,1,.842-3.056,17.65,17.65,0,0,0,12.72,6.351,5.667,5.667,0,0,1-.146-1.482,6.085,6.085,0,0,1,6.168-5.985,6.27,6.27,0,0,1,4.521,1.922,12.55,12.55,0,0,0,3.917-1.482,6.07,6.07,0,0,1-2.727,3.368,12.593,12.593,0,0,0,3.551-.952A12.64,12.64,0,0,1,290.527,401.016Z" transform="translate(-254.49 -382.97)"/>
</svg>
